<svg width="117" height="121" viewBox="0 0 117 121" fill="none" xmlns="http://www.w3.org/2000/svg">
<g opacity="0.45">
<path d="M56.3916 0C57.9411 1.34133e-06 59.4844 0.0599302 61.0186 0.177734C56.3746 4.33721 53.4522 10.3794 53.4521 17.1045C53.4521 19.4299 53.802 21.6736 54.4512 23.7861H22.1826V97.0156H56.3916C66.1023 97.0156 75.4157 93.1575 82.2822 86.291C89.1487 79.4245 93.0068 70.1111 93.0068 60.4004C93.0067 52.2129 90.2642 44.308 85.2881 37.9141C93.1877 34.4474 98.7356 26.6177 98.8809 17.4727C98.9543 17.5453 99.0285 17.6173 99.1016 17.6904C110.429 29.0177 116.793 44.3812 116.793 60.4004C116.793 76.4196 110.429 91.783 99.1016 103.11C87.7742 114.438 72.4109 120.802 56.3916 120.802H0V0H56.3916Z" fill="#A80606"/>
<circle cx="76.1693" cy="17.1048" r="12.0267" fill="black"/>
</g>
</svg>
