<svg width="244" height="155" viewBox="0 0 244 155" fill="none" xmlns="http://www.w3.org/2000/svg">
<g filter="url(#filter0_d_1_562)">
<rect x="15" y="15" width="214" height="125" rx="12" fill="white"/>
</g>
<path d="M115.11 120H112.098V112.954H115.042C115.709 112.954 116.233 113.112 116.614 113.428C116.995 113.74 117.186 114.168 117.186 114.712C117.186 115.083 117.065 115.413 116.824 115.703C116.583 115.993 116.285 116.165 115.931 116.221V116.309C116.406 116.354 116.792 116.533 117.088 116.846C117.384 117.155 117.532 117.539 117.532 117.998C117.532 118.617 117.316 119.105 116.883 119.463C116.453 119.821 115.862 120 115.11 120ZM113.357 113.955V115.918H114.573C115.019 115.918 115.358 115.835 115.589 115.669C115.823 115.5 115.94 115.256 115.94 114.937C115.94 114.627 115.835 114.386 115.623 114.214C115.411 114.041 115.115 113.955 114.734 113.955H113.357ZM113.357 118.999H114.822C115.288 118.999 115.641 118.906 115.882 118.721C116.123 118.532 116.243 118.258 116.243 117.9C116.243 117.549 116.118 117.282 115.867 117.1C115.62 116.917 115.255 116.826 114.773 116.826H113.357V118.999ZM118.792 120V114.658H119.998V120H118.792ZM119.393 113.789C119.174 113.789 118.995 113.727 118.855 113.604C118.715 113.477 118.646 113.315 118.646 113.12C118.646 112.925 118.715 112.765 118.855 112.642C118.995 112.515 119.174 112.451 119.393 112.451C119.614 112.451 119.793 112.515 119.93 112.642C120.07 112.765 120.14 112.925 120.14 113.12C120.14 113.315 120.07 113.477 119.93 113.604C119.793 113.727 119.614 113.789 119.393 113.789ZM123.743 115.513C123.382 115.513 123.084 115.632 122.85 115.869C122.615 116.107 122.485 116.421 122.459 116.812H124.974C124.961 116.414 124.843 116.099 124.622 115.864C124.401 115.63 124.108 115.513 123.743 115.513ZM124.983 118.53H126.131C126.017 119.019 125.748 119.404 125.325 119.688C124.905 119.967 124.383 120.107 123.758 120.107C122.973 120.107 122.356 119.863 121.907 119.375C121.461 118.883 121.238 118.208 121.238 117.349C121.238 116.489 121.463 115.809 121.912 115.308C122.361 114.803 122.973 114.551 123.748 114.551C124.51 114.551 125.105 114.79 125.535 115.269C125.968 115.744 126.185 116.403 126.185 117.246V117.637H122.454V117.7C122.47 118.146 122.597 118.499 122.835 118.76C123.076 119.017 123.395 119.146 123.792 119.146C124.404 119.146 124.801 118.94 124.983 118.53ZM127.4 120V114.658H128.567V115.513H128.65C128.781 115.207 128.979 114.971 129.246 114.805C129.516 114.635 129.847 114.551 130.237 114.551C130.83 114.551 131.284 114.723 131.6 115.068C131.919 115.413 132.078 115.905 132.078 116.543V120H130.867V116.831C130.867 116.014 130.507 115.605 129.788 115.605C129.427 115.605 129.14 115.721 128.929 115.952C128.717 116.183 128.611 116.496 128.611 116.89V120H127.4Z" fill="#040415"/>
<path d="M58.5074 95.583L52.0177 99L53.2574 91.7626L48 86.6376L55.2552 85.5845L58.5 79L61.7448 85.5845L69 86.6376L63.7426 91.7626L64.9823 99L58.5074 95.583Z" fill="#A80606" stroke="#A80606" stroke-width="1.82" stroke-linecap="round" stroke-linejoin="round"/>
<path d="M90.5074 95.583L84.0177 99L85.2574 91.7626L80 86.6376L87.2552 85.5845L90.5 79L93.7448 85.5845L101 86.6376L95.7426 91.7626L96.9823 99L90.5074 95.583Z" fill="#A80606" stroke="#A80606" stroke-width="1.82" stroke-linecap="round" stroke-linejoin="round"/>
<path d="M123.507 95.583L117.018 99L118.257 91.7626L113 86.6376L120.255 85.5845L123.5 79L126.745 85.5845L134 86.6376L128.743 91.7626L129.982 99L123.507 95.583Z" fill="#A80606" stroke="#A80606" stroke-width="1.82" stroke-linecap="round" stroke-linejoin="round"/>
<path d="M155.507 95.583L149.018 99L150.257 91.7626L145 86.6376L152.255 85.5845L155.5 79L158.745 85.5845L166 86.6376L160.743 91.7626L161.982 99L155.507 95.583Z" fill="#A80606" stroke="#A80606" stroke-width="1.82" stroke-linecap="round" stroke-linejoin="round"/>
<path d="M188.007 95.583L181.826 99L183.007 91.7626L178 86.6376L184.91 85.5845L188 79L191.09 85.5845L198 86.6376L192.993 91.7626L194.174 99L188.007 95.583Z" fill="#A80606" stroke="#A80606" stroke-width="1.82" stroke-linecap="round" stroke-linejoin="round"/>
<path d="M65.207 46.2529C63.776 46.2529 62.6458 45.7904 61.8164 44.8652C60.9915 43.9355 60.5791 42.6686 60.5791 41.0645C60.5791 39.4603 60.9915 38.1956 61.8164 37.2705C62.6458 36.3454 63.776 35.8828 65.207 35.8828C66.3737 35.8828 67.3581 36.2314 68.1602 36.9287C68.9668 37.6214 69.4089 38.5055 69.4863 39.5811H67.4766C67.3763 39.0114 67.1188 38.5557 66.7041 38.2139C66.2939 37.8721 65.7949 37.7012 65.207 37.7012C64.4323 37.7012 63.8193 38.002 63.3682 38.6035C62.917 39.2051 62.6914 40.0254 62.6914 41.0645C62.6914 42.1035 62.917 42.9261 63.3682 43.5322C63.8193 44.1338 64.4346 44.4346 65.2139 44.4346C65.8063 44.4346 66.3076 44.2728 66.7178 43.9492C67.1279 43.6257 67.3831 43.1927 67.4834 42.6504H69.4932C69.4066 43.7168 68.9668 44.585 68.1738 45.2549C67.3854 45.9202 66.3965 46.2529 65.207 46.2529ZM75.707 35.8828C77.1654 35.8828 78.3184 36.3477 79.166 37.2773C80.0182 38.207 80.4443 39.4694 80.4443 41.0645C80.4443 42.6641 80.0182 43.9287 79.166 44.8584C78.3184 45.7881 77.1654 46.2529 75.707 46.2529C74.2441 46.2529 73.0866 45.7881 72.2344 44.8584C71.3822 43.9287 70.9561 42.6641 70.9561 41.0645C70.9561 39.4694 71.3844 38.207 72.2412 37.2773C73.098 36.3477 74.2533 35.8828 75.707 35.8828ZM77.6211 38.6104C77.1471 37.9997 76.5091 37.6943 75.707 37.6943C74.9049 37.6943 74.2646 37.9997 73.7861 38.6104C73.3076 39.2165 73.0684 40.0345 73.0684 41.0645C73.0684 42.0944 73.3053 42.9147 73.7793 43.5254C74.2578 44.1361 74.9004 44.4414 75.707 44.4414C76.5091 44.4414 77.1471 44.1361 77.6211 43.5254C78.0996 42.9147 78.3389 42.0944 78.3389 41.0645C78.3389 40.0345 78.0996 39.2165 77.6211 38.6104ZM92.8447 46H90.9307V39.4033H90.8213L88.3125 45.4326H86.9385L84.4229 39.4033H84.3135V46H82.3994V36.1357H84.833L87.5605 42.7666H87.6836L90.418 36.1357H92.8447V46ZM105.683 46H103.769V39.4033H103.659L101.15 45.4326H99.7764L97.2607 39.4033H97.1514V46H95.2373V36.1357H97.6709L100.398 42.7666H100.521L103.256 36.1357H105.683V46ZM114.61 44.2363V46H108.075V36.1357H114.61V37.8994H110.14V40.2031H114.357V41.8369H110.14V44.2363H114.61ZM118.76 46H116.784V36.1357H118.507L123.046 42.2812H123.169V36.1357H125.145V46H123.436L118.883 39.8271H118.76V46ZM132.001 46H129.937V37.8994H126.977V36.1357H134.961V37.8994H132.001V46ZM139.951 43.2588H141.947C141.993 43.6598 142.202 43.9788 142.576 44.2158C142.95 44.4528 143.428 44.5713 144.012 44.5713C144.549 44.5713 144.989 44.4551 145.331 44.2227C145.673 43.9857 145.844 43.6803 145.844 43.3066C145.844 42.9922 145.712 42.737 145.447 42.541C145.183 42.3451 144.748 42.1833 144.142 42.0557L142.856 41.7822C141.07 41.4085 140.177 40.4697 140.177 38.9658C140.177 38.0361 140.521 37.291 141.209 36.7305C141.897 36.1654 142.811 35.8828 143.95 35.8828C145.035 35.8828 145.926 36.1585 146.623 36.71C147.325 37.2614 147.692 37.9769 147.724 38.8564H145.782C145.732 38.4645 145.541 38.1501 145.208 37.9131C144.875 37.6761 144.461 37.5576 143.964 37.5576C143.444 37.5576 143.027 37.6693 142.713 37.8926C142.403 38.1159 142.248 38.4144 142.248 38.7881C142.248 39.0934 142.373 39.3395 142.624 39.5264C142.879 39.7132 143.296 39.8682 143.875 39.9912L145.064 40.2441C146.053 40.4538 146.773 40.7819 147.225 41.2285C147.676 41.6751 147.901 42.2812 147.901 43.0469C147.901 44.0404 147.544 44.8242 146.828 45.3984C146.117 45.9681 145.142 46.2529 143.902 46.2529C142.727 46.2529 141.783 45.984 141.072 45.4463C140.361 44.9085 139.988 44.1794 139.951 43.2588ZM151.087 40.3125H149.706L150.349 36.1357H152.317L151.087 40.3125ZM160.89 44.2363V46H154.354V36.1357H160.89V37.8994H156.419V40.2031H160.637V41.8369H156.419V44.2363H160.89ZM162.619 43.2588H164.615C164.661 43.6598 164.87 43.9788 165.244 44.2158C165.618 44.4528 166.096 44.5713 166.68 44.5713C167.217 44.5713 167.657 44.4551 167.999 44.2227C168.341 43.9857 168.512 43.6803 168.512 43.3066C168.512 42.9922 168.38 42.737 168.115 42.541C167.851 42.3451 167.416 42.1833 166.81 42.0557L165.524 41.7822C163.738 41.4085 162.845 40.4697 162.845 38.9658C162.845 38.0361 163.189 37.291 163.877 36.7305C164.565 36.1654 165.479 35.8828 166.618 35.8828C167.703 35.8828 168.594 36.1585 169.291 36.71C169.993 37.2614 170.36 37.9769 170.392 38.8564H168.45C168.4 38.4645 168.209 38.1501 167.876 37.9131C167.543 37.6761 167.129 37.5576 166.632 37.5576C166.112 37.5576 165.695 37.6693 165.381 37.8926C165.071 38.1159 164.916 38.4144 164.916 38.7881C164.916 39.0934 165.041 39.3395 165.292 39.5264C165.547 39.7132 165.964 39.8682 166.543 39.9912L167.732 40.2441C168.721 40.4538 169.441 40.7819 169.893 41.2285C170.344 41.6751 170.569 42.2812 170.569 43.0469C170.569 44.0404 170.212 44.8242 169.496 45.3984C168.785 45.9681 167.81 46.2529 166.57 46.2529C165.395 46.2529 164.451 45.984 163.74 45.4463C163.029 44.9085 162.656 44.1794 162.619 43.2588ZM176.981 46H174.917V37.8994H171.957V36.1357H179.941V37.8994H176.981V46ZM40.5088 56.1357H44.624C45.6403 56.1357 46.4629 56.4502 47.0918 57.0791C47.7253 57.7035 48.042 58.526 48.042 59.5469C48.042 60.5586 47.7161 61.3766 47.0645 62.001C46.4128 62.6253 45.5651 62.9375 44.5215 62.9375H42.5732V66H40.5088V56.1357ZM42.5732 57.8311V61.2627H44.0703C44.6673 61.2627 45.1276 61.1169 45.4512 60.8252C45.7793 60.529 45.9434 60.1051 45.9434 59.5537C45.9434 58.9977 45.7816 58.5716 45.458 58.2754C45.1344 57.9792 44.6742 57.8311 44.0771 57.8311H42.5732ZM55.5957 66L54.8506 63.6484H51.3848L50.626 66H48.5547L51.9795 56.1357H54.4062L57.8311 66H55.5957ZM53.0664 58.1865L51.8291 62.0557H54.4131L53.1895 58.1865H53.0664ZM59.0684 63.2588H61.0645C61.11 63.6598 61.3197 63.9788 61.6934 64.2158C62.0671 64.4528 62.5456 64.5713 63.1289 64.5713C63.6667 64.5713 64.1064 64.4551 64.4482 64.2227C64.79 63.9857 64.9609 63.6803 64.9609 63.3066C64.9609 62.9922 64.8288 62.737 64.5645 62.541C64.3001 62.3451 63.8649 62.1833 63.2588 62.0557L61.9736 61.7822C60.1872 61.4085 59.2939 60.4697 59.2939 58.9658C59.2939 58.0361 59.638 57.291 60.3262 56.7305C61.0143 56.1654 61.9281 55.8828 63.0674 55.8828C64.152 55.8828 65.043 56.1585 65.7402 56.71C66.4421 57.2614 66.8089 57.9769 66.8408 58.8564H64.8994C64.8493 58.4645 64.6579 58.1501 64.3252 57.9131C63.9925 57.6761 63.5778 57.5576 63.0811 57.5576C62.5615 57.5576 62.1445 57.6693 61.8301 57.8926C61.5202 58.1159 61.3652 58.4144 61.3652 58.7881C61.3652 59.0934 61.4906 59.3395 61.7412 59.5264C61.9964 59.7132 62.4134 59.8682 62.9922 59.9912L64.1816 60.2441C65.1706 60.4538 65.8906 60.7819 66.3418 61.2285C66.793 61.6751 67.0186 62.2812 67.0186 63.0469C67.0186 64.0404 66.6608 64.8242 65.9453 65.3984C65.2344 65.9681 64.2591 66.2529 63.0195 66.2529C61.8438 66.2529 60.9004 65.984 60.1895 65.4463C59.4785 64.9085 59.1048 64.1794 59.0684 63.2588ZM68.5293 63.2588H70.5254C70.571 63.6598 70.7806 63.9788 71.1543 64.2158C71.528 64.4528 72.0065 64.5713 72.5898 64.5713C73.1276 64.5713 73.5674 64.4551 73.9092 64.2227C74.251 63.9857 74.4219 63.6803 74.4219 63.3066C74.4219 62.9922 74.2897 62.737 74.0254 62.541C73.7611 62.3451 73.3258 62.1833 72.7197 62.0557L71.4346 61.7822C69.6481 61.4085 68.7549 60.4697 68.7549 58.9658C68.7549 58.0361 69.099 57.291 69.7871 56.7305C70.4753 56.1654 71.389 55.8828 72.5283 55.8828C73.613 55.8828 74.5039 56.1585 75.2012 56.71C75.903 57.2614 76.2699 57.9769 76.3018 58.8564H74.3604C74.3102 58.4645 74.1188 58.1501 73.7861 57.9131C73.4535 57.6761 73.0387 57.5576 72.542 57.5576C72.0225 57.5576 71.6055 57.6693 71.291 57.8926C70.9811 58.1159 70.8262 58.4144 70.8262 58.7881C70.8262 59.0934 70.9515 59.3395 71.2021 59.5264C71.4574 59.7132 71.8743 59.8682 72.4531 59.9912L73.6426 60.2441C74.6315 60.4538 75.3516 60.7819 75.8027 61.2285C76.2539 61.6751 76.4795 62.2812 76.4795 63.0469C76.4795 64.0404 76.1217 64.8242 75.4062 65.3984C74.6953 65.9681 73.7201 66.2529 72.4805 66.2529C71.3047 66.2529 70.3613 65.984 69.6504 65.4463C68.9395 64.9085 68.5658 64.1794 68.5293 63.2588ZM84.9697 64.2363V66H78.4346V56.1357H84.9697V57.8994H80.499V60.2031H84.7168V61.8369H80.499V64.2363H84.9697ZM82.6387 55.1309H80.7383L82.6318 52.957H84.7852L82.6387 55.1309ZM95.8799 66H93.3848L90.0488 56.1357H92.3799L94.6221 63.6758H94.7451L96.9463 56.1357H99.168L95.8799 66ZM104.855 55.8828C106.314 55.8828 107.467 56.3477 108.314 57.2773C109.167 58.207 109.593 59.4694 109.593 61.0645C109.593 62.6641 109.167 63.9287 108.314 64.8584C107.467 65.7881 106.314 66.2529 104.855 66.2529C103.393 66.2529 102.235 65.7881 101.383 64.8584C100.531 63.9287 100.104 62.6641 100.104 61.0645C100.104 59.4694 100.533 58.207 101.39 57.2773C102.246 56.3477 103.402 55.8828 104.855 55.8828ZM106.77 58.6104C106.296 57.9997 105.658 57.6943 104.855 57.6943C104.053 57.6943 103.413 57.9997 102.935 58.6104C102.456 59.2165 102.217 60.0345 102.217 61.0645C102.217 62.0944 102.454 62.9147 102.928 63.5254C103.406 64.1361 104.049 64.4414 104.855 64.4414C105.658 64.4414 106.296 64.1361 106.77 63.5254C107.248 62.9147 107.487 62.0944 107.487 61.0645C107.487 60.0345 107.248 59.2165 106.77 58.6104ZM115.663 66H113.599V57.8994H110.639V56.1357H118.623V57.8994H115.663V66ZM122.513 57.8037V60.8389H124.324C124.844 60.8389 125.247 60.7067 125.534 60.4424C125.826 60.1735 125.972 59.8021 125.972 59.3281C125.972 58.8587 125.821 58.4873 125.521 58.2139C125.22 57.9404 124.814 57.8037 124.304 57.8037H122.513ZM122.513 62.4248V66H120.448V56.1357H124.591C125.675 56.1357 126.53 56.4183 127.154 56.9834C127.779 57.5485 128.091 58.321 128.091 59.3008C128.091 59.9388 127.931 60.5107 127.612 61.0166C127.298 61.5179 126.86 61.8802 126.3 62.1035L128.378 66H126.04L124.201 62.4248H122.513ZM136.704 64.2363V66H130.169V56.1357H136.704V57.8994H132.233V60.2031H136.451V61.8369H132.233V64.2363H136.704ZM146.944 66H144.88V57.8994H141.92V56.1357H149.904V57.8994H146.944V66ZM153.794 57.8037V60.8389H155.605C156.125 60.8389 156.528 60.7067 156.815 60.4424C157.107 60.1735 157.253 59.8021 157.253 59.3281C157.253 58.8587 157.103 58.4873 156.802 58.2139C156.501 57.9404 156.095 57.8037 155.585 57.8037H153.794ZM153.794 62.4248V66H151.729V56.1357H155.872C156.957 56.1357 157.811 56.4183 158.436 56.9834C159.06 57.5485 159.372 58.321 159.372 59.3008C159.372 59.9388 159.213 60.5107 158.894 61.0166C158.579 61.5179 158.142 61.8802 157.581 62.1035L159.659 66H157.321L155.482 62.4248H153.794ZM167.787 66L167.042 63.6484H163.576L162.817 66H160.746L164.171 56.1357H166.598L170.022 66H167.787ZM165.258 58.1865L164.021 62.0557H166.604L165.381 58.1865H165.258ZM171.027 63.1016H173.023C173.033 63.498 173.156 63.8148 173.393 64.0518C173.634 64.2887 173.953 64.4072 174.35 64.4072C174.773 64.4072 175.097 64.2819 175.32 64.0312C175.548 63.776 175.662 63.4069 175.662 62.9238V56.1357H177.727V62.9375C177.727 63.9948 177.43 64.8128 176.838 65.3916C176.25 65.9658 175.43 66.2529 174.377 66.2529C173.361 66.2529 172.547 65.9681 171.937 65.3984C171.33 64.8288 171.027 64.0632 171.027 63.1016ZM186.661 64.2363V66H180.126V56.1357H186.661V57.8994H182.19V60.2031H186.408V61.8369H182.19V64.2363H186.661ZM193.292 66H191.228V57.8994H188.268V56.1357H196.252V57.8994H193.292V66ZM197.414 58.9248C197.432 58.0544 197.733 57.3571 198.316 56.833C198.9 56.3089 199.706 56.0469 200.736 56.0469C201.712 56.0469 202.495 56.293 203.088 56.7852C203.685 57.2773 203.983 57.9199 203.983 58.7129C203.983 59.2188 203.863 59.6585 203.621 60.0322C203.38 60.4059 203.013 60.7363 202.521 61.0234C202.065 61.2878 201.757 61.5247 201.598 61.7344C201.438 61.944 201.358 62.2129 201.358 62.541V62.9033H199.547L199.533 62.5273C199.488 61.9896 199.561 61.5498 199.752 61.208C199.948 60.8617 200.285 60.5472 200.764 60.2646C201.21 60.0003 201.513 59.7656 201.673 59.5605C201.832 59.3509 201.912 59.0889 201.912 58.7744C201.912 58.4554 201.791 58.1956 201.55 57.9951C201.313 57.79 201.001 57.6875 200.613 57.6875C200.221 57.6875 199.905 57.7992 199.663 58.0225C199.422 58.2458 199.289 58.5465 199.267 58.9248H197.414ZM201.427 65.8975C201.208 66.1025 200.907 66.2051 200.524 66.2051C200.142 66.2051 199.839 66.1025 199.615 65.8975C199.392 65.6878 199.28 65.403 199.28 65.043C199.28 64.6829 199.392 64.3981 199.615 64.1885C199.839 63.9788 200.142 63.874 200.524 63.874C200.907 63.874 201.208 63.9788 201.427 64.1885C201.65 64.3981 201.762 64.6829 201.762 65.043C201.762 65.403 201.65 65.6878 201.427 65.8975Z" fill="#040415"/>
<defs>
<filter id="filter0_d_1_562" x="0" y="0" width="244" height="155" filterUnits="userSpaceOnUse" color-interpolation-filters="sRGB">
<feFlood flood-opacity="0" result="BackgroundImageFix"/>
<feColorMatrix in="SourceAlpha" type="matrix" values="0 0 0 0 0 0 0 0 0 0 0 0 0 0 0 0 0 0 127 0" result="hardAlpha"/>
<feMorphology radius="7" operator="erode" in="SourceAlpha" result="effect1_dropShadow_1_562"/>
<feOffset/>
<feGaussianBlur stdDeviation="11"/>
<feColorMatrix type="matrix" values="0 0 0 0 0.3 0 0 0 0 0.3 0 0 0 0 0.3 0 0 0 0.6 0"/>
<feBlend mode="normal" in2="BackgroundImageFix" result="effect1_dropShadow_1_562"/>
<feBlend mode="normal" in="SourceGraphic" in2="effect1_dropShadow_1_562" result="shape"/>
</filter>
</defs>
</svg>
