<svg width="276" height="276" viewBox="0 0 276 276" fill="none" xmlns="http://www.w3.org/2000/svg">
<g filter="url(#filter0_d_1_576)">
<rect x="15" y="15" width="246" height="246" rx="12" fill="white"/>
</g>
<path d="M34.4316 44V35.7832H34.3154L31.8408 37.5332V35.9678L34.4385 34.1357H35.9629V44H34.4316ZM43.373 44V42.0928H38.5605V40.6709C39.3262 39.2718 40.6956 37.0934 42.6689 34.1357H44.8496V40.7256H46.21V42.0928H44.8496V44H43.373ZM40.0303 40.6641V40.7598H43.3936V35.4824H43.3047C42.1471 37.1595 41.0557 38.8867 40.0303 40.6641ZM55.0488 44.1436C53.9551 44.1436 53.096 43.7995 52.4717 43.1113C51.8473 42.4232 51.5352 41.4775 51.5352 40.2744C51.5352 39.0758 51.8473 38.1325 52.4717 37.4443C53.1006 36.7562 53.9596 36.4121 55.0488 36.4121C56.1335 36.4121 56.988 36.7562 57.6123 37.4443C58.2412 38.1325 58.5557 39.0758 58.5557 40.2744C58.5557 41.4775 58.2435 42.4232 57.6191 43.1113C56.9948 43.7995 56.138 44.1436 55.0488 44.1436ZM55.0488 42.8379C55.6823 42.8379 56.1722 42.6146 56.5186 42.168C56.8695 41.7168 57.0449 41.0856 57.0449 40.2744C57.0449 39.4678 56.8695 38.8411 56.5186 38.3945C56.1722 37.9434 55.6823 37.7178 55.0488 37.7178C54.4108 37.7178 53.9186 37.9411 53.5723 38.3877C53.2259 38.8343 53.0527 39.4632 53.0527 40.2744C53.0527 41.0902 53.2259 41.7214 53.5723 42.168C53.9186 42.6146 54.4108 42.8379 55.0488 42.8379ZM66.6289 38.9893H65.2002C65.109 38.611 64.9108 38.3057 64.6055 38.0732C64.3047 37.8408 63.9173 37.7246 63.4434 37.7246C62.8281 37.7246 62.3428 37.9479 61.9873 38.3945C61.6364 38.8411 61.4609 39.4609 61.4609 40.2539C61.4609 41.056 61.6364 41.6872 61.9873 42.1475C62.3428 42.6032 62.8281 42.8311 63.4434 42.8311C63.9128 42.8311 64.2979 42.7262 64.5986 42.5166C64.904 42.307 65.1045 42.0039 65.2002 41.6074H66.6289C66.5332 42.373 66.2051 42.9883 65.6445 43.4531C65.084 43.9134 64.3525 44.1436 63.4502 44.1436C62.3656 44.1436 61.5111 43.7995 60.8867 43.1113C60.2669 42.4186 59.957 41.4661 59.957 40.2539C59.957 39.0599 60.2669 38.1211 60.8867 37.4375C61.5065 36.7539 62.3587 36.4121 63.4434 36.4121C64.3503 36.4121 65.0817 36.6491 65.6377 37.123C66.1982 37.597 66.5286 38.2191 66.6289 38.9893ZM68.9395 34.7031H70.4092V36.5898H72.0225V37.8271H70.4092V41.6553C70.4092 42.0426 70.4935 42.3275 70.6621 42.5098C70.8307 42.6875 71.0973 42.7764 71.4619 42.7764C71.6077 42.7764 71.7946 42.765 72.0225 42.7422V43.9658C71.7308 44.016 71.4642 44.041 71.2227 44.041C70.4069 44.041 69.8213 43.8861 69.4658 43.5762C69.1149 43.2663 68.9395 42.7513 68.9395 42.0312V37.8271H67.7568V36.5898H68.9395V34.7031ZM76.8145 44.1436C75.7207 44.1436 74.8617 43.7995 74.2373 43.1113C73.613 42.4232 73.3008 41.4775 73.3008 40.2744C73.3008 39.0758 73.613 38.1325 74.2373 37.4443C74.8662 36.7562 75.7253 36.4121 76.8145 36.4121C77.8991 36.4121 78.7536 36.7562 79.3779 37.4443C80.0068 38.1325 80.3213 39.0758 80.3213 40.2744C80.3213 41.4775 80.0091 42.4232 79.3848 43.1113C78.7604 43.7995 77.9036 44.1436 76.8145 44.1436ZM76.8145 42.8379C77.4479 42.8379 77.9378 42.6146 78.2842 42.168C78.6351 41.7168 78.8105 41.0856 78.8105 40.2744C78.8105 39.4678 78.6351 38.8411 78.2842 38.3945C77.9378 37.9434 77.4479 37.7178 76.8145 37.7178C76.1764 37.7178 75.6842 37.9411 75.3379 38.3877C74.9915 38.8343 74.8184 39.4632 74.8184 40.2744C74.8184 41.0902 74.9915 41.7214 75.3379 42.168C75.6842 42.6146 76.1764 42.8379 76.8145 42.8379ZM86.0361 44.123C85.5166 44.123 85.0495 44.0091 84.6348 43.7812C84.2246 43.5534 83.9079 43.2344 83.6846 42.8242H83.5752V44H82.1602V33.6504H83.6299V37.7383H83.7461C83.9421 37.3327 84.2451 37.0137 84.6553 36.7812C85.0654 36.5488 85.5257 36.4326 86.0361 36.4326C86.9795 36.4326 87.7269 36.779 88.2783 37.4717C88.8343 38.1598 89.1123 39.0941 89.1123 40.2744C89.1123 41.4548 88.8343 42.3913 88.2783 43.084C87.7223 43.7767 86.9749 44.123 86.0361 44.123ZM85.6123 37.752C84.9971 37.752 84.5094 37.9798 84.1494 38.4355C83.7894 38.8867 83.6071 39.502 83.6025 40.2812C83.6071 41.0605 83.7871 41.6758 84.1426 42.127C84.5026 42.5781 84.9925 42.8037 85.6123 42.8037C86.2321 42.8037 86.7174 42.5804 87.0684 42.1338C87.4238 41.6826 87.6016 41.0628 87.6016 40.2744C87.6016 39.4906 87.4238 38.8753 87.0684 38.4287C86.7174 37.9775 86.2321 37.752 85.6123 37.752ZM90.8828 44V36.5557H92.2979V37.6973H92.4072C92.512 37.3281 92.7513 37.0251 93.125 36.7881C93.5033 36.5511 93.9339 36.4326 94.417 36.4326C94.695 36.4326 94.9137 36.4531 95.0732 36.4941V37.9434C94.8955 37.8841 94.6221 37.8545 94.2529 37.8545C93.6924 37.8545 93.2344 38.0163 92.8789 38.3398C92.528 38.6634 92.3525 39.085 92.3525 39.6045V44H90.8828ZM100.658 38.1895C100.33 37.8385 99.8949 37.6631 99.3525 37.6631C98.8102 37.6631 98.3636 37.8385 98.0127 38.1895C97.6618 38.5404 97.4658 39.0075 97.4248 39.5908H101.185C101.166 39.0029 100.991 38.5358 100.658 38.1895ZM101.178 41.9902H102.593C102.424 42.6602 102.055 43.1865 101.485 43.5693C100.92 43.9521 100.214 44.1436 99.3662 44.1436C98.2998 44.1436 97.459 43.8018 96.8438 43.1182C96.2331 42.43 95.9277 41.4912 95.9277 40.3018C95.9277 39.1123 96.2376 38.1667 96.8574 37.4648C97.4772 36.763 98.3112 36.4121 99.3594 36.4121C100.394 36.4121 101.205 36.7448 101.793 37.4102C102.385 38.0755 102.682 38.9938 102.682 40.165V40.6777H97.4248V40.7598C97.4476 41.416 97.6367 41.9355 97.9922 42.3184C98.3477 42.7012 98.8193 42.8926 99.4072 42.8926C100.305 42.8926 100.895 42.5918 101.178 41.9902ZM110.707 42.8857C111.258 42.8857 111.716 42.7308 112.081 42.4209C112.45 42.111 112.635 41.7236 112.635 41.2588V40.6367L110.816 40.7529C110.306 40.7848 109.93 40.8896 109.688 41.0674C109.447 41.2451 109.326 41.498 109.326 41.8262C109.326 42.1543 109.454 42.4141 109.709 42.6055C109.964 42.7923 110.297 42.8857 110.707 42.8857ZM110.331 44.123C109.602 44.123 109.005 43.9202 108.54 43.5146C108.08 43.1045 107.85 42.5645 107.85 41.8945C107.85 41.2292 108.089 40.7074 108.567 40.3291C109.046 39.9463 109.729 39.7275 110.618 39.6729L112.635 39.5566V38.9141C112.635 38.5176 112.505 38.2145 112.245 38.0049C111.985 37.7907 111.607 37.6836 111.11 37.6836C110.7 37.6836 110.358 37.7565 110.085 37.9023C109.816 38.0436 109.641 38.2464 109.559 38.5107H108.137C108.21 37.8727 108.522 37.3646 109.073 36.9863C109.629 36.6035 110.331 36.4121 111.179 36.4121C112.108 36.4121 112.826 36.6331 113.332 37.0752C113.842 37.5127 114.098 38.1257 114.098 38.9141V44H112.683V42.9541H112.566C112.343 43.3278 112.035 43.6172 111.644 43.8223C111.256 44.0228 110.819 44.123 110.331 44.123ZM112.102 35.3115H110.591L108.663 32.96H110.386L112.102 35.3115ZM122.383 44V35.7832H122.267L119.792 37.5332V35.9678L122.39 34.1357H123.914V44H122.383ZM126.703 36.9863C126.703 36.0794 127.013 35.3389 127.633 34.7646C128.253 34.1859 129.048 33.8965 130.019 33.8965C130.957 33.8965 131.734 34.1631 132.35 34.6963C132.965 35.2295 133.272 35.9017 133.272 36.7129C133.272 37.237 133.118 37.7565 132.808 38.2715C132.502 38.7819 131.937 39.4541 131.112 40.2881L128.918 42.5098V42.626H133.43V44H126.785V42.8926L130.121 39.4199C130.777 38.7363 131.215 38.2214 131.434 37.875C131.652 37.5241 131.762 37.1663 131.762 36.8018C131.762 36.3506 131.591 35.9746 131.249 35.6738C130.907 35.373 130.481 35.2227 129.971 35.2227C129.428 35.2227 128.989 35.3844 128.651 35.708C128.319 36.0316 128.152 36.4577 128.152 36.9863V37.0068H126.703V36.9863ZM135.508 44V33.6504H136.964V37.752H137.08C137.262 37.3281 137.547 37 137.935 36.7676C138.326 36.5352 138.798 36.4189 139.35 36.4189C140.147 36.4189 140.774 36.6628 141.229 37.1504C141.685 37.6335 141.913 38.3148 141.913 39.1943V44H140.443V39.5566C140.443 38.9642 140.309 38.5176 140.04 38.2168C139.771 37.916 139.375 37.7656 138.851 37.7656C138.258 37.7656 137.798 37.9365 137.47 38.2783C137.142 38.6201 136.978 39.0781 136.978 39.6523V44H135.508ZM146.138 39.5703V38.3057H147.334C147.863 38.3057 148.293 38.1598 148.626 37.8682C148.959 37.5765 149.125 37.1982 149.125 36.7334C149.125 36.2731 148.963 35.9062 148.64 35.6328C148.316 35.3548 147.885 35.2158 147.348 35.2158C146.81 35.2158 146.375 35.3548 146.042 35.6328C145.714 35.9108 145.529 36.2936 145.488 36.7812H144.032C144.082 35.888 144.408 35.1839 145.01 34.6689C145.611 34.154 146.407 33.8965 147.396 33.8965C148.312 33.8965 149.079 34.1471 149.699 34.6484C150.324 35.1452 150.636 35.765 150.636 36.5078C150.636 37.0866 150.476 37.5811 150.157 37.9912C149.843 38.4014 149.414 38.668 148.872 38.791V38.9072C149.542 38.9847 150.071 39.2399 150.458 39.6729C150.845 40.1012 151.039 40.6458 151.039 41.3066C151.039 41.8581 150.882 42.3571 150.567 42.8037C150.253 43.2503 149.818 43.6012 149.262 43.8564C148.71 44.1117 148.097 44.2393 147.423 44.2393C146.388 44.2393 145.543 43.9727 144.887 43.4395C144.235 42.9062 143.886 42.1999 143.841 41.3203H145.311C145.361 41.7988 145.575 42.1794 145.953 42.4619C146.336 42.7445 146.826 42.8857 147.423 42.8857C148.024 42.8857 148.517 42.7308 148.899 42.4209C149.282 42.111 149.474 41.7122 149.474 41.2246C149.474 40.7142 149.287 40.3109 148.913 40.0146C148.539 39.7184 148.029 39.5703 147.382 39.5703H146.138ZM156.439 44.2393C155.286 44.2393 154.389 43.7858 153.746 42.8789C153.108 41.972 152.789 40.6982 152.789 39.0576C152.789 37.4307 153.11 36.1637 153.753 35.2568C154.396 34.3499 155.291 33.8965 156.439 33.8965C157.579 33.8965 158.47 34.3522 159.112 35.2637C159.755 36.1706 160.076 37.4398 160.076 39.0713C160.076 40.7074 159.757 41.9788 159.119 42.8857C158.481 43.7881 157.588 44.2393 156.439 44.2393ZM154.881 41.9082C155.245 42.569 155.765 42.8994 156.439 42.8994C157.114 42.8994 157.631 42.5713 157.991 41.915C158.351 41.2542 158.531 40.3018 158.531 39.0576C158.531 37.8271 158.349 36.8838 157.984 36.2275C157.62 35.5667 157.105 35.2363 156.439 35.2363C155.774 35.2363 155.257 35.5667 154.888 36.2275C154.519 36.8883 154.334 37.8317 154.334 39.0576C154.334 40.2972 154.516 41.2474 154.881 41.9082Z" fill="black"/>
<rect x="31" y="59" width="82" height="24" rx="12" fill="#F5F5F5"/>
<g clip-path="url(#clip0_1_576)">
<path d="M47.9998 76.8332C51.2215 76.8332 53.8332 74.2215 53.8332 70.9998C53.8332 67.7782 51.2215 65.1665 47.9998 65.1665C44.7782 65.1665 42.1665 67.7782 42.1665 70.9998C42.1665 74.2215 44.7782 76.8332 47.9998 76.8332Z" stroke="#040415" stroke-width="1.16667"/>
<path d="M48 68.083V71.583M48 73.6247V73.9163" stroke="#040415" stroke-width="1.16667" stroke-linecap="round"/>
</g>
<path d="M65.5332 75L64.7598 72.7559H61.5371L60.7578 75H59.4102L62.4629 66.5449H63.875L66.9277 75H65.5332ZM63.1016 68.0801L61.8711 71.6543H64.4258L63.2012 68.0801H63.1016ZM62.5098 65.7305L60.5996 63.9375H62.1113L63.8574 65.7305H62.5098ZM74.8496 68.5137C75.6621 68.5137 76.3066 68.8105 76.7832 69.4043C77.2598 69.9941 77.498 70.7949 77.498 71.8066C77.498 72.8184 77.2598 73.6211 76.7832 74.2148C76.3105 74.8086 75.6699 75.1055 74.8613 75.1055C74.4082 75.1055 74.0098 75.0117 73.666 74.8242C73.3223 74.6328 73.0664 74.3691 72.8984 74.0332H72.7988V77.1211H71.5391V68.6191H72.752V69.6738H72.8457C73.0371 69.3105 73.3105 69.0273 73.666 68.8242C74.0215 68.6172 74.416 68.5137 74.8496 68.5137ZM74.4922 73.9746C75.0273 73.9746 75.4453 73.7832 75.7461 73.4004C76.0508 73.0137 76.2031 72.4824 76.2031 71.8066C76.2031 71.1309 76.0508 70.6016 75.7461 70.2188C75.4453 69.8359 75.0293 69.6445 74.498 69.6445C73.9668 69.6445 73.5469 69.8398 73.2383 70.2305C72.9297 70.6172 72.7754 71.1445 72.7754 71.8125C72.7754 72.4766 72.9297 73.0039 73.2383 73.3945C73.5469 73.7812 73.9648 73.9746 74.4922 73.9746ZM81.1016 74.0449C81.5742 74.0449 81.9668 73.9121 82.2793 73.6465C82.5957 73.3809 82.7539 73.0488 82.7539 72.6504V72.1172L81.1953 72.2168C80.7578 72.2441 80.4355 72.334 80.2285 72.4863C80.0215 72.6387 79.918 72.8555 79.918 73.1367C79.918 73.418 80.0273 73.6406 80.2461 73.8047C80.4648 73.9648 80.75 74.0449 81.1016 74.0449ZM80.7793 75.1055C80.1543 75.1055 79.6426 74.9316 79.2441 74.584C78.8496 74.2324 78.6523 73.7695 78.6523 73.1953C78.6523 72.625 78.8574 72.1777 79.2676 71.8535C79.6777 71.5254 80.2637 71.3379 81.0254 71.291L82.7539 71.1914V70.6406C82.7539 70.3008 82.6426 70.041 82.4199 69.8613C82.1973 69.6777 81.873 69.5859 81.4473 69.5859C81.0957 69.5859 80.8027 69.6484 80.5684 69.7734C80.3379 69.8945 80.1875 70.0684 80.1172 70.2949H78.8984C78.9609 69.748 79.2285 69.3125 79.7012 68.9883C80.1777 68.6602 80.7793 68.4961 81.5059 68.4961C82.3027 68.4961 82.918 68.6855 83.3516 69.0645C83.7891 69.4395 84.0078 69.9648 84.0078 70.6406V75H82.7949V74.1035H82.6953C82.5039 74.4238 82.2402 74.6719 81.9043 74.8477C81.5723 75.0195 81.1973 75.1055 80.7793 75.1055ZM86.2227 77.3145C86.0039 77.3145 85.8301 77.3047 85.7012 77.2852V76.2012C85.791 76.2168 85.9277 76.2246 86.1113 76.2246C86.4121 76.2246 86.6523 76.1562 86.832 76.0195C87.0117 75.8828 87.1562 75.6543 87.2656 75.334L87.3594 75.0234L85.0508 68.6191H86.4219L88.0215 73.6875H88.1211L89.7148 68.6191H91.0508L88.6719 75.2637C88.3984 76.0371 88.084 76.5723 87.7285 76.8691C87.377 77.166 86.875 77.3145 86.2227 77.3145ZM95.832 70.0195C95.5508 69.7188 95.1777 69.5684 94.7129 69.5684C94.248 69.5684 93.8652 69.7188 93.5645 70.0195C93.2637 70.3203 93.0957 70.7207 93.0605 71.2207H96.2832C96.2676 70.7168 96.1172 70.3164 95.832 70.0195ZM96.2773 73.2773H97.4902C97.3457 73.8516 97.0293 74.3027 96.541 74.6309C96.0566 74.959 95.4512 75.123 94.7246 75.123C93.8105 75.123 93.0898 74.8301 92.5625 74.2441C92.0391 73.6543 91.7773 72.8496 91.7773 71.8301C91.7773 70.8105 92.043 70 92.5742 69.3984C93.1055 68.7969 93.8203 68.4961 94.7188 68.4961C95.6055 68.4961 96.3008 68.7812 96.8047 69.3516C97.3125 69.9219 97.5664 70.709 97.5664 71.7129V72.1523H93.0605V72.2227C93.0801 72.7852 93.2422 73.2305 93.5469 73.5586C93.8516 73.8867 94.2559 74.0508 94.7598 74.0508C95.5293 74.0508 96.0352 73.793 96.2773 73.2773ZM99.0781 75V68.6191H100.291V69.5977H100.385C100.475 69.2812 100.68 69.0215 101 68.8184C101.324 68.6152 101.693 68.5137 102.107 68.5137C102.346 68.5137 102.533 68.5312 102.67 68.5664V69.8086C102.518 69.7578 102.283 69.7324 101.967 69.7324C101.486 69.7324 101.094 69.8711 100.789 70.1484C100.488 70.4258 100.338 70.7871 100.338 71.2324V75H99.0781Z" fill="#040415"/>
<line x1="40.5" y1="114" x2="40.5" y2="180" stroke="#CCCCCC" stroke-dasharray="4 4"/>
<path d="M64.1172 135.454V134.401H65.3135C65.874 134.401 66.332 134.237 66.6875 133.909C67.0475 133.581 67.2275 133.162 67.2275 132.651C67.2275 132.15 67.0544 131.747 66.708 131.441C66.3617 131.132 65.9036 130.977 65.334 130.977C64.7643 130.977 64.304 131.127 63.9531 131.428C63.6022 131.724 63.4017 132.136 63.3516 132.665H62.1553C62.2191 131.808 62.5381 131.134 63.1123 130.642C63.6865 130.149 64.443 129.903 65.3818 129.903C65.9469 129.903 66.4665 130.02 66.9404 130.252C67.4189 130.48 67.7949 130.792 68.0684 131.188C68.3418 131.585 68.4785 132.018 68.4785 132.487C68.4785 133.075 68.3258 133.572 68.0205 133.978C67.7152 134.383 67.2913 134.652 66.749 134.784V134.894C67.4189 134.98 67.9453 135.242 68.3281 135.68C68.7109 136.113 68.9023 136.666 68.9023 137.341C68.9023 138.152 68.5674 138.838 67.8975 139.398C67.2275 139.954 66.4049 140.232 65.4297 140.232C64.4271 140.232 63.609 139.977 62.9756 139.467C62.3421 138.952 62.0026 138.273 61.957 137.43H63.1465C63.2012 137.954 63.4336 138.373 63.8438 138.688C64.2539 139.002 64.778 139.159 65.416 139.159C66.0632 139.159 66.5941 138.986 67.0088 138.64C67.4281 138.293 67.6377 137.849 67.6377 137.307C67.6377 136.737 67.4349 136.286 67.0293 135.953C66.6237 135.62 66.07 135.454 65.3682 135.454H64.1172ZM78.835 140H74.9863V130.136H78.7598C79.6621 130.136 80.373 130.357 80.8926 130.799C81.4167 131.241 81.6787 131.84 81.6787 132.597C81.6787 133.107 81.5124 133.567 81.1797 133.978C80.8516 134.388 80.4505 134.636 79.9766 134.723V134.832C80.651 134.919 81.1865 135.178 81.583 135.611C81.9795 136.04 82.1777 136.58 82.1777 137.231C82.1777 138.102 81.8815 138.781 81.2891 139.269C80.7012 139.756 79.8831 140 78.835 140ZM76.2168 131.223V134.388H78.1855C79.6849 134.388 80.4346 133.861 80.4346 132.809C80.4346 132.307 80.2637 131.918 79.9219 131.64C79.5846 131.362 79.1107 131.223 78.5 131.223H76.2168ZM76.2168 138.913H78.6504C79.3932 138.913 79.9561 138.765 80.3389 138.469C80.7217 138.173 80.9131 137.74 80.9131 137.17C80.9131 136.021 80.1201 135.447 78.5342 135.447H76.2168V138.913ZM89.5469 139.111C88.9408 139.79 88.1136 140.13 87.0654 140.13C86.0173 140.13 85.1878 139.79 84.5771 139.111C83.971 138.428 83.668 137.496 83.668 136.315C83.668 135.131 83.971 134.199 84.5771 133.52C85.1833 132.84 86.0127 132.501 87.0654 132.501C88.1182 132.501 88.9476 132.84 89.5537 133.52C90.1598 134.199 90.4629 135.131 90.4629 136.315C90.4629 137.496 90.1576 138.428 89.5469 139.111ZM85.4521 138.353C85.8304 138.831 86.3682 139.07 87.0654 139.07C87.7627 139.07 88.3005 138.831 88.6787 138.353C89.057 137.869 89.2461 137.19 89.2461 136.315C89.2461 135.44 89.057 134.764 88.6787 134.285C88.3005 133.802 87.7627 133.561 87.0654 133.561C86.3682 133.561 85.8304 133.802 85.4521 134.285C85.0739 134.764 84.8848 135.44 84.8848 136.315C84.8848 137.19 85.0739 137.869 85.4521 138.353ZM98.2695 132.631V140H97.1484V138.845H97.0391C96.8522 139.259 96.5651 139.578 96.1777 139.802C95.7904 140.021 95.3164 140.13 94.7559 140.13C93.9355 140.13 93.3112 139.895 92.8828 139.426C92.4544 138.956 92.2402 138.282 92.2402 137.402V132.631H93.416V137.115C93.416 137.785 93.5482 138.277 93.8125 138.592C94.0768 138.902 94.5007 139.057 95.084 139.057C95.7266 139.057 96.221 138.877 96.5674 138.517C96.9183 138.152 97.0938 137.644 97.0938 136.992V132.631H98.2695ZM100.553 140V129.705H101.729V140H100.553ZM106.951 133.54C106.363 133.54 105.88 133.738 105.502 134.135C105.124 134.531 104.912 135.055 104.866 135.707H108.927C108.913 135.055 108.726 134.531 108.366 134.135C108.006 133.738 107.535 133.54 106.951 133.54ZM108.893 138.093H110.068C109.891 138.731 109.528 139.23 108.981 139.59C108.439 139.95 107.767 140.13 106.965 140.13C105.944 140.13 105.135 139.788 104.538 139.104C103.941 138.416 103.643 137.489 103.643 136.322C103.643 135.16 103.943 134.233 104.545 133.54C105.146 132.847 105.953 132.501 106.965 132.501C107.958 132.501 108.74 132.831 109.31 133.492C109.879 134.153 110.164 135.058 110.164 136.206V136.657H104.866V136.712C104.898 137.441 105.103 138.02 105.481 138.448C105.864 138.877 106.368 139.091 106.992 139.091C107.945 139.091 108.578 138.758 108.893 138.093ZM117.889 132.631L115.161 140H113.958L111.23 132.631H112.488L114.505 138.701H114.614L116.631 132.631H117.889ZM121.457 139.098C122.063 139.098 122.564 138.922 122.961 138.571C123.362 138.22 123.562 137.781 123.562 137.252V136.575L121.58 136.705C121.024 136.742 120.616 136.858 120.356 137.054C120.097 137.25 119.967 137.535 119.967 137.908C119.967 138.277 120.106 138.569 120.384 138.783C120.662 138.993 121.02 139.098 121.457 139.098ZM121.238 140.13C120.514 140.13 119.917 139.932 119.447 139.535C118.982 139.134 118.75 138.601 118.75 137.936C118.75 137.279 118.982 136.764 119.447 136.391C119.912 136.017 120.575 135.805 121.437 135.755L123.562 135.625V134.955C123.562 134.499 123.421 134.151 123.139 133.909C122.856 133.668 122.441 133.547 121.895 133.547C121.452 133.547 121.086 133.627 120.794 133.786C120.502 133.946 120.315 134.171 120.233 134.463H119.044C119.121 133.875 119.424 133.401 119.953 133.041C120.486 132.681 121.147 132.501 121.936 132.501C122.829 132.501 123.519 132.717 124.007 133.15C124.494 133.583 124.738 134.185 124.738 134.955V140H123.617V138.913H123.508C123.271 139.305 122.956 139.606 122.564 139.815C122.173 140.025 121.73 140.13 121.238 140.13ZM126.912 140V132.631H128.033V133.725H128.143C128.252 133.365 128.498 133.071 128.881 132.843C129.264 132.615 129.699 132.501 130.187 132.501C130.41 132.501 130.606 132.512 130.774 132.535V133.711C130.615 133.665 130.364 133.643 130.022 133.643C129.462 133.643 128.999 133.811 128.635 134.148C128.27 134.486 128.088 134.914 128.088 135.434V140H126.912ZM134.767 140.13C133.823 140.13 133.071 139.784 132.511 139.091C131.95 138.398 131.67 137.473 131.67 136.315C131.67 135.162 131.95 134.24 132.511 133.547C133.076 132.85 133.828 132.501 134.767 132.501C135.282 132.501 135.742 132.617 136.147 132.85C136.558 133.077 136.868 133.392 137.077 133.793H137.18V129.705H138.355V140H137.234V138.824H137.125C136.893 139.234 136.569 139.556 136.154 139.788C135.74 140.016 135.277 140.13 134.767 140.13ZM135.04 133.561C134.37 133.561 133.844 133.807 133.461 134.299C133.078 134.786 132.887 135.459 132.887 136.315C132.887 137.177 133.076 137.851 133.454 138.339C133.837 138.826 134.366 139.07 135.04 139.07C135.71 139.07 136.239 138.824 136.626 138.332C137.013 137.84 137.207 137.168 137.207 136.315C137.207 135.472 137.011 134.802 136.619 134.306C136.232 133.809 135.705 133.561 135.04 133.561ZM147.317 140.13C146.374 140.13 145.622 139.784 145.062 139.091C144.501 138.398 144.221 137.473 144.221 136.315C144.221 135.162 144.501 134.24 145.062 133.547C145.627 132.85 146.379 132.501 147.317 132.501C147.832 132.501 148.293 132.617 148.698 132.85C149.108 133.077 149.418 133.392 149.628 133.793H149.73V129.705H150.906V140H149.785V138.824H149.676C149.443 139.234 149.12 139.556 148.705 139.788C148.29 140.016 147.828 140.13 147.317 140.13ZM147.591 133.561C146.921 133.561 146.395 133.807 146.012 134.299C145.629 134.786 145.438 135.459 145.438 136.315C145.438 137.177 145.627 137.851 146.005 138.339C146.388 138.826 146.916 139.07 147.591 139.07C148.261 139.07 148.789 138.824 149.177 138.332C149.564 137.84 149.758 137.168 149.758 136.315C149.758 135.472 149.562 134.802 149.17 134.306C148.783 133.809 148.256 133.561 147.591 133.561ZM156.129 133.54C155.541 133.54 155.058 133.738 154.68 134.135C154.301 134.531 154.09 135.055 154.044 135.707H158.104C158.091 135.055 157.904 134.531 157.544 134.135C157.184 133.738 156.712 133.54 156.129 133.54ZM158.07 138.093H159.246C159.068 138.731 158.706 139.23 158.159 139.59C157.617 139.95 156.945 140.13 156.143 140.13C155.122 140.13 154.313 139.788 153.716 139.104C153.119 138.416 152.82 137.489 152.82 136.322C152.82 135.16 153.121 134.233 153.723 133.54C154.324 132.847 155.131 132.501 156.143 132.501C157.136 132.501 157.918 132.831 158.487 133.492C159.057 134.153 159.342 135.058 159.342 136.206V136.657H154.044V136.712C154.076 137.441 154.281 138.02 154.659 138.448C155.042 138.877 155.546 139.091 156.17 139.091C157.122 139.091 157.756 138.758 158.07 138.093ZM161.017 134.647C161.017 134.037 161.279 133.526 161.803 133.116C162.327 132.706 162.981 132.501 163.765 132.501C164.535 132.501 165.171 132.679 165.672 133.034C166.173 133.39 166.463 133.87 166.54 134.477H165.378C165.296 134.176 165.114 133.939 164.831 133.766C164.553 133.588 164.195 133.499 163.758 133.499C163.316 133.499 162.944 133.602 162.644 133.807C162.347 134.012 162.199 134.276 162.199 134.6C162.199 134.85 162.302 135.06 162.507 135.229C162.716 135.393 163.04 135.527 163.478 135.632L164.612 135.905C165.314 136.074 165.831 136.318 166.164 136.637C166.501 136.956 166.67 137.377 166.67 137.901C166.67 138.553 166.39 139.089 165.829 139.508C165.269 139.923 164.564 140.13 163.717 140.13C162.896 140.13 162.224 139.948 161.7 139.583C161.176 139.218 160.882 138.731 160.818 138.12H162.028C162.129 138.439 162.327 138.69 162.623 138.872C162.919 139.05 163.298 139.139 163.758 139.139C164.255 139.139 164.662 139.032 164.981 138.817C165.3 138.603 165.46 138.327 165.46 137.99C165.46 137.489 165.07 137.143 164.291 136.951L163.026 136.644C162.329 136.475 161.819 136.233 161.495 135.919C161.176 135.6 161.017 135.176 161.017 134.647ZM176.589 140.232C175.249 140.232 174.187 139.77 173.403 138.845C172.624 137.92 172.234 136.662 172.234 135.071C172.234 133.481 172.624 132.223 173.403 131.298C174.183 130.368 175.242 129.903 176.582 129.903C177.621 129.903 178.51 130.2 179.248 130.792C179.986 131.384 180.428 132.157 180.574 133.109H179.323C179.159 132.471 178.831 131.968 178.339 131.599C177.847 131.225 177.261 131.038 176.582 131.038C175.634 131.038 174.882 131.4 174.326 132.125C173.775 132.85 173.499 133.832 173.499 135.071C173.499 136.311 173.777 137.293 174.333 138.018C174.889 138.738 175.641 139.098 176.589 139.098C177.277 139.098 177.865 138.934 178.353 138.605C178.845 138.273 179.168 137.822 179.323 137.252H180.574C180.41 138.159 179.966 138.883 179.241 139.426C178.521 139.964 177.637 140.232 176.589 140.232ZM184.758 139.098C185.364 139.098 185.865 138.922 186.262 138.571C186.663 138.22 186.863 137.781 186.863 137.252V136.575L184.881 136.705C184.325 136.742 183.917 136.858 183.657 137.054C183.397 137.25 183.268 137.535 183.268 137.908C183.268 138.277 183.407 138.569 183.685 138.783C183.963 138.993 184.32 139.098 184.758 139.098ZM184.539 140.13C183.814 140.13 183.217 139.932 182.748 139.535C182.283 139.134 182.051 138.601 182.051 137.936C182.051 137.279 182.283 136.764 182.748 136.391C183.213 136.017 183.876 135.805 184.737 135.755L186.863 135.625V134.955C186.863 134.499 186.722 134.151 186.439 133.909C186.157 133.668 185.742 133.547 185.195 133.547C184.753 133.547 184.386 133.627 184.095 133.786C183.803 133.946 183.616 134.171 183.534 134.463H182.345C182.422 133.875 182.725 133.401 183.254 133.041C183.787 132.681 184.448 132.501 185.236 132.501C186.13 132.501 186.82 132.717 187.308 133.15C187.795 133.583 188.039 134.185 188.039 134.955V140H186.918V138.913H186.809C186.572 139.305 186.257 139.606 185.865 139.815C185.473 140.025 185.031 140.13 184.539 140.13ZM193.802 132.501C194.741 132.501 195.49 132.847 196.051 133.54C196.616 134.233 196.898 135.158 196.898 136.315C196.898 137.468 196.616 138.394 196.051 139.091C195.486 139.784 194.736 140.13 193.802 140.13C193.278 140.13 192.813 140.023 192.407 139.809C192.002 139.59 191.699 139.285 191.498 138.893H191.389V142.461H190.213V132.631H191.334V133.861H191.443C191.68 133.438 192.006 133.105 192.421 132.863C192.84 132.622 193.3 132.501 193.802 132.501ZM193.521 139.07C194.196 139.07 194.725 138.826 195.107 138.339C195.49 137.851 195.682 137.177 195.682 136.315C195.682 135.454 195.49 134.78 195.107 134.292C194.729 133.804 194.203 133.561 193.528 133.561C192.863 133.561 192.334 133.809 191.942 134.306C191.55 134.798 191.354 135.468 191.354 136.315C191.354 137.159 191.548 137.828 191.936 138.325C192.327 138.822 192.856 139.07 193.521 139.07ZM204.705 132.631V140H203.584V138.845H203.475C203.288 139.259 203.001 139.578 202.613 139.802C202.226 140.021 201.752 140.13 201.191 140.13C200.371 140.13 199.747 139.895 199.318 139.426C198.89 138.956 198.676 138.282 198.676 137.402V132.631H199.852V137.115C199.852 137.785 199.984 138.277 200.248 138.592C200.512 138.902 200.936 139.057 201.52 139.057C202.162 139.057 202.657 138.877 203.003 138.517C203.354 138.152 203.529 137.644 203.529 136.992V132.631H204.705ZM213.018 134.887H211.828C211.728 134.499 211.511 134.183 211.179 133.937C210.851 133.686 210.434 133.561 209.928 133.561C209.267 133.561 208.741 133.807 208.349 134.299C207.961 134.791 207.768 135.454 207.768 136.288C207.768 137.136 207.964 137.812 208.355 138.318C208.747 138.82 209.271 139.07 209.928 139.07C210.424 139.07 210.837 138.959 211.165 138.735C211.498 138.512 211.719 138.193 211.828 137.778H213.018C212.908 138.476 212.582 139.043 212.04 139.48C211.498 139.913 210.796 140.13 209.935 140.13C208.9 140.13 208.077 139.784 207.467 139.091C206.856 138.394 206.551 137.459 206.551 136.288C206.551 135.14 206.856 134.221 207.467 133.533C208.077 132.845 208.898 132.501 209.928 132.501C210.789 132.501 211.491 132.727 212.033 133.178C212.58 133.629 212.908 134.199 213.018 134.887ZM214.781 140V132.631H215.957V140H214.781ZM215.95 130.895C215.791 131.054 215.597 131.134 215.369 131.134C215.141 131.134 214.948 131.054 214.788 130.895C214.629 130.73 214.549 130.537 214.549 130.313C214.549 130.09 214.629 129.899 214.788 129.739C214.948 129.575 215.141 129.493 215.369 129.493C215.597 129.493 215.791 129.575 215.95 129.739C216.11 129.899 216.189 130.09 216.189 130.313C216.189 130.537 216.11 130.73 215.95 130.895ZM218.199 140V132.631H219.32V133.793H219.43C219.822 132.932 220.56 132.501 221.645 132.501C222.469 132.501 223.105 132.738 223.552 133.212C223.998 133.681 224.222 134.354 224.222 135.229V140H223.046V135.516C223.046 134.855 222.902 134.365 222.615 134.046C222.333 133.722 221.897 133.561 221.31 133.561C220.717 133.561 220.245 133.747 219.895 134.121C219.548 134.49 219.375 134.996 219.375 135.639V140H218.199ZM229.314 133.54C228.727 133.54 228.243 133.738 227.865 134.135C227.487 134.531 227.275 135.055 227.229 135.707H231.29C231.276 135.055 231.09 134.531 230.729 134.135C230.369 133.738 229.898 133.54 229.314 133.54ZM231.256 138.093H232.432C232.254 138.731 231.892 139.23 231.345 139.59C230.802 139.95 230.13 140.13 229.328 140.13C228.307 140.13 227.498 139.788 226.901 139.104C226.304 138.416 226.006 137.489 226.006 136.322C226.006 135.16 226.307 134.233 226.908 133.54C227.51 132.847 228.316 132.501 229.328 132.501C230.322 132.501 231.103 132.831 231.673 133.492C232.243 134.153 232.527 135.058 232.527 136.206V136.657H227.229V136.712C227.261 137.441 227.466 138.02 227.845 138.448C228.228 138.877 228.731 139.091 229.355 139.091C230.308 139.091 230.941 138.758 231.256 138.093ZM234.202 134.647C234.202 134.037 234.464 133.526 234.988 133.116C235.512 132.706 236.166 132.501 236.95 132.501C237.72 132.501 238.356 132.679 238.857 133.034C239.359 133.39 239.648 133.87 239.726 134.477H238.563C238.481 134.176 238.299 133.939 238.017 133.766C237.739 133.588 237.381 133.499 236.943 133.499C236.501 133.499 236.13 133.602 235.829 133.807C235.533 134.012 235.385 134.276 235.385 134.6C235.385 134.85 235.487 135.06 235.692 135.229C235.902 135.393 236.226 135.527 236.663 135.632L237.798 135.905C238.5 136.074 239.017 136.318 239.35 136.637C239.687 136.956 239.855 137.377 239.855 137.901C239.855 138.553 239.575 139.089 239.015 139.508C238.454 139.923 237.75 140.13 236.902 140.13C236.082 140.13 235.41 139.948 234.886 139.583C234.362 139.218 234.068 138.731 234.004 138.12H235.214C235.314 138.439 235.512 138.69 235.809 138.872C236.105 139.05 236.483 139.139 236.943 139.139C237.44 139.139 237.848 139.032 238.167 138.817C238.486 138.603 238.646 138.327 238.646 137.99C238.646 137.489 238.256 137.143 237.477 136.951L236.212 136.644C235.515 136.475 235.004 136.233 234.681 135.919C234.362 135.6 234.202 135.176 234.202 134.647ZM242.446 142.509H241.564L242.214 138.619H243.52L242.446 142.509ZM62.5107 157L66.9404 148.332V148.236H61.6631V147.136H68.1914V148.277L63.8027 157H62.5107ZM73.2021 157.232C72.2679 157.232 71.4954 156.97 70.8848 156.446C70.2741 155.918 69.9414 155.227 69.8867 154.375H71.0967C71.1514 154.908 71.3724 155.339 71.7598 155.667C72.1517 155.991 72.637 156.152 73.2158 156.152C73.8766 156.152 74.4076 155.945 74.8086 155.53C75.2142 155.116 75.417 154.571 75.417 153.896C75.417 153.222 75.2142 152.675 74.8086 152.256C74.4076 151.832 73.8835 151.62 73.2363 151.62C72.7897 151.62 72.3887 151.718 72.0332 151.914C71.6777 152.105 71.3997 152.377 71.1992 152.728H70.0439L70.584 147.136H76.0869V148.236H71.5479L71.2676 151.401H71.377C71.8555 150.841 72.5505 150.561 73.4619 150.561C74.4007 150.561 75.1663 150.868 75.7588 151.483C76.3512 152.099 76.6475 152.892 76.6475 153.862C76.6475 154.865 76.3285 155.678 75.6904 156.303C75.0524 156.923 74.223 157.232 73.2021 157.232ZM81.9316 157.232C80.8197 157.232 79.9583 156.781 79.3477 155.879C78.737 154.977 78.4316 153.705 78.4316 152.064C78.4316 150.438 78.7393 149.171 79.3545 148.264C79.9697 147.357 80.8288 146.903 81.9316 146.903C83.0299 146.903 83.8844 147.359 84.4951 148.271C85.1104 149.182 85.418 150.453 85.418 152.085C85.418 153.721 85.1126 154.988 84.502 155.886C83.8958 156.784 83.0391 157.232 81.9316 157.232ZM80.25 155.1C80.6419 155.806 81.2025 156.159 81.9316 156.159C82.6608 156.159 83.2168 155.808 83.5996 155.106C83.987 154.4 84.1807 153.386 84.1807 152.064C84.1807 150.757 83.9847 149.749 83.5928 149.043C83.2054 148.337 82.6517 147.983 81.9316 147.983C81.2116 147.983 80.6533 148.339 80.2568 149.05C79.8649 149.756 79.6689 150.761 79.6689 152.064C79.6689 153.382 79.8626 154.393 80.25 155.1ZM90.75 157.232C89.638 157.232 88.7767 156.781 88.166 155.879C87.5553 154.977 87.25 153.705 87.25 152.064C87.25 150.438 87.5576 149.171 88.1729 148.264C88.7881 147.357 89.6471 146.903 90.75 146.903C91.8483 146.903 92.7028 147.359 93.3135 148.271C93.9287 149.182 94.2363 150.453 94.2363 152.085C94.2363 153.721 93.931 154.988 93.3203 155.886C92.7142 156.784 91.8574 157.232 90.75 157.232ZM89.0684 155.1C89.4603 155.806 90.0208 156.159 90.75 156.159C91.4792 156.159 92.0352 155.808 92.418 155.106C92.8053 154.4 92.999 153.386 92.999 152.064C92.999 150.757 92.8031 149.749 92.4111 149.043C92.0238 148.337 91.4701 147.983 90.75 147.983C90.0299 147.983 89.4717 148.339 89.0752 149.05C88.6833 149.756 88.4873 150.761 88.4873 152.064C88.4873 153.382 88.681 154.393 89.0684 155.1ZM96.1914 149.911C96.1914 149.036 96.4876 148.316 97.0801 147.751C97.6771 147.186 98.4336 146.903 99.3496 146.903C100.234 146.903 100.974 147.17 101.571 147.703C102.173 148.232 102.474 148.888 102.474 149.672C102.474 150.187 102.328 150.693 102.036 151.189C101.744 151.686 101.195 152.368 100.389 153.233L98.0166 155.783V155.893H102.638V157H96.2529V156.152L99.6641 152.427C100.298 151.739 100.719 151.215 100.929 150.854C101.138 150.494 101.243 150.116 101.243 149.72C101.243 149.228 101.056 148.815 100.683 148.482C100.313 148.145 99.8577 147.977 99.3154 147.977C98.7367 147.977 98.2695 148.154 97.9141 148.51C97.5586 148.865 97.3809 149.332 97.3809 149.911V149.918H96.1914V149.911ZM108.824 147.136H112.55C113.484 147.136 114.243 147.434 114.826 148.031C115.414 148.624 115.708 149.389 115.708 150.328C115.708 151.249 115.41 152.005 114.812 152.598C114.22 153.186 113.461 153.479 112.536 153.479H110.055V157H108.824V147.136ZM110.055 148.229V152.386H112.229C112.93 152.386 113.475 152.206 113.862 151.846C114.25 151.486 114.443 150.98 114.443 150.328C114.443 149.649 114.252 149.13 113.869 148.77C113.491 148.41 112.944 148.229 112.229 148.229H110.055ZM119.57 156.098C120.176 156.098 120.678 155.922 121.074 155.571C121.475 155.22 121.676 154.781 121.676 154.252V153.575L119.693 153.705C119.137 153.742 118.729 153.858 118.47 154.054C118.21 154.25 118.08 154.535 118.08 154.908C118.08 155.277 118.219 155.569 118.497 155.783C118.775 155.993 119.133 156.098 119.57 156.098ZM119.352 157.13C118.627 157.13 118.03 156.932 117.561 156.535C117.096 156.134 116.863 155.601 116.863 154.936C116.863 154.279 117.096 153.764 117.561 153.391C118.025 153.017 118.688 152.805 119.55 152.755L121.676 152.625V151.955C121.676 151.499 121.535 151.151 121.252 150.909C120.969 150.668 120.555 150.547 120.008 150.547C119.566 150.547 119.199 150.627 118.907 150.786C118.616 150.946 118.429 151.171 118.347 151.463H117.157C117.235 150.875 117.538 150.401 118.066 150.041C118.6 149.681 119.26 149.501 120.049 149.501C120.942 149.501 121.632 149.717 122.12 150.15C122.608 150.583 122.852 151.185 122.852 151.955V157H121.73V155.913H121.621C121.384 156.305 121.07 156.606 120.678 156.815C120.286 157.025 119.844 157.13 119.352 157.13ZM125.025 157V149.631H126.146V150.725H126.256C126.365 150.365 126.611 150.071 126.994 149.843C127.377 149.615 127.812 149.501 128.3 149.501C128.523 149.501 128.719 149.512 128.888 149.535V150.711C128.728 150.665 128.478 150.643 128.136 150.643C127.575 150.643 127.113 150.811 126.748 151.148C126.383 151.486 126.201 151.914 126.201 152.434V157H125.025ZM130.385 157V149.631H131.561V157H130.385ZM131.554 147.895C131.394 148.054 131.201 148.134 130.973 148.134C130.745 148.134 130.551 148.054 130.392 147.895C130.232 147.73 130.152 147.537 130.152 147.313C130.152 147.09 130.232 146.899 130.392 146.739C130.551 146.575 130.745 146.493 130.973 146.493C131.201 146.493 131.394 146.575 131.554 146.739C131.713 146.899 131.793 147.09 131.793 147.313C131.793 147.537 131.713 147.73 131.554 147.895ZM133.632 151.647C133.632 151.037 133.894 150.526 134.418 150.116C134.942 149.706 135.596 149.501 136.38 149.501C137.15 149.501 137.786 149.679 138.287 150.034C138.788 150.39 139.078 150.87 139.155 151.477H137.993C137.911 151.176 137.729 150.939 137.446 150.766C137.168 150.588 136.811 150.499 136.373 150.499C135.931 150.499 135.56 150.602 135.259 150.807C134.963 151.012 134.814 151.276 134.814 151.6C134.814 151.85 134.917 152.06 135.122 152.229C135.332 152.393 135.655 152.527 136.093 152.632L137.228 152.905C137.929 153.074 138.447 153.318 138.779 153.637C139.117 153.956 139.285 154.377 139.285 154.901C139.285 155.553 139.005 156.089 138.444 156.508C137.884 156.923 137.18 157.13 136.332 157.13C135.512 157.13 134.84 156.948 134.315 156.583C133.791 156.218 133.497 155.731 133.434 155.12H134.644C134.744 155.439 134.942 155.69 135.238 155.872C135.535 156.05 135.913 156.139 136.373 156.139C136.87 156.139 137.278 156.032 137.597 155.817C137.916 155.603 138.075 155.327 138.075 154.99C138.075 154.489 137.686 154.143 136.906 153.951L135.642 153.644C134.944 153.475 134.434 153.233 134.11 152.919C133.791 152.6 133.632 152.176 133.632 151.647Z" fill="#040415"/>
<path d="M62.1489 106.84H65.7354C66.6325 106.84 67.3604 107.124 67.9189 107.691C68.4775 108.254 68.7568 108.988 68.7568 109.894C68.7568 110.786 68.4712 111.514 67.8999 112.077C67.3286 112.636 66.5923 112.915 65.6909 112.915H63.5708V116H62.1489V106.84ZM63.5708 108.097V111.665H65.3608C65.9744 111.665 66.4505 111.512 66.7891 111.208C67.1318 110.899 67.3032 110.461 67.3032 109.894C67.3032 109.314 67.1361 108.869 66.8018 108.561C66.4674 108.252 65.9871 108.097 65.3608 108.097H63.5708ZM72.0132 108.091V111.296H74.0571C74.6073 111.296 75.0326 111.157 75.333 110.877C75.6377 110.598 75.79 110.202 75.79 109.69C75.79 109.191 75.6313 108.8 75.314 108.516C75.0008 108.233 74.5692 108.091 74.019 108.091H72.0132ZM72.0132 112.509V116H70.5913V106.84H74.2158C75.1383 106.84 75.8747 107.096 76.4248 107.608C76.9749 108.116 77.25 108.8 77.25 109.659C77.25 110.277 77.0913 110.82 76.7739 111.29C76.4608 111.756 76.027 112.083 75.4727 112.274L77.5293 116H75.8853L74.019 112.509H72.0132ZM80.6968 116H79.2749V106.84H80.6968V116ZM82.563 113.537H83.9722C84.0314 113.973 84.2578 114.32 84.6514 114.578C85.0492 114.832 85.5549 114.959 86.1685 114.959C86.7397 114.959 87.2116 114.828 87.584 114.565C87.9606 114.299 88.1489 113.962 88.1489 113.556C88.1489 113.209 88.0093 112.926 87.73 112.706C87.4549 112.481 87.0127 112.297 86.4033 112.153L85.2227 111.868C84.3932 111.673 83.7839 111.37 83.3945 110.96C83.0052 110.549 82.8105 110.008 82.8105 109.335C82.8105 108.518 83.1152 107.862 83.7246 107.367C84.3382 106.868 85.1444 106.618 86.1431 106.618C87.0741 106.618 87.8464 106.864 88.46 107.354C89.0736 107.845 89.4015 108.476 89.4438 109.246H88.0601C87.9924 108.823 87.785 108.489 87.438 108.243C87.0952 107.998 86.6572 107.875 86.124 107.875C85.5612 107.875 85.1084 108 84.7656 108.25C84.4229 108.499 84.2515 108.829 84.2515 109.24C84.2515 109.566 84.3805 109.83 84.6387 110.033C84.901 110.236 85.3306 110.408 85.9272 110.547L86.9365 110.795C87.876 111.015 88.5531 111.328 88.9678 111.734C89.3825 112.136 89.5898 112.682 89.5898 113.372C89.5898 114.248 89.2725 114.942 88.6377 115.454C88.0029 115.966 87.1439 116.222 86.0605 116.222C85.0449 116.222 84.2197 115.979 83.585 115.492C82.9544 115.006 82.6138 114.354 82.563 113.537ZM97.2769 114.705V116H91.4624V106.84H97.2769V108.135H92.8843V110.725H97.042V111.957H92.8843V114.705H97.2769ZM108.703 114.705V116H102.888V106.84H108.703V108.135H104.31V110.725H108.468V111.957H104.31V114.705H108.703ZM112.143 116H110.759V106.84H112.042L116.745 113.347H116.847V106.84H118.23V116H116.948L112.245 109.494H112.143V116ZM127.847 116.222C126.573 116.222 125.566 115.793 124.826 114.934C124.085 114.075 123.715 112.904 123.715 111.423C123.715 109.938 124.083 108.766 124.819 107.907C125.56 107.048 126.567 106.618 127.841 106.618C128.848 106.618 129.705 106.914 130.412 107.507C131.123 108.095 131.535 108.857 131.649 109.792H130.234C130.098 109.229 129.815 108.781 129.383 108.446C128.956 108.112 128.442 107.945 127.841 107.945C127.02 107.945 126.368 108.258 125.886 108.884C125.408 109.506 125.168 110.353 125.168 111.423C125.168 112.49 125.408 113.336 125.886 113.962C126.368 114.584 127.022 114.896 127.847 114.896C128.452 114.896 128.969 114.743 129.396 114.438C129.828 114.134 130.107 113.723 130.234 113.207H131.649C131.522 114.113 131.112 114.843 130.418 115.397C129.724 115.947 128.867 116.222 127.847 116.222ZM141.063 116H139.647V111.982H134.944V116H133.522V106.84H134.944V110.687H139.647V106.84H141.063V116ZM149.29 116L148.452 113.569H144.96L144.116 116H142.656L145.963 106.84H147.493L150.8 116H149.29ZM146.655 108.503L145.322 112.375H148.09L146.763 108.503H146.655ZM153.822 108.091V111.296H155.866C156.416 111.296 156.841 111.157 157.142 110.877C157.446 110.598 157.599 110.202 157.599 109.69C157.599 109.191 157.44 108.8 157.123 108.516C156.809 108.233 156.378 108.091 155.828 108.091H153.822ZM153.822 112.509V116H152.4V106.84H156.024C156.947 106.84 157.683 107.096 158.233 107.608C158.784 108.116 159.059 108.8 159.059 109.659C159.059 110.277 158.9 110.82 158.583 111.29C158.269 111.756 157.836 112.083 157.281 112.274L159.338 116H157.694L155.828 112.509H153.822ZM168.897 112.375C168.897 113.548 168.538 114.483 167.818 115.181C167.103 115.875 166.145 116.222 164.943 116.222C163.644 116.222 162.613 115.791 161.852 114.927C161.09 114.064 160.709 112.894 160.709 111.417C160.709 109.957 161.092 108.793 161.858 107.926C162.624 107.054 163.648 106.618 164.93 106.618C165.971 106.618 166.843 106.893 167.545 107.443C168.248 107.989 168.677 108.726 168.834 109.652H167.406C167.228 109.098 166.928 108.675 166.504 108.383C166.081 108.091 165.556 107.945 164.93 107.945C164.084 107.945 163.411 108.258 162.912 108.884C162.412 109.506 162.163 110.346 162.163 111.404C162.163 112.483 162.412 113.336 162.912 113.962C163.415 114.584 164.099 114.896 164.962 114.896C165.711 114.896 166.32 114.686 166.79 114.267C167.26 113.848 167.497 113.3 167.501 112.623V112.426H165.14V111.233H168.897V112.375ZM176.673 114.705V116H170.859V106.84H176.673V108.135H172.281V110.725H176.438V111.957H172.281V114.705H176.673Z" fill="black" fill-opacity="0.4"/>
<g clip-path="url(#clip1_1_576)">
<path d="M41 120C45.4183 120 49 116.418 49 112C49 107.582 45.4183 104 41 104C36.5817 104 33 107.582 33 112C33 116.418 36.5817 120 41 120Z" fill="black"/>
<path d="M41 115C42.6569 115 44 113.657 44 112C44 110.343 42.6569 109 41 109C39.3431 109 38 110.343 38 112C38 113.657 39.3431 115 41 115Z" fill="white"/>
</g>
<path d="M62.0391 216.911C62.0391 216.036 62.3353 215.316 62.9277 214.751C63.5247 214.186 64.2812 213.903 65.1973 213.903C66.0814 213.903 66.8219 214.17 67.4189 214.703C68.0205 215.232 68.3213 215.888 68.3213 216.672C68.3213 217.187 68.1755 217.693 67.8838 218.189C67.5921 218.686 67.043 219.368 66.2363 220.233L63.8643 222.783V222.893H68.4854V224H62.1006V223.152L65.5117 219.427C66.1452 218.739 66.5667 218.215 66.7764 217.854C66.986 217.494 67.0908 217.116 67.0908 216.72C67.0908 216.228 66.904 215.815 66.5303 215.482C66.1611 215.145 65.7054 214.977 65.1631 214.977C64.5843 214.977 64.1172 215.154 63.7617 215.51C63.4062 215.865 63.2285 216.332 63.2285 216.911V216.918H62.0391V216.911ZM72.9219 224V215.503H72.8125L70.3037 217.321V216.022L72.9287 214.136H74.1523V224H72.9219ZM82.4375 215.229V219.003H84.8643C85.4977 219.003 85.9854 218.841 86.3271 218.518C86.6735 218.189 86.8467 217.722 86.8467 217.116C86.8467 216.524 86.6667 216.061 86.3066 215.729C85.9466 215.396 85.4476 215.229 84.8096 215.229H82.4375ZM82.4375 220.097V224H81.207V214.136H84.9736C85.9261 214.136 86.6872 214.405 87.2568 214.942C87.8311 215.476 88.1182 216.187 88.1182 217.075C88.1182 217.763 87.9427 218.358 87.5918 218.859C87.2409 219.361 86.7555 219.709 86.1357 219.905L88.4189 224H86.9766L84.8643 220.097H82.4375ZM96.1641 216.631V224H95.043V222.845H94.9336C94.7467 223.259 94.4596 223.578 94.0723 223.802C93.6849 224.021 93.2109 224.13 92.6504 224.13C91.8301 224.13 91.2057 223.895 90.7773 223.426C90.349 222.956 90.1348 222.282 90.1348 221.402V216.631H91.3105V221.115C91.3105 221.785 91.4427 222.277 91.707 222.592C91.9714 222.902 92.3952 223.057 92.9785 223.057C93.6211 223.057 94.1156 222.877 94.4619 222.517C94.8128 222.152 94.9883 221.644 94.9883 220.992V216.631H96.1641ZM101.318 217.54C100.73 217.54 100.247 217.738 99.8691 218.135C99.4909 218.531 99.279 219.055 99.2334 219.707H103.294C103.28 219.055 103.093 218.531 102.733 218.135C102.373 217.738 101.902 217.54 101.318 217.54ZM103.26 222.093H104.436C104.258 222.731 103.896 223.23 103.349 223.59C102.806 223.95 102.134 224.13 101.332 224.13C100.311 224.13 99.5023 223.788 98.9053 223.104C98.3083 222.416 98.0098 221.489 98.0098 220.322C98.0098 219.16 98.3105 218.233 98.9121 217.54C99.5137 216.847 100.32 216.501 101.332 216.501C102.326 216.501 103.107 216.831 103.677 217.492C104.246 218.153 104.531 219.058 104.531 220.206V220.657H99.2334V220.712C99.2653 221.441 99.4704 222.02 99.8486 222.448C100.231 222.877 100.735 223.091 101.359 223.091C102.312 223.091 102.945 222.758 103.26 222.093ZM113.056 224.13C112.112 224.13 111.36 223.784 110.8 223.091C110.239 222.398 109.959 221.473 109.959 220.315C109.959 219.162 110.239 218.24 110.8 217.547C111.365 216.85 112.117 216.501 113.056 216.501C113.571 216.501 114.031 216.617 114.437 216.85C114.847 217.077 115.157 217.392 115.366 217.793H115.469V213.705H116.645V224H115.523V222.824H115.414C115.182 223.234 114.858 223.556 114.443 223.788C114.029 224.016 113.566 224.13 113.056 224.13ZM113.329 217.561C112.659 217.561 112.133 217.807 111.75 218.299C111.367 218.786 111.176 219.459 111.176 220.315C111.176 221.177 111.365 221.851 111.743 222.339C112.126 222.826 112.655 223.07 113.329 223.07C113.999 223.07 114.528 222.824 114.915 222.332C115.302 221.84 115.496 221.168 115.496 220.315C115.496 219.472 115.3 218.802 114.908 218.306C114.521 217.809 113.994 217.561 113.329 217.561ZM121.867 217.54C121.279 217.54 120.796 217.738 120.418 218.135C120.04 218.531 119.828 219.055 119.782 219.707H123.843C123.829 219.055 123.642 218.531 123.282 218.135C122.922 217.738 122.451 217.54 121.867 217.54ZM123.809 222.093H124.984C124.807 222.731 124.444 223.23 123.897 223.59C123.355 223.95 122.683 224.13 121.881 224.13C120.86 224.13 120.051 223.788 119.454 223.104C118.857 222.416 118.559 221.489 118.559 220.322C118.559 219.16 118.859 218.233 119.461 217.54C120.062 216.847 120.869 216.501 121.881 216.501C122.874 216.501 123.656 216.831 124.226 217.492C124.795 218.153 125.08 219.058 125.08 220.206V220.657H119.782V220.712C119.814 221.441 120.019 222.02 120.397 222.448C120.78 222.877 121.284 223.091 121.908 223.091C122.861 223.091 123.494 222.758 123.809 222.093ZM132.258 215.229V219.003H134.685C135.318 219.003 135.806 218.841 136.147 218.518C136.494 218.189 136.667 217.722 136.667 217.116C136.667 216.524 136.487 216.061 136.127 215.729C135.767 215.396 135.268 215.229 134.63 215.229H132.258ZM132.258 220.097V224H131.027V214.136H134.794C135.746 214.136 136.507 214.405 137.077 214.942C137.651 215.476 137.938 216.187 137.938 217.075C137.938 217.763 137.763 218.358 137.412 218.859C137.061 219.361 136.576 219.709 135.956 219.905L138.239 224H136.797L134.685 220.097H132.258ZM140.051 224V216.631H141.227V224H140.051ZM141.22 214.895C141.06 215.054 140.867 215.134 140.639 215.134C140.411 215.134 140.217 215.054 140.058 214.895C139.898 214.73 139.818 214.537 139.818 214.313C139.818 214.09 139.898 213.899 140.058 213.739C140.217 213.575 140.411 213.493 140.639 213.493C140.867 213.493 141.06 213.575 141.22 213.739C141.379 213.899 141.459 214.09 141.459 214.313C141.459 214.537 141.379 214.73 141.22 214.895ZM149.484 216.631L146.757 224H145.554L142.826 216.631H144.084L146.101 222.701H146.21L148.227 216.631H149.484ZM156.293 223.111C155.687 223.79 154.86 224.13 153.812 224.13C152.763 224.13 151.934 223.79 151.323 223.111C150.717 222.428 150.414 221.496 150.414 220.315C150.414 219.131 150.717 218.199 151.323 217.52C151.929 216.84 152.759 216.501 153.812 216.501C154.864 216.501 155.694 216.84 156.3 217.52C156.906 218.199 157.209 219.131 157.209 220.315C157.209 221.496 156.904 222.428 156.293 223.111ZM152.198 222.353C152.576 222.831 153.114 223.07 153.812 223.07C154.509 223.07 155.047 222.831 155.425 222.353C155.803 221.869 155.992 221.19 155.992 220.315C155.992 219.44 155.803 218.764 155.425 218.285C155.047 217.802 154.509 217.561 153.812 217.561C153.114 217.561 152.576 217.802 152.198 218.285C151.82 218.764 151.631 219.44 151.631 220.315C151.631 221.19 151.82 221.869 152.198 222.353ZM159.123 224V213.705H160.299V224H159.123ZM162.609 224V216.631H163.785V224H162.609ZM163.778 214.895C163.619 215.054 163.425 215.134 163.197 215.134C162.969 215.134 162.776 215.054 162.616 214.895C162.457 214.73 162.377 214.537 162.377 214.313C162.377 214.09 162.457 213.899 162.616 213.739C162.776 213.575 162.969 213.493 163.197 213.493C163.425 213.493 163.619 213.575 163.778 213.739C163.938 213.899 164.018 214.09 164.018 214.313C164.018 214.537 163.938 214.73 163.778 214.895ZM166.772 226.509H165.891L166.54 222.619H167.846L166.772 226.509ZM62.5107 241L66.9404 232.332V232.236H61.6631V231.136H68.1914V232.277L63.8027 241H62.5107ZM73.2021 241.232C72.2679 241.232 71.4954 240.97 70.8848 240.446C70.2741 239.918 69.9414 239.227 69.8867 238.375H71.0967C71.1514 238.908 71.3724 239.339 71.7598 239.667C72.1517 239.991 72.637 240.152 73.2158 240.152C73.8766 240.152 74.4076 239.945 74.8086 239.53C75.2142 239.116 75.417 238.571 75.417 237.896C75.417 237.222 75.2142 236.675 74.8086 236.256C74.4076 235.832 73.8835 235.62 73.2363 235.62C72.7897 235.62 72.3887 235.718 72.0332 235.914C71.6777 236.105 71.3997 236.377 71.1992 236.728H70.0439L70.584 231.136H76.0869V232.236H71.5479L71.2676 235.401H71.377C71.8555 234.841 72.5505 234.561 73.4619 234.561C74.4007 234.561 75.1663 234.868 75.7588 235.483C76.3512 236.099 76.6475 236.892 76.6475 237.862C76.6475 238.865 76.3285 239.678 75.6904 240.303C75.0524 240.923 74.223 241.232 73.2021 241.232ZM81.9316 241.232C80.8197 241.232 79.9583 240.781 79.3477 239.879C78.737 238.977 78.4316 237.705 78.4316 236.064C78.4316 234.438 78.7393 233.171 79.3545 232.264C79.9697 231.357 80.8288 230.903 81.9316 230.903C83.0299 230.903 83.8844 231.359 84.4951 232.271C85.1104 233.182 85.418 234.453 85.418 236.085C85.418 237.721 85.1126 238.988 84.502 239.886C83.8958 240.784 83.0391 241.232 81.9316 241.232ZM80.25 239.1C80.6419 239.806 81.2025 240.159 81.9316 240.159C82.6608 240.159 83.2168 239.808 83.5996 239.106C83.987 238.4 84.1807 237.386 84.1807 236.064C84.1807 234.757 83.9847 233.749 83.5928 233.043C83.2054 232.337 82.6517 231.983 81.9316 231.983C81.2116 231.983 80.6533 232.339 80.2568 233.05C79.8649 233.756 79.6689 234.761 79.6689 236.064C79.6689 237.382 79.8626 238.393 80.25 239.1ZM90.75 241.232C89.638 241.232 88.7767 240.781 88.166 239.879C87.5553 238.977 87.25 237.705 87.25 236.064C87.25 234.438 87.5576 233.171 88.1729 232.264C88.7881 231.357 89.6471 230.903 90.75 230.903C91.8483 230.903 92.7028 231.359 93.3135 232.271C93.9287 233.182 94.2363 234.453 94.2363 236.085C94.2363 237.721 93.931 238.988 93.3203 239.886C92.7142 240.784 91.8574 241.232 90.75 241.232ZM89.0684 239.1C89.4603 239.806 90.0208 240.159 90.75 240.159C91.4792 240.159 92.0352 239.808 92.418 239.106C92.8053 238.4 92.999 237.386 92.999 236.064C92.999 234.757 92.8031 233.749 92.4111 233.043C92.0238 232.337 91.4701 231.983 90.75 231.983C90.0299 231.983 89.4717 232.339 89.0752 233.05C88.6833 233.756 88.4873 234.761 88.4873 236.064C88.4873 237.382 88.681 238.393 89.0684 239.1ZM100.758 241V238.956H95.9521V237.835C96.8545 236.231 98.2627 233.998 100.177 231.136H101.961V237.855H103.362V238.956H101.961V241H100.758ZM97.21 237.78V237.862H100.765V232.277H100.683C99.6162 233.827 98.4587 235.661 97.21 237.78ZM109.371 231.136H113.097C114.031 231.136 114.79 231.434 115.373 232.031C115.961 232.624 116.255 233.389 116.255 234.328C116.255 235.249 115.956 236.005 115.359 236.598C114.767 237.186 114.008 237.479 113.083 237.479H110.602V241H109.371V231.136ZM110.602 232.229V236.386H112.775C113.477 236.386 114.022 236.206 114.409 235.846C114.797 235.486 114.99 234.98 114.99 234.328C114.99 233.649 114.799 233.13 114.416 232.77C114.038 232.41 113.491 232.229 112.775 232.229H110.602ZM120.117 240.098C120.723 240.098 121.225 239.922 121.621 239.571C122.022 239.22 122.223 238.781 122.223 238.252V237.575L120.24 237.705C119.684 237.742 119.276 237.858 119.017 238.054C118.757 238.25 118.627 238.535 118.627 238.908C118.627 239.277 118.766 239.569 119.044 239.783C119.322 239.993 119.68 240.098 120.117 240.098ZM119.898 241.13C119.174 241.13 118.577 240.932 118.107 240.535C117.643 240.134 117.41 239.601 117.41 238.936C117.41 238.279 117.643 237.764 118.107 237.391C118.572 237.017 119.235 236.805 120.097 236.755L122.223 236.625V235.955C122.223 235.499 122.081 235.151 121.799 234.909C121.516 234.668 121.102 234.547 120.555 234.547C120.113 234.547 119.746 234.627 119.454 234.786C119.162 234.946 118.976 235.171 118.894 235.463H117.704C117.782 234.875 118.085 234.401 118.613 234.041C119.146 233.681 119.807 233.501 120.596 233.501C121.489 233.501 122.179 233.717 122.667 234.15C123.155 234.583 123.398 235.185 123.398 235.955V241H122.277V239.913H122.168C121.931 240.305 121.617 240.606 121.225 240.815C120.833 241.025 120.391 241.13 119.898 241.13ZM125.572 241V233.631H126.693V234.725H126.803C126.912 234.365 127.158 234.071 127.541 233.843C127.924 233.615 128.359 233.501 128.847 233.501C129.07 233.501 129.266 233.512 129.435 233.535V234.711C129.275 234.665 129.024 234.643 128.683 234.643C128.122 234.643 127.66 234.811 127.295 235.148C126.93 235.486 126.748 235.914 126.748 236.434V241H125.572ZM130.932 241V233.631H132.107V241H130.932ZM132.101 231.895C131.941 232.054 131.747 232.134 131.52 232.134C131.292 232.134 131.098 232.054 130.938 231.895C130.779 231.73 130.699 231.537 130.699 231.313C130.699 231.09 130.779 230.899 130.938 230.739C131.098 230.575 131.292 230.493 131.52 230.493C131.747 230.493 131.941 230.575 132.101 230.739C132.26 230.899 132.34 231.09 132.34 231.313C132.34 231.537 132.26 231.73 132.101 231.895ZM134.179 235.647C134.179 235.037 134.441 234.526 134.965 234.116C135.489 233.706 136.143 233.501 136.927 233.501C137.697 233.501 138.333 233.679 138.834 234.034C139.335 234.39 139.625 234.87 139.702 235.477H138.54C138.458 235.176 138.276 234.939 137.993 234.766C137.715 234.588 137.357 234.499 136.92 234.499C136.478 234.499 136.106 234.602 135.806 234.807C135.509 235.012 135.361 235.276 135.361 235.6C135.361 235.85 135.464 236.06 135.669 236.229C135.879 236.393 136.202 236.527 136.64 236.632L137.774 236.905C138.476 237.074 138.993 237.318 139.326 237.637C139.663 237.956 139.832 238.377 139.832 238.901C139.832 239.553 139.552 240.089 138.991 240.508C138.431 240.923 137.727 241.13 136.879 241.13C136.059 241.13 135.386 240.948 134.862 240.583C134.338 240.218 134.044 239.731 133.98 239.12H135.19C135.291 239.439 135.489 239.69 135.785 239.872C136.081 240.05 136.46 240.139 136.92 240.139C137.417 240.139 137.825 240.032 138.144 239.817C138.463 239.603 138.622 239.327 138.622 238.99C138.622 238.489 138.232 238.143 137.453 237.951L136.188 237.644C135.491 237.475 134.981 237.233 134.657 236.919C134.338 236.6 134.179 236.176 134.179 235.647Z" fill="#040415"/>
<path d="M62.1489 190.84H65.4561C66.8145 190.84 67.8724 191.24 68.6299 192.04C69.3874 192.836 69.7661 193.953 69.7661 195.392C69.7661 196.856 69.3895 197.99 68.6362 198.794C67.883 199.598 66.8229 200 65.4561 200H62.1489V190.84ZM63.5708 192.135V198.705H65.2974C66.258 198.705 67.0007 198.419 67.5254 197.848C68.0544 197.273 68.3188 196.46 68.3188 195.411C68.3188 194.378 68.0522 193.574 67.519 192.999C66.9901 192.423 66.2495 192.135 65.2974 192.135H63.5708ZM77.4976 198.705V200H71.6831V190.84H77.4976V192.135H73.105V194.725H77.2627V195.957H73.105V198.705H77.4976ZM79.1226 197.537H80.5317C80.591 197.973 80.8174 198.32 81.2109 198.578C81.6087 198.832 82.1144 198.959 82.728 198.959C83.2993 198.959 83.7712 198.828 84.1436 198.565C84.5202 198.299 84.7085 197.962 84.7085 197.556C84.7085 197.209 84.5688 196.926 84.2896 196.706C84.0145 196.481 83.5723 196.297 82.9629 196.153L81.7822 195.868C80.9528 195.673 80.3434 195.37 79.9541 194.96C79.5648 194.549 79.3701 194.008 79.3701 193.335C79.3701 192.518 79.6748 191.862 80.2842 191.367C80.8978 190.868 81.7039 190.618 82.7026 190.618C83.6336 190.618 84.4059 190.864 85.0195 191.354C85.6331 191.845 85.9611 192.476 86.0034 193.246H84.6196C84.5519 192.823 84.3446 192.489 83.9976 192.243C83.6548 191.998 83.2168 191.875 82.6836 191.875C82.1208 191.875 81.668 192 81.3252 192.25C80.9824 192.499 80.811 192.829 80.811 193.24C80.811 193.566 80.9401 193.83 81.1982 194.033C81.4606 194.236 81.8901 194.408 82.4868 194.547L83.4961 194.795C84.4355 195.015 85.1126 195.328 85.5273 195.734C85.9421 196.136 86.1494 196.682 86.1494 197.372C86.1494 198.248 85.832 198.942 85.1973 199.454C84.5625 199.966 83.7035 200.222 82.6201 200.222C81.6045 200.222 80.7793 199.979 80.1445 199.492C79.514 199.006 79.1733 198.354 79.1226 197.537ZM91.7671 200H90.3452V192.135H87.4634V190.84H94.6426V192.135H91.7671V200ZM97.8101 200H96.3882V190.84H97.8101V200ZM101.492 200H100.108V190.84H101.39L106.094 197.347H106.195V190.84H107.579V200H106.297L101.593 193.494H101.492V200ZM115.812 200L114.974 197.569H111.483L110.639 200H109.179L112.486 190.84H114.016L117.323 200H115.812ZM113.178 192.503L111.845 196.375H114.612L113.286 192.503H113.178ZM121.614 200H120.192V192.135H117.31V190.84H124.489V192.135H121.614V200ZM127.657 200H126.235V190.84H127.657V200ZM133.858 190.618C135.179 190.618 136.22 191.05 136.981 191.913C137.743 192.772 138.124 193.94 138.124 195.417C138.124 196.894 137.743 198.064 136.981 198.927C136.22 199.791 135.179 200.222 133.858 200.222C132.534 200.222 131.489 199.793 130.723 198.934C129.961 198.07 129.58 196.898 129.58 195.417C129.58 193.94 129.963 192.772 130.729 191.913C131.499 191.05 132.542 190.618 133.858 190.618ZM133.858 191.945C132.995 191.945 132.307 192.258 131.795 192.884C131.288 193.511 131.034 194.355 131.034 195.417C131.034 196.479 131.285 197.326 131.789 197.956C132.293 198.582 132.982 198.896 133.858 198.896C134.726 198.896 135.411 198.582 135.915 197.956C136.419 197.326 136.67 196.479 136.67 195.417C136.67 194.351 136.419 193.506 135.915 192.884C135.411 192.258 134.726 191.945 133.858 191.945ZM141.431 200H140.047V190.84H141.33L146.033 197.347H146.135V190.84H147.519V200H146.236L141.533 193.494H141.431V200Z" fill="black" fill-opacity="0.4"/>
<path d="M47.625 196.917C47.625 202.458 40.5 207.208 40.5 207.208C40.5 207.208 33.375 202.458 33.375 196.917C33.375 195.027 34.1257 193.215 35.4619 191.878C36.7981 190.542 38.6103 189.792 40.5 189.792C42.3897 189.792 44.2019 190.542 45.5381 191.878C46.8743 193.215 47.625 195.027 47.625 196.917Z" fill="#A80606" stroke="#A80606" stroke-linecap="round" stroke-linejoin="round"/>
<path d="M40.5 199.292C41.8117 199.292 42.875 198.228 42.875 196.917C42.875 195.605 41.8117 194.542 40.5 194.542C39.1883 194.542 38.125 195.605 38.125 196.917C38.125 198.228 39.1883 199.292 40.5 199.292Z" fill="white" stroke="white" stroke-linecap="round" stroke-linejoin="round"/>
<defs>
<filter id="filter0_d_1_576" x="0" y="0" width="276" height="276" filterUnits="userSpaceOnUse" color-interpolation-filters="sRGB">
<feFlood flood-opacity="0" result="BackgroundImageFix"/>
<feColorMatrix in="SourceAlpha" type="matrix" values="0 0 0 0 0 0 0 0 0 0 0 0 0 0 0 0 0 0 127 0" result="hardAlpha"/>
<feMorphology radius="7" operator="erode" in="SourceAlpha" result="effect1_dropShadow_1_576"/>
<feOffset/>
<feGaussianBlur stdDeviation="11"/>
<feColorMatrix type="matrix" values="0 0 0 0 0.3 0 0 0 0 0.3 0 0 0 0 0.3 0 0 0 0.6 0"/>
<feBlend mode="normal" in2="BackgroundImageFix" result="effect1_dropShadow_1_576"/>
<feBlend mode="normal" in="SourceGraphic" in2="effect1_dropShadow_1_576" result="shape"/>
</filter>
<clipPath id="clip0_1_576">
<rect width="14" height="14" fill="white" transform="translate(41 64)"/>
</clipPath>
<clipPath id="clip1_1_576">
<rect width="16" height="16" fill="white" transform="translate(33 104)"/>
</clipPath>
</defs>
</svg>
