<svg width="1512" height="469" viewBox="0 0 1512 469" fill="none" xmlns="http://www.w3.org/2000/svg">
<path opacity="0.05" d="M1486.94 -66.071L1475.2 -70M1486.94 -66.071H1452.14M1486.94 -66.071L1499.08 -62.0123M1486.94 -66.071H1511.59M1475.2 -70L1479.47 -69.9985L1483.7 -69.99L1487.84 -69.966L1491.85 -69.9189L1495.69 -69.8425L1499.31 -69.7274L1502.68 -69.5676L1505.8 -69.3637L1508.48 -69.0818L1510.92 -68.7552L1511.59 -68.6408V-66.071M1475.2 -70H1440.95M1440.95 -70H1406.7M1440.95 -70L1452.14 -66.071M1406.7 -70H1372.45M1406.7 -70L1417.33 -66.071M1372.45 -70H1338.21M1372.45 -70L1382.52 -66.071M1338.21 -70H1303.96M1338.21 -70L1347.72 -66.071M1303.96 -70H1269.71M1303.96 -70L1312.91 -66.071M1269.71 -70H1235.46M1269.71 -70L1278.1 -66.071M1235.46 -70H1201.22M1235.46 -70L1243.3 -66.071M1201.22 -70H1166.97M1201.22 -70L1208.49 -66.071M1166.97 -70H1132.72M1166.97 -70L1173.68 -66.071M1132.72 -70H1098.48M1132.72 -70L1138.87 -66.071M1098.48 -70H1064.23M1098.48 -70L1104.07 -66.071M1064.23 -70H1029.98M1064.23 -70L1065.47 -69.0293L1067.35 -67.5598L1069.26 -66.071M1029.98 -70H995.733M1029.98 -70L1031.08 -69.0293L1034.45 -66.071M995.733 -70H961.485M995.733 -70L999.647 -66.071M961.485 -70H927.237M961.485 -70L962.73 -68.5413L963.992 -67.0656L964.415 -66.5691L964.841 -66.071M927.237 -70H892.99M927.237 -70L928.275 -68.5413L928.625 -68.0517L928.975 -67.5598L930.034 -66.071M892.99 -70H858.743M892.99 -70L895.227 -66.071M858.743 -70L858.95 -69.5158L859.157 -69.0293L860.207 -66.5691L860.421 -66.071M858.743 -70H824.495M824.495 -70H790.247M824.495 -70L825.614 -66.071M790.247 -70H756M790.247 -70L790.455 -68.5413L790.807 -66.071M756 -70H721.753M756 -70V-66.071M721.753 -70H687.505M721.753 -70L721.545 -68.5413L721.193 -66.071M687.505 -70H653.257M687.505 -70L686.386 -66.071M653.257 -70L653.051 -69.5158L652.844 -69.0293L651.793 -66.5691L651.579 -66.071M653.257 -70H619.01M619.01 -70H584.762M619.01 -70L617.057 -66.5691L616.773 -66.071M584.762 -70H550.515M584.762 -70L583.725 -68.5413L583.375 -68.0517L582.673 -67.0656L582.321 -66.5691L581.966 -66.071M550.515 -70H516.268M550.515 -70L549.27 -68.5413L548.008 -67.0656L547.585 -66.5691L547.159 -66.071M516.268 -70H482.02M516.268 -70L512.353 -66.071M482.02 -70H447.772M482.02 -70L480.915 -69.0293L477.546 -66.071M447.772 -70H413.525M447.772 -70L442.739 -66.071M413.525 -70H379.278M413.525 -70L407.932 -66.071M379.278 -70H345.03M379.278 -70L373.125 -66.071M345.03 -70H310.783M345.03 -70L338.318 -66.071M310.783 -70H276.535M310.783 -70L303.512 -66.071M276.535 -70H242.288M276.535 -70L268.705 -66.071M242.288 -70H208.04M242.288 -70L233.898 -66.071M208.04 -70H173.793M208.04 -70L199.091 -66.071M173.793 -70H139.545M173.793 -70L164.284 -66.071M139.545 -70H105.297M139.545 -70L129.477 -66.071M105.297 -70H71.0502M105.297 -70L94.6711 -66.071M71.0502 -70H36.8029M71.0502 -70L59.8642 -66.071M36.8029 -70L32.5291 -69.9985L28.2993 -69.99L24.1577 -69.966L20.146 -69.9189L16.3082 -69.8425L12.6853 -69.7274L9.32056 -69.5676L6.19744 -69.3637L3.51744 -69.0818L1.07751 -68.7552L0.406923 -68.6408V-66.071M36.8029 -70L25.0574 -66.071M94.6711 -66.071H129.477M94.6711 -66.071H59.8642M94.6711 -66.071L83.6906 -62.0123M129.477 -66.071L119.075 -62.0123M129.477 -66.071H164.284M233.898 -66.071H268.705M233.898 -66.071H199.091M233.898 -66.071L231.758 -65.0687L225.23 -62.0123M268.705 -66.071L260.614 -62.0123M268.705 -66.071H303.512M373.125 -66.071H407.932M373.125 -66.071H338.318M373.125 -66.071L371.556 -65.0687L370.766 -64.5652L366.768 -62.0123M407.932 -66.071L407.22 -65.5714L406.505 -65.0687L402.153 -62.0123M407.932 -66.071H442.739M512.353 -66.071L511.854 -65.5714L508.307 -62.0123M512.353 -66.071H547.159M512.353 -66.071H477.546M547.159 -66.071L546.303 -65.0687L545.872 -64.5652L545.44 -64.0586L543.692 -62.0123M547.159 -66.071H581.966M651.579 -66.071H686.386M651.579 -66.071H616.773M651.579 -66.071L649.846 -62.0123M686.386 -66.071L686.244 -65.5714L686.101 -65.0687L685.957 -64.5652L685.523 -63.0401L685.231 -62.0123M686.386 -66.071H721.193M790.807 -66.071H825.614M790.807 -66.071H756M790.807 -66.071L791.385 -62.0123M825.614 -66.071L825.756 -65.5714L825.899 -65.0687L826.043 -64.5652L826.769 -62.0123M825.614 -66.071H860.421M930.034 -66.071H964.841M930.034 -66.071H895.227M930.034 -66.071L930.747 -65.0687L932.193 -63.0401L932.557 -62.5273L932.924 -62.0123M964.841 -66.071L965.697 -65.0687L966.128 -64.5652L966.56 -64.0586L968.308 -62.0123M964.841 -66.071H999.647M1069.26 -66.071H1104.07M1069.26 -66.071H1034.45M1069.26 -66.071L1070.55 -65.0687L1071.19 -64.5652L1074.46 -62.0123M1104.07 -66.071L1104.78 -65.5714L1105.49 -65.0687L1109.85 -62.0123M1104.07 -66.071H1138.87M1208.49 -66.071H1243.3M1208.49 -66.071H1173.68M1208.49 -66.071L1210.34 -65.0687L1211.28 -64.5652L1216 -62.0123M1243.3 -66.071L1251.39 -62.0123M1243.3 -66.071H1278.1M1347.72 -66.071H1382.52M1347.72 -66.071H1312.91M1347.72 -66.071L1357.54 -62.0123M1382.52 -66.071L1392.92 -62.0123M1382.52 -66.071H1417.33M0.284927 -29.3292H0.406923M35.3185 -29.3292L48.6075 -34.5146M35.3185 -29.3292L21.5202 -23.9454M35.3185 -29.3292H75.3562M35.3185 -29.3292H0.406923M48.6075 -34.5146H9.30797M48.6075 -34.5146L61.4156 -39.5124M48.6075 -34.5146H87.907M9.30797 -34.5146L22.8276 -39.5124M9.30797 -34.5146H0.406923M9.30797 -34.5146L0.406923 -31.2249M48.4485 -48.9843H85.6882M48.4485 -48.9843L60.5994 -53.4762M48.4485 -48.9843H11.2095M48.4485 -48.9843L35.8655 -44.3325M85.6882 -48.9843L97.2 -53.4762M85.6882 -48.9843L73.7679 -44.3325M85.6882 -48.9843H122.928M60.5994 -53.4762H97.2M60.5994 -53.4762L72.3402 -57.8161M60.5994 -53.4762H23.9995M97.2 -53.4762H133.8M97.2 -53.4762L108.322 -57.8161M0.0236173 52.5174H0.406923M32.3299 52.5174L49.4662 43.9204M32.3299 52.5174L14.3421 61.5422M32.3299 52.5174H84.0212M32.3299 52.5174H0.406923M49.4662 43.9204L65.8098 35.721M49.4662 43.9204H99.9327M49.4662 43.9204H0.406923M16.5105 35.721H65.8098M16.5105 35.721L33.2296 27.8924M16.5105 35.721H0.406923M16.5105 35.721L0.406923 43.2614M49.2088 20.4097H96.3279M49.2088 20.4097L64.497 13.2513M49.2088 20.4097H2.08969M49.2088 20.4097L33.2296 27.8924M96.3279 20.4097L110.598 13.2513M96.3279 20.4097L81.4136 27.8924M96.3279 20.4097H143.448M64.497 13.2513H110.598M64.497 13.2513H18.3971M64.497 13.2513L79.1381 6.39558M110.598 13.2513L124.262 6.39558M110.598 13.2513H156.697M106.635 -6.48027H149.926M106.635 -6.48027L119.563 -12.5336M106.635 -6.48027H63.3447M106.635 -6.48027L93.1717 -0.175934M149.926 -6.48027L161.992 -12.5336M149.926 -6.48027L137.361 -0.175934M149.926 -6.48027H193.218M119.563 -12.5336H161.992M119.563 -12.5336H77.1343M119.563 -12.5336L131.986 -18.3507M161.992 -12.5336L173.587 -18.3507M161.992 -12.5336H204.422M155.432 -29.3292H195.47M155.432 -29.3292L166.506 -34.5146M155.432 -29.3292H115.394M155.432 -29.3292L143.933 -23.9454M195.47 -29.3292L205.805 -34.5146M195.47 -29.3292L184.738 -23.9454M195.47 -29.3292H235.507M166.506 -34.5146H205.805M166.506 -34.5146H127.206M166.506 -34.5146L177.18 -39.5124M205.805 -34.5146L215.767 -39.5124M205.805 -34.5146H245.105M197.407 -48.9843H234.646M197.407 -48.9843L206.999 -53.4762M197.407 -48.9843H160.168M197.407 -48.9843L187.473 -44.3325M234.646 -48.9843L243.599 -53.4762M234.646 -48.9843L225.375 -44.3325M234.646 -48.9843H271.886M206.999 -53.4762H243.599M206.999 -53.4762L216.269 -57.8161M206.999 -53.4762H170.4M243.599 -53.4762H280.2M243.599 -53.4762L252.251 -57.8161M26.8897 201.565L51.0073 184.625M26.8897 201.565L1.06256 219.705M26.8897 201.565H99.8005M26.8897 201.565H0.406923M51.0073 184.625L73.5814 168.77M51.0073 184.625H121.506M51.0073 184.625H0.406923M50.5177 139.922H114.653M50.5177 139.922L71.1273 126.762M50.5177 139.922L28.6291 153.899M50.5177 139.922H0.406923M114.653 139.922L133.388 126.762M114.653 139.922L94.7537 153.899M114.653 139.922H178.787M71.1273 126.762H133.388M71.1273 126.762H8.86642M71.1273 126.762L90.5673 114.349M133.388 126.762L151.061 114.349M133.388 126.762H195.65M126.313 91.5241H183.558M126.313 91.5241L142.784 81.0074M126.313 91.5241H69.0691M126.313 91.5241L108.934 102.622M183.558 91.5241L198.531 81.0074M183.558 91.5241L167.757 102.622M183.558 91.5241H240.802M142.784 81.0074H198.531M142.784 81.0074H87.0373M142.784 81.0074L158.415 71.0266M198.531 81.0074L212.741 71.0266M198.531 81.0074H254.278M187.402 52.5174H239.093M187.402 52.5174L200.867 43.9204M187.402 52.5174H135.712M187.402 52.5174L173.269 61.5422M239.093 52.5174L251.333 43.9204M239.093 52.5174L226.244 61.5422M239.093 52.5174H290.784M200.867 43.9204H251.333M200.867 43.9204H150.4M200.867 43.9204L213.708 35.721M251.333 43.9204L263.007 35.721M251.333 43.9204H301.8M237.687 20.4097H284.806M237.687 20.4097L248.898 13.2513M237.687 20.4097H190.567M237.687 20.4097L225.968 27.8924M284.806 20.4097L294.999 13.2513M284.806 20.4097L274.153 27.8924M284.806 20.4097H331.925M248.898 13.2513H294.999M248.898 13.2513H202.798M248.898 13.2513L259.634 6.39558M294.999 13.2513L304.759 6.39558M294.999 13.2513H341.098M279.799 -6.48027H323.09M279.799 -6.48027L289.28 -12.5336M279.799 -6.48027H236.509M279.799 -6.48027L269.926 -0.175934M323.09 -6.48027L324.187 -7.25017L331.709 -12.5336M323.09 -6.48027L314.115 -0.175934M323.09 -6.48027H366.382M289.28 -12.5336H331.709M289.28 -12.5336H246.851M289.28 -12.5336L298.39 -18.3507M331.709 -12.5336L339.991 -18.3507M331.709 -12.5336H374.138M315.583 -29.3292H355.621M315.583 -29.3292L323.705 -34.5146M315.583 -29.3292H275.545M315.583 -29.3292L307.151 -23.9454M355.621 -29.3292L363.004 -34.5146M355.621 -29.3292L352.781 -27.3338L347.955 -23.9454M355.621 -29.3292H395.659M323.705 -34.5146H363.004M323.705 -34.5146H284.405M323.705 -34.5146L331.531 -39.5124M363.004 -34.5146L370.119 -39.5124M363.004 -34.5146H402.304M346.365 -48.9843H383.604M346.365 -48.9843L353.4 -53.4762M346.365 -48.9843H309.126M346.365 -48.9843L339.08 -44.3325M383.604 -48.9843L388.422 -52.3674L389.212 -52.9233L390 -53.4762M383.604 -48.9843L376.982 -44.3325M383.604 -48.9843H420.844M353.4 -53.4762H390M353.4 -53.4762L360.197 -57.8161M353.4 -53.4762H316.8M390 -53.4762H426.6M390 -53.4762L396.179 -57.8161M53.3063 394.534H153.692M53.3063 394.534L84.9153 362.818M53.3063 394.534L18.5726 429.386M53.3063 394.534L0.406923 394.535M153.692 394.534L180.785 362.818M153.692 394.534L123.92 429.386M153.692 394.534H254.076M84.9153 362.818H180.785M84.9153 362.818L113.803 333.832M84.9153 362.818H0.406923M180.785 362.818L205.546 333.832M180.785 362.818H276.654M164.709 282.754H249.18M164.709 282.754L187.251 260.135M164.709 282.754H80.2393M164.709 282.754L140.307 307.239M249.18 282.754L268.501 260.135M249.18 282.754L228.263 307.239M249.18 282.754H333.649M187.251 260.135H268.501M187.251 260.135H106.001M187.251 260.135L208.138 239.178M268.501 260.135L286.404 239.178M268.501 260.135H349.751M245.623 201.565H318.534M245.623 201.565L262.506 184.625M245.623 201.565H172.711M245.623 201.565L227.544 219.705M318.534 201.565L333.005 184.625M318.534 201.565L303.038 219.705M318.534 201.565H391.444M262.506 184.625H333.005M262.506 184.625H192.006M262.506 184.625L278.307 168.77M333.005 184.625L346.549 168.77M333.005 184.625H403.504M307.057 139.922H371.191M307.057 139.922L320.172 126.762M307.057 139.922H242.922M307.057 139.922L293.128 153.899M371.191 139.922L382.433 126.762M371.191 139.922L359.252 153.899M371.191 139.922H435.326M320.172 126.762H382.433M320.172 126.762H257.911M320.172 126.762L332.543 114.349M382.433 126.762L393.037 114.349M382.433 126.762H444.694M355.29 91.5241H412.535M355.29 91.5241L365.772 81.0074M355.29 91.5241H298.046M355.29 91.5241L344.23 102.622M412.535 91.5241L421.519 81.0074M412.535 91.5241L403.055 102.622M412.535 91.5241H469.779M365.772 81.0074H421.519M365.772 81.0074H310.025M365.772 81.0074L375.719 71.0266M421.519 81.0074L430.044 71.0266M421.519 81.0074H477.266M394.165 52.5174H445.856M394.165 52.5174L402.733 43.9204M394.165 52.5174H342.474M394.165 52.5174L385.171 61.5422M445.856 52.5174L453.2 43.9204M445.856 52.5174L438.146 61.5422M445.856 52.5174H497.546M402.733 43.9204H453.2M402.733 43.9204H352.266M402.733 43.9204L410.905 35.721M453.2 43.9204L460.204 35.721M453.2 43.9204H503.667M426.164 20.4097H473.284M426.164 20.4097L433.299 13.2513M426.164 20.4097H379.045M426.164 20.4097L418.707 27.8924M473.284 20.4097L479.399 13.2513M473.284 20.4097L466.892 27.8924M473.284 20.4097H520.403M433.299 13.2513H479.399M433.299 13.2513H387.198M433.299 13.2513L440.131 6.39558M479.399 13.2513L485.255 6.39558M479.399 13.2513H525.499M452.963 -6.48027H496.255M452.963 -6.48027L458.996 -12.5336M452.963 -6.48027H409.672M452.963 -6.48027L446.68 -0.175934M496.255 -6.48027L495.593 -5.7065L490.869 -0.175934M496.255 -6.48027L501.425 -12.5336M496.255 -6.48027H539.545M458.996 -12.5336H501.425M458.996 -12.5336H416.567M458.996 -12.5336L464.794 -18.3507M501.425 -12.5336L506.395 -18.3507M501.425 -12.5336H543.855M475.735 -29.3292H515.773M475.735 -29.3292L480.903 -34.5146M475.735 -29.3292H435.697M475.735 -29.3292L470.369 -23.9454M515.773 -29.3292L520.202 -34.5146M515.773 -29.3292L514.069 -27.3338L512.919 -25.9879L511.174 -23.9454M515.773 -29.3292H555.81M480.903 -34.5146H520.202M480.903 -34.5146H441.603M480.903 -34.5146L485.883 -39.5124M520.202 -34.5146L521.822 -36.4104L522.889 -37.6598L524.472 -39.5124M520.202 -34.5146H559.502M495.324 -48.9843H532.562M495.324 -48.9843L498.695 -52.3674L499.8 -53.4762M495.324 -48.9843H458.084M495.324 -48.9843L491.276 -44.9232L490.688 -44.3325M532.562 -48.9843L535.453 -52.3674L535.927 -52.9233L536.4 -53.4762M532.562 -48.9843L530.593 -46.6792L528.589 -44.3325M532.562 -48.9843H569.802M499.8 -53.4762H536.4M499.8 -53.4762L504.125 -57.8161M499.8 -53.4762H463.2M536.4 -53.4762H573M536.4 -53.4762L540.107 -57.8161M454.846 394.534H555.23M454.846 394.534L468.392 362.818M454.846 394.534H354.461M454.846 394.534L439.96 429.386M555.23 394.534L564.262 362.818M555.23 394.534L545.307 429.386M555.23 394.534H655.616M468.392 362.818H564.262M468.392 362.818H372.523M468.392 362.818L480.773 333.832M564.262 362.818L572.515 333.832M564.262 362.818H660.131M502.59 282.754H587.06M502.59 282.754L512.25 260.135M502.59 282.754H418.119M502.59 282.754L492.131 307.239M587.06 282.754L593.5 260.135M587.06 282.754L580.088 307.239M587.06 282.754H671.53M512.25 260.135H593.5M512.25 260.135H431.001M512.25 260.135L521.202 239.178M593.5 260.135L599.468 239.178M593.5 260.135H674.75M537.267 201.565H610.178M537.267 201.565L544.502 184.625M537.267 201.565H464.356M537.267 201.565L529.519 219.705M610.178 201.565L615.002 184.625M610.178 201.565L605.013 219.705M610.178 201.565H683.089M544.502 184.625H615.002M544.502 184.625H474.003M544.502 184.625L551.274 168.77M615.002 184.625L619.516 168.77M615.002 184.625H685.501M563.596 139.922H627.73M563.596 139.922L569.217 126.762M563.596 139.922H499.461M563.596 139.922L557.626 153.899M627.73 139.922L631.478 126.762M627.73 139.922L623.751 153.899M627.73 139.922H691.865M569.217 126.762H631.478M569.217 126.762H506.956M569.217 126.762L574.518 114.349M631.478 126.762L635.012 114.349M631.478 126.762H693.739M584.267 91.5241H641.512M584.267 91.5241L588.759 81.0074M584.267 91.5241H527.023M584.267 91.5241L579.527 102.622M641.512 91.5241L644.506 81.0074M641.512 91.5241L638.352 102.622M641.512 91.5241H698.756M588.759 81.0074H644.506M588.759 81.0074H533.013M588.759 81.0074L593.023 71.0266M644.506 81.0074L647.348 71.0266M644.506 81.0074H700.253M600.928 52.5174H652.618M600.928 52.5174L604.6 43.9204M600.928 52.5174H549.237M600.928 52.5174L597.074 61.5422M652.618 52.5174L655.067 43.9204M652.618 52.5174L650.049 61.5422M652.618 52.5174H704.31M604.6 43.9204H655.067M604.6 43.9204H554.133M604.6 43.9204L605.933 40.8007L608.102 35.721M655.067 43.9204L657.401 35.721M655.067 43.9204H705.534M614.642 20.4097H661.761M614.642 20.4097L617.7 13.2513M614.642 20.4097H567.522M614.642 20.4097L612.259 25.9904L611.446 27.8924M661.761 20.4097L662.536 17.6884L663.8 13.2513M661.761 20.4097L659.63 27.8924M661.761 20.4097H708.881M617.7 13.2513L618.072 12.3779L620.628 6.39558M617.7 13.2513H663.8M617.7 13.2513H571.599M663.8 13.2513L664.542 10.6458L664.786 9.78635L665.03 8.9323L665.752 6.39558M663.8 13.2513H709.9M626.127 -6.48027H669.418M626.127 -6.48027L627.433 -9.53746L627.755 -10.2919L628.076 -11.0433L628.395 -11.79L628.713 -12.5336M626.127 -6.48027H582.836M626.127 -6.48027L623.434 -0.175934M669.418 -6.48027L670.717 -11.0433L670.93 -11.79L671.141 -12.5336M669.418 -6.48027L667.623 -0.175934M669.418 -6.48027H712.709M628.713 -12.5336H671.141M628.713 -12.5336H586.284M628.713 -12.5336L630.277 -16.1962L630.585 -16.9182L631.197 -18.3507M671.141 -12.5336L672.184 -16.1962L672.391 -16.9182L672.594 -17.6364L672.798 -18.3507M671.141 -12.5336H713.571M635.887 -29.3292H675.925M635.887 -29.3292L638.102 -34.5146M635.887 -29.3292H595.848M635.887 -29.3292L635.319 -28.0026L634.459 -25.9879L633.587 -23.9454M675.925 -29.3292L675.736 -28.6674L674.586 -24.6295L674.391 -23.9454M675.925 -29.3292L677.401 -34.5146M675.925 -29.3292H715.962M638.102 -34.5146H677.401M638.102 -34.5146H598.802M638.102 -34.5146L640.236 -39.5124M677.401 -34.5146L677.941 -36.4104L678.119 -37.0367L678.297 -37.6598L678.824 -39.5124M677.401 -34.5146H716.701M644.282 -48.9843H681.521M644.282 -48.9843L645.727 -52.3674L646.2 -53.4762M644.282 -48.9843H607.042M644.282 -48.9843L643.544 -47.2592L643.297 -46.6792L643.048 -46.0962L642.294 -44.3325M681.521 -48.9843L681.684 -49.5542L682.005 -50.687L682.326 -51.8098L682.8 -53.4762M681.521 -48.9843L680.864 -46.6792L680.699 -46.0962L680.364 -44.9232L680.197 -44.3325M681.521 -48.9843H718.76M646.2 -53.4762H682.8M646.2 -53.4762L647.825 -57.2817L648.054 -57.8161M646.2 -53.4762H609.6M682.8 -53.4762L682.957 -54.0268L683.113 -54.5751L683.269 -55.1211L683.423 -55.6647L683.883 -57.2817L684.036 -57.8161M682.8 -53.4762H719.4M856.385 394.534H956.77M856.385 394.534L851.869 362.818M856.385 394.534H756M856.385 394.534L861.347 429.386M956.77 394.534L947.739 362.818M956.77 394.534L966.693 429.386M956.77 394.534H1057.15M851.869 362.818H947.739M851.869 362.818H756M851.869 362.818L847.742 333.832M947.739 362.818L939.485 333.832M947.739 362.818H1043.61M840.47 282.754H924.94M840.47 282.754L837.25 260.135M840.47 282.754H756M840.47 282.754L843.957 307.239M924.94 282.754L918.5 260.135M924.94 282.754L931.912 307.239M924.94 282.754H1009.41M837.25 260.135H918.5M837.25 260.135H756M837.25 260.135L834.266 239.178M918.5 260.135L912.532 239.178M918.5 260.135H999.75M828.911 201.565H901.822M828.911 201.565L826.499 184.625M828.911 201.565H756M828.911 201.565L831.494 219.705M901.822 201.565L896.998 184.625M901.822 201.565L906.987 219.705M901.822 201.565H974.733M826.499 184.625H896.998M826.499 184.625H756M826.499 184.625L824.242 168.77M896.998 184.625L892.484 168.77M896.998 184.625H967.498M820.135 139.922H884.27M820.135 139.922L818.261 126.762M820.135 139.922H756M820.135 139.922L822.125 153.899M884.27 139.922L880.523 126.762M884.27 139.922L888.249 153.899M884.27 139.922H948.404M818.261 126.762H880.523M818.261 126.762H756M818.261 126.762L816.494 114.349M880.523 126.762L876.988 114.349M880.523 126.762H942.783M813.244 91.5241H870.488M813.244 91.5241L811.747 81.0074M813.244 91.5241H756M813.244 91.5241L814.825 102.622M870.488 91.5241L867.494 81.0074M870.488 91.5241L873.648 102.622M870.488 91.5241H927.733M811.747 81.0074H867.494M811.747 81.0074H756M811.747 81.0074L810.326 71.0266M867.494 81.0074L864.652 71.0266M867.494 81.0074H923.241M807.69 52.5174H859.382M807.69 52.5174L806.467 43.9204M807.69 52.5174H756M807.69 52.5174L808.976 61.5422M859.382 52.5174L856.933 43.9204M859.382 52.5174L861.951 61.5422M859.382 52.5174H911.072M806.467 43.9204H856.933M806.467 43.9204H756M806.467 43.9204L805.299 35.721M856.933 43.9204L854.599 35.721M856.933 43.9204H907.4M803.119 20.4097H850.239M803.119 20.4097L802.1 13.2513M803.119 20.4097H756M803.119 20.4097L804.185 27.8924M850.239 20.4097L848.45 14.1293L848.2 13.2513M850.239 20.4097L852.37 27.8924M850.239 20.4097H897.358M802.1 13.2513L801.976 12.3779L801.124 6.39558M802.1 13.2513H848.2M802.1 13.2513H756M848.2 13.2513L847.458 10.6458L847.214 9.78635L846.97 8.9323L846.249 6.39558M848.2 13.2513H894.3M799.291 -6.48027H842.582M799.291 -6.48027L798.429 -12.5336M799.291 -6.48027H756M799.291 -6.48027L799.623 -4.14664L799.736 -3.36053L799.847 -2.57057L800.074 -0.978264L800.189 -0.175934M842.582 -6.48027L841.283 -11.0433L840.858 -12.5336M842.582 -6.48027L844.377 -0.175934M842.582 -6.48027H885.873M798.429 -12.5336H840.858M798.429 -12.5336H756M798.429 -12.5336L797.601 -18.3507M840.858 -12.5336L839.816 -16.1962L839.61 -16.9182L839.406 -17.6364L839.202 -18.3507M840.858 -12.5336H883.288M796.038 -29.3292H836.076M796.038 -29.3292L795.3 -34.5146M796.038 -29.3292H756M796.038 -29.3292L796.804 -23.9454M836.076 -29.3292L836.265 -28.6674L837.414 -24.6295L837.609 -23.9454M836.076 -29.3292L834.599 -34.5146M836.076 -29.3292H876.113M795.3 -34.5146H834.599M795.3 -34.5146H756M795.3 -34.5146L794.588 -39.5124M834.599 -34.5146L834.059 -36.4104L833.881 -37.0367L833.703 -37.6598L833.176 -39.5124M834.599 -34.5146H873.898M793.24 -48.9843H830.479M793.24 -48.9843L792.6 -53.4762M793.24 -48.9843H756M793.24 -48.9843L793.902 -44.3325M830.479 -48.9843L830.317 -49.5542L829.994 -50.687L829.834 -51.25L829.515 -52.3674L829.358 -52.9233L829.2 -53.4762M830.479 -48.9843L831.136 -46.6792L831.301 -46.0962L831.636 -44.9232L831.803 -44.3325M830.479 -48.9843H867.718M792.6 -53.4762L792.522 -54.0268L792.443 -54.5751L792.366 -55.1211L791.982 -57.8161M792.6 -53.4762H829.2M792.6 -53.4762H756M829.2 -53.4762H865.8M829.2 -53.4762L828.887 -54.5751L828.731 -55.1211L828.577 -55.6647L828.117 -57.2817L827.964 -57.8161M1257.92 394.534H1358.31M1257.92 394.534L1235.35 362.818M1257.92 394.534H1157.54M1257.92 394.534L1282.73 429.386M1358.31 394.534L1331.21 362.818M1358.31 394.534L1388.08 429.386M1358.31 394.534H1458.69M1235.35 362.818H1331.21M1235.35 362.818H1139.48M1235.35 362.818L1214.71 333.832M1331.21 362.818L1306.45 333.832M1331.21 362.818H1427.08M1178.35 282.754H1262.82M1178.35 282.754L1162.25 260.135M1178.35 282.754H1093.88M1178.35 282.754L1195.78 307.239M1262.82 282.754L1243.5 260.135M1262.82 282.754L1283.74 307.239M1262.82 282.754H1347.29M1162.25 260.135H1243.5M1162.25 260.135H1081M1162.25 260.135L1147.33 239.178M1243.5 260.135L1225.6 239.178M1243.5 260.135H1324.75M1120.56 201.565H1193.47M1120.56 201.565L1108.5 184.625M1120.56 201.565H1047.64M1120.56 201.565L1133.47 219.705M1193.47 201.565L1179 184.625M1193.47 201.565L1208.96 219.705M1193.47 201.565H1266.38M1108.5 184.625H1179M1108.5 184.625H1038M1108.5 184.625L1097.21 168.77M1179 184.625L1165.45 168.77M1179 184.625H1249.49M1076.67 139.922H1140.81M1076.67 139.922L1067.31 126.762M1076.67 139.922H1012.54M1076.67 139.922L1086.62 153.899M1140.81 139.922L1129.57 126.762M1140.81 139.922L1152.75 153.899M1140.81 139.922H1204.94M1067.31 126.762H1129.57M1067.31 126.762H1005.04M1067.31 126.762L1058.47 114.349M1129.57 126.762L1118.96 114.349M1129.57 126.762H1191.83M1042.22 91.5241H1099.47M1042.22 91.5241L1034.73 81.0074M1042.22 91.5241H984.977M1042.22 91.5241L1050.12 102.622M1099.47 91.5241L1090.48 81.0074M1099.47 91.5241L1108.95 102.622M1099.47 91.5241H1156.71M1034.73 81.0074H1090.48M1034.73 81.0074H978.987M1034.73 81.0074L1027.63 71.0266M1090.48 81.0074L1081.96 71.0266M1090.48 81.0074H1146.23M1014.45 52.5174H1066.14M1014.45 52.5174L1008.33 43.9204M1014.45 52.5174H962.763M1014.45 52.5174L1020.88 61.5422M1066.14 52.5174L1058.8 43.9204M1066.14 52.5174L1073.85 61.5422M1066.14 52.5174H1117.83M1008.33 43.9204H1058.8M1008.33 43.9204H957.867M1008.33 43.9204L1002.5 35.721M1058.8 43.9204L1051.8 35.721M1058.8 43.9204H1109.27M991.597 20.4097L992.25 21.327L992.907 22.2491L996.923 27.8924M991.597 20.4097H1038.72M991.597 20.4097L986.501 13.2513M991.597 20.4097H944.478M1038.72 20.4097L1032.6 13.2513M1038.72 20.4097L1045.11 27.8924M1038.72 20.4097H1085.84M986.501 13.2513H1032.6M986.501 13.2513H940.401M986.501 13.2513L981.621 6.39558M1032.6 13.2513L1026.74 6.39558M1032.6 13.2513H1078.7M972.455 -6.48027H1015.75M972.455 -6.48027L968.145 -12.5336M972.455 -6.48027H929.164M972.455 -6.48027L976.943 -0.175934M1015.75 -6.48027L1012.49 -10.2919L1010.58 -12.5336M1015.75 -6.48027L1021.13 -0.175934M1015.75 -6.48027H1059.04M968.145 -12.5336H1010.58M968.145 -12.5336H925.716M968.145 -12.5336L964.514 -17.6364L964.005 -18.3507M1010.58 -12.5336L1005.61 -18.3507M1010.58 -12.5336H1053M956.19 -29.3292H996.227M956.19 -29.3292L955.254 -30.6443L952.498 -34.5146M956.19 -29.3292H916.152M956.19 -29.3292L957.134 -28.0026L959.051 -25.3106L960.022 -23.9454M996.227 -29.3292L991.798 -34.5146M996.227 -29.3292L997.932 -27.3338L999.081 -25.9879L1000.83 -23.9454M996.227 -29.3292H1036.27M952.498 -34.5146H991.798M952.498 -34.5146H913.198M952.498 -34.5146L949.818 -38.2807L948.94 -39.5124M991.798 -34.5146L990.178 -36.4104L989.111 -37.6598L987.528 -39.5124M991.798 -34.5146H1031.1M942.198 -48.9843H979.438M942.198 -48.9843L940.186 -51.8098L939 -53.4762M942.198 -48.9843H904.958M942.198 -48.9843L945.509 -44.3325M979.438 -48.9843L976.547 -52.3674L976.073 -52.9233L975.6 -53.4762M979.438 -48.9843L981.407 -46.6792L983.411 -44.3325M979.438 -48.9843H1016.68M939 -53.4762H975.6M939 -53.4762L937.442 -55.6647L936.673 -56.745L936.291 -57.2817L935.911 -57.8161M939 -53.4762H902.4M975.6 -53.4762H1012.2M975.6 -53.4762L971.893 -57.8161M1487.25 260.135H1406M1487.25 260.135L1460.4 239.178M1487.25 260.135H1511.59M1487.25 260.135L1511.59 279.134M1412.2 201.565H1485.11M1412.2 201.565L1390.49 184.625M1412.2 201.565H1339.29M1412.2 201.565L1435.44 219.705M1485.11 201.565L1460.99 184.625M1485.11 201.565L1510.94 219.705M1485.11 201.565H1511.59M1390.49 184.625H1460.99M1390.49 184.625H1319.99M1390.49 184.625L1370.18 168.77M1460.99 184.625L1438.42 168.77M1460.99 184.625H1511.59M1333.21 139.922H1397.35M1333.21 139.922L1316.35 126.762M1333.21 139.922H1269.08M1333.21 139.922L1351.12 153.899M1397.35 139.922L1378.61 126.762M1397.35 139.922L1417.25 153.899M1397.35 139.922H1461.48M1316.35 126.762H1378.61M1316.35 126.762H1254.09M1316.35 126.762L1300.44 114.349M1378.61 126.762L1360.94 114.349M1378.61 126.762H1440.87M1271.2 91.5241H1328.44M1271.2 91.5241L1257.72 81.0074M1271.2 91.5241H1213.95M1271.2 91.5241L1285.42 102.622M1328.44 91.5241L1313.47 81.0074M1328.44 91.5241L1344.24 102.622M1328.44 91.5241H1385.69M1257.72 81.0074H1313.47M1257.72 81.0074H1201.98M1257.72 81.0074L1244.93 71.0266M1313.47 81.0074L1299.26 71.0266M1313.47 81.0074H1369.22M1221.22 52.5174H1272.91M1221.22 52.5174L1210.2 43.9204M1221.22 52.5174H1169.53M1221.22 52.5174L1232.78 61.5422M1272.91 52.5174L1260.67 43.9204M1272.91 52.5174L1285.76 61.5422M1272.91 52.5174H1324.6M1210.2 43.9204H1260.67M1210.2 43.9204H1159.73M1210.2 43.9204L1199.69 35.721M1260.67 43.9204L1248.99 35.721M1260.67 43.9204H1311.13M1180.08 20.4097H1227.19M1180.08 20.4097L1170.9 13.2513M1180.08 20.4097H1132.96M1180.08 20.4097L1189.66 27.8924M1227.19 20.4097L1217 13.2513M1227.19 20.4097L1237.85 27.8924M1227.19 20.4097H1274.31M1170.9 13.2513H1217M1170.9 13.2513H1124.8M1170.9 13.2513L1162.12 6.39558M1217 13.2513L1207.24 6.39558M1217 13.2513H1263.1M1145.62 -6.48027H1188.91M1145.62 -6.48027L1137.86 -12.5336M1145.62 -6.48027H1102.33M1145.62 -6.48027L1153.7 -0.175934M1188.91 -6.48027L1180.29 -12.5336M1188.91 -6.48027L1197.89 -0.175934M1188.91 -6.48027H1232.2M1137.86 -12.5336H1180.29M1137.86 -12.5336H1095.43M1137.86 -12.5336L1130.41 -18.3507M1180.29 -12.5336L1172.01 -18.3507M1180.29 -12.5336H1222.72M1116.34 -29.3292H1156.38M1116.34 -29.3292L1109.7 -34.5146M1116.34 -29.3292H1076.3M1116.34 -29.3292L1118.04 -28.0026L1118.9 -27.3338L1123.24 -23.9454M1156.38 -29.3292L1149 -34.5146M1156.38 -29.3292L1164.04 -23.9454M1156.38 -29.3292H1196.42M1109.7 -34.5146H1149M1109.7 -34.5146H1070.4M1109.7 -34.5146L1103.29 -39.5124M1149 -34.5146L1141.88 -39.5124M1149 -34.5146H1188.3M1091.16 -48.9843H1128.4M1091.16 -48.9843L1085.4 -53.4762M1091.16 -48.9843H1053.92M1091.16 -48.9843L1097.12 -44.3325M1128.4 -48.9843L1123.58 -52.3674L1122.79 -52.9233L1122 -53.4762M1128.4 -48.9843L1135.02 -44.3325M1128.4 -48.9843H1165.63M1085.4 -53.4762H1122M1085.4 -53.4762L1080.52 -57.2817L1079.84 -57.8161M1085.4 -53.4762H1048.8M1122 -53.4762H1158.6M1122 -53.4762L1115.82 -57.8161M1500.18 91.5241L1480.71 81.0074M1500.18 91.5241H1442.93M1500.18 91.5241L1511.59 97.6933M1500.18 91.5241H1511.59M1480.71 81.0074H1424.96M1480.71 81.0074L1462.24 71.0266M1480.71 81.0074H1511.59M1427.98 52.5174H1479.67M1427.98 52.5174L1412.07 43.9204M1427.98 52.5174H1376.29M1427.98 52.5174L1444.68 61.5422M1479.67 52.5174L1462.53 43.9204M1479.67 52.5174L1497.66 61.5422M1479.67 52.5174H1511.59M1412.07 43.9204H1462.53M1412.07 43.9204H1361.6M1412.07 43.9204L1396.89 35.721M1462.53 43.9204L1446.19 35.721M1462.53 43.9204H1511.59M1368.55 20.4097H1415.67M1368.55 20.4097L1355.3 13.2513M1368.55 20.4097H1321.43M1368.55 20.4097L1382.4 27.8924M1415.67 20.4097L1401.4 13.2513M1415.67 20.4097L1430.59 27.8924M1415.67 20.4097H1462.79M1355.3 13.2513H1401.4M1355.3 13.2513H1309.2M1355.3 13.2513L1342.61 6.39558M1401.4 13.2513L1387.74 6.39558M1401.4 13.2513H1447.5M1318.78 -6.48027H1362.07M1318.78 -6.48027L1307.58 -12.5336M1318.78 -6.48027H1275.49M1318.78 -6.48027L1330.45 -0.175934M1362.07 -6.48027L1350.01 -12.5336M1362.07 -6.48027L1374.64 -0.175934M1362.07 -6.48027H1405.36M1307.58 -12.5336H1350.01M1307.58 -12.5336H1265.15M1307.58 -12.5336L1296.81 -18.3507M1350.01 -12.5336L1338.41 -18.3507M1350.01 -12.5336H1392.44M1276.49 -29.3292H1316.53M1276.49 -29.3292L1266.9 -34.5146M1276.49 -29.3292H1236.45M1276.49 -29.3292L1286.46 -23.9454M1316.53 -29.3292L1306.19 -34.5146M1316.53 -29.3292L1327.26 -23.9454M1316.53 -29.3292H1356.57M1266.9 -34.5146H1306.19M1266.9 -34.5146H1227.59M1266.9 -34.5146L1257.64 -39.5124M1306.19 -34.5146L1296.23 -39.5124M1306.19 -34.5146H1345.49M1240.11 -48.9843H1277.35M1240.11 -48.9843L1231.8 -53.4762M1240.11 -48.9843H1202.87M1240.11 -48.9843L1248.72 -44.3325M1277.35 -48.9843L1268.4 -53.4762M1277.35 -48.9843L1286.63 -44.3325M1277.35 -48.9843H1314.59M1231.8 -53.4762H1268.4M1231.8 -53.4762L1223.77 -57.8161M1231.8 -53.4762H1195.2M1268.4 -53.4762H1305M1268.4 -53.4762L1259.75 -57.8161M1491.95 -6.48027L1477.29 -12.5336M1491.95 -6.48027H1448.66M1491.95 -6.48027L1507.21 -0.175934M1491.95 -6.48027H1511.59M1477.29 -12.5336H1434.87M1477.29 -12.5336L1463.22 -18.3507M1477.29 -12.5336H1511.59M1436.64 -29.3292H1476.68M1436.64 -29.3292L1424.09 -34.5146M1436.64 -29.3292H1396.61M1436.64 -29.3292L1449.68 -23.9454M1476.68 -29.3292L1463.39 -34.5146M1476.68 -29.3292L1490.48 -23.9454M1476.68 -29.3292H1511.59M1424.09 -34.5146H1463.39M1424.09 -34.5146H1384.79M1424.09 -34.5146L1412 -39.5124M1463.39 -34.5146L1450.58 -39.5124M1463.39 -34.5146H1502.69M1389.07 -48.9843H1426.31M1389.07 -48.9843L1378.2 -53.4762M1389.07 -48.9843H1351.83M1389.07 -48.9843L1400.33 -44.3325M1426.31 -48.9843L1414.8 -53.4762M1426.31 -48.9843L1438.23 -44.3325M1426.31 -48.9843H1463.55M1378.2 -53.4762H1414.8M1378.2 -53.4762L1367.7 -57.8161M1378.2 -53.4762H1341.6M1414.8 -53.4762H1451.4M1414.8 -53.4762L1403.68 -57.8161M1438.23 -44.3325L1450.58 -39.5124M1438.23 -44.3325H1476.13M1438.23 -44.3325H1400.33M1463.55 -48.9843L1451.4 -53.4762M1463.55 -48.9843L1476.13 -44.3325M1463.55 -48.9843H1500.79M1451.4 -53.4762H1488M1451.4 -53.4762L1439.66 -57.8161M1403.68 -57.8161H1367.7M1403.68 -57.8161H1439.66M1403.68 -57.8161L1392.92 -62.0123M1476.13 -44.3325L1489.17 -39.5124M1476.13 -44.3325H1511.59M1500.79 -48.9843L1488 -53.4762M1500.79 -48.9843L1511.59 -45.1908M1500.79 -48.9843H1511.59M1488 -53.4762L1475.64 -57.8161M1488 -53.4762H1511.59M1439.66 -57.8161H1475.64M1439.66 -57.8161L1428.31 -62.0123M1475.64 -57.8161L1463.69 -62.0123M1475.64 -57.8161H1511.59M1450.58 -39.5124H1489.17M1450.58 -39.5124H1412M1502.69 -34.5146L1489.17 -39.5124M1502.69 -34.5146L1511.59 -31.2249M1502.69 -34.5146H1511.59M1489.17 -39.5124H1511.59M1412 -39.5124H1373.41M1412 -39.5124L1400.33 -44.3325M1400.33 -44.3325H1362.43M1490.48 -23.9454L1504.82 -18.3507M1490.48 -23.9454H1449.68M1490.48 -23.9454H1511.59M1511.72 -29.3292H1511.59M1504.82 -18.3507H1463.22M1504.82 -18.3507L1511.59 -15.7066M1504.82 -18.3507H1511.59M1463.22 -18.3507H1421.61M1463.22 -18.3507L1449.68 -23.9454M1449.68 -23.9454H1408.87M1286.63 -44.3325L1296.23 -39.5124M1286.63 -44.3325H1324.53M1286.63 -44.3325H1248.72M1314.59 -48.9843L1305 -53.4762M1314.59 -48.9843L1324.53 -44.3325M1314.59 -48.9843H1351.83M1305 -53.4762H1341.6M1305 -53.4762L1295.73 -57.8161M1259.75 -57.8161H1295.73M1259.75 -57.8161L1251.39 -62.0123M1259.75 -57.8161H1223.77M1324.53 -44.3325L1334.82 -39.5124M1324.53 -44.3325H1362.43M1351.83 -48.9843L1341.6 -53.4762M1351.83 -48.9843L1362.43 -44.3325M1341.6 -53.4762L1331.71 -57.8161M1295.73 -57.8161H1331.71M1295.73 -57.8161L1286.77 -62.0123M1362.43 -44.3325L1373.41 -39.5124M1367.7 -57.8161H1331.71M1367.7 -57.8161L1357.54 -62.0123M1331.71 -57.8161L1322.15 -62.0123M1296.23 -39.5124H1334.82M1296.23 -39.5124H1257.64M1345.49 -34.5146L1334.82 -39.5124M1345.49 -34.5146L1356.57 -29.3292M1345.49 -34.5146H1384.79M1334.82 -39.5124H1373.41M1257.64 -39.5124H1219.06M1257.64 -39.5124L1248.72 -44.3325M1373.41 -39.5124L1384.79 -34.5146M1248.72 -44.3325H1210.82M1356.57 -29.3292L1368.07 -23.9454M1356.57 -29.3292H1396.61M1384.79 -34.5146L1396.61 -29.3292M1396.61 -29.3292L1408.87 -23.9454M1327.26 -23.9454L1338.41 -18.3507M1327.26 -23.9454H1368.07M1327.26 -23.9454H1286.46M1368.07 -23.9454L1380.01 -18.3507M1368.07 -23.9454H1408.87M1408.87 -23.9454L1421.61 -18.3507M1338.41 -18.3507H1380.01M1338.41 -18.3507H1296.81M1392.44 -12.5336L1380.01 -18.3507M1392.44 -12.5336L1405.36 -6.48027M1392.44 -12.5336H1434.87M1380.01 -18.3507H1421.61M1296.81 -18.3507H1255.21M1296.81 -18.3507L1286.46 -23.9454M1421.61 -18.3507L1434.87 -12.5336M1286.46 -23.9454H1245.65M1405.36 -6.48027L1418.83 -0.175934M1405.36 -6.48027H1448.66M1434.87 -12.5336L1448.66 -6.48027M1448.66 -6.48027L1463.02 -0.175934M1374.64 -0.175934L1387.74 6.39558M1374.64 -0.175934H1418.83M1374.64 -0.175934H1330.45M1418.83 -0.175934L1432.86 6.39558M1418.83 -0.175934H1463.02M1463.02 -0.175934L1477.99 6.39558M1463.02 -0.175934H1507.21M1507.21 -0.175934H1511.59M1507.21 -0.175934L1511.59 1.63667M1387.74 6.39558H1432.86M1387.74 6.39558H1342.61M1447.5 13.2513L1432.86 6.39558M1447.5 13.2513L1462.79 20.4097M1447.5 13.2513H1493.6M1432.86 6.39558H1477.99M1342.61 6.39558H1297.49M1342.61 6.39558L1330.45 -0.175934M1477.99 6.39558L1493.6 13.2513M1477.99 6.39558H1511.59M1330.45 -0.175934H1286.26M1462.79 20.4097L1478.77 27.8924M1462.79 20.4097H1509.91M1493.6 13.2513L1509.91 20.4097M1493.6 13.2513H1511.59M1511.83 6.39558H1511.59M1509.91 20.4097L1511.59 21.1484M1509.91 20.4097H1511.59M1430.59 27.8924L1446.19 35.721M1430.59 27.8924H1478.77M1430.59 27.8924H1382.4M1478.77 27.8924L1495.49 35.721M1478.77 27.8924H1511.59M1512 21.327L1511.59 21.1484M1446.19 35.721H1495.49M1446.19 35.721H1396.89M1495.49 35.721H1511.59M1495.49 35.721L1511.59 43.2614M1396.89 35.721H1347.59M1396.89 35.721L1382.4 27.8924M1382.4 27.8924H1334.22M1497.66 61.5422H1444.68M1497.66 61.5422L1511.59 68.5333M1497.66 61.5422H1511.59M1511.98 52.5174H1511.59M1444.68 61.5422H1391.71M1444.68 61.5422L1462.24 71.0266M1511.75 68.6103L1511.59 68.5333M1135.02 -44.3325L1141.88 -39.5124M1135.02 -44.3325H1172.92M1135.02 -44.3325H1097.12M1165.63 -48.9843L1158.6 -53.4762M1165.63 -48.9843L1172.92 -44.3325M1165.63 -48.9843H1202.87M1158.6 -53.4762H1195.2M1158.6 -53.4762L1151.8 -57.8161M1115.82 -57.8161H1151.8M1115.82 -57.8161L1113.56 -59.406L1109.85 -62.0123M1115.82 -57.8161H1079.84M1172.92 -44.3325L1180.47 -39.5124M1172.92 -44.3325H1210.82M1202.87 -48.9843L1195.2 -53.4762M1202.87 -48.9843L1210.82 -44.3325M1195.2 -53.4762L1187.79 -57.8161M1151.8 -57.8161H1187.79M1151.8 -57.8161L1145.23 -62.0123M1210.82 -44.3325L1219.06 -39.5124M1223.77 -57.8161L1216 -62.0123M1223.77 -57.8161H1187.79M1187.79 -57.8161L1186.88 -58.3489L1185.07 -59.406L1180.62 -62.0123M1141.88 -39.5124H1180.47M1141.88 -39.5124H1103.29M1188.3 -34.5146L1180.47 -39.5124M1188.3 -34.5146L1196.42 -29.3292M1188.3 -34.5146H1227.59M1180.47 -39.5124H1219.06M1103.29 -39.5124H1064.7M1103.29 -39.5124L1097.12 -44.3325M1219.06 -39.5124L1227.59 -34.5146M1097.12 -44.3325H1059.21M1196.42 -29.3292L1204.85 -23.9454M1196.42 -29.3292H1236.45M1227.59 -34.5146L1228.68 -33.8775L1236.45 -29.3292M1236.45 -29.3292L1245.65 -23.9454M1164.04 -23.9454L1165.02 -23.2573L1172.01 -18.3507M1164.04 -23.9454H1204.85M1164.04 -23.9454H1123.24M1204.85 -23.9454L1213.61 -18.3507M1204.85 -23.9454H1245.65M1245.65 -23.9454L1255.21 -18.3507M1172.01 -18.3507H1213.61M1172.01 -18.3507H1130.41M1222.72 -12.5336L1213.61 -18.3507M1222.72 -12.5336L1232.2 -6.48027M1222.72 -12.5336H1265.15M1213.61 -18.3507H1255.21M1130.41 -18.3507H1088.81M1130.41 -18.3507L1123.24 -23.9454M1255.21 -18.3507L1265.15 -12.5336M1123.24 -23.9454H1082.44M1232.2 -6.48027L1242.07 -0.175934M1232.2 -6.48027H1275.49M1265.15 -12.5336L1275.49 -6.48027M1275.49 -6.48027L1286.26 -0.175934M1197.89 -0.175934L1207.24 6.39558M1197.89 -0.175934H1242.07M1197.89 -0.175934H1153.7M1242.07 -0.175934L1252.37 6.39558M1242.07 -0.175934H1286.26M1286.26 -0.175934L1297.49 6.39558M1207.24 6.39558H1252.37M1207.24 6.39558H1162.12M1263.1 13.2513L1252.37 6.39558M1263.1 13.2513L1274.31 20.4097M1263.1 13.2513H1309.2M1252.37 6.39558H1297.49M1162.12 6.39558H1116.99M1162.12 6.39558L1153.7 -0.175934M1297.49 6.39558L1309.2 13.2513M1153.7 -0.175934H1109.51M1274.31 20.4097L1286.03 27.8924M1274.31 20.4097H1321.43M1309.2 13.2513L1321.43 20.4097M1321.43 20.4097L1334.22 27.8924M1237.85 27.8924L1248.99 35.721M1237.85 27.8924H1286.03M1237.85 27.8924H1189.66M1286.03 27.8924L1298.29 35.721M1286.03 27.8924H1334.22M1334.22 27.8924L1347.59 35.721M1248.99 35.721H1298.29M1248.99 35.721H1199.69M1311.13 43.9204L1298.29 35.721M1311.13 43.9204L1324.6 52.5174M1311.13 43.9204H1361.6M1298.29 35.721H1347.59M1199.69 35.721H1150.39M1199.69 35.721L1189.66 27.8924M1347.59 35.721L1361.6 43.9204M1189.66 27.8924H1141.48M1324.6 52.5174L1338.73 61.5422M1324.6 52.5174H1376.29M1361.6 43.9204L1376.29 52.5174M1376.29 52.5174L1391.71 61.5422M1285.76 61.5422L1299.26 71.0266M1285.76 61.5422H1338.73M1285.76 61.5422H1232.78M1338.73 61.5422L1353.59 71.0266M1338.73 61.5422H1391.71M1391.71 61.5422L1407.91 71.0266M1299.26 71.0266H1353.59M1299.26 71.0266H1244.93M1369.22 81.0074L1353.59 71.0266M1369.22 81.0074L1385.69 91.5241M1369.22 81.0074H1424.96M1353.59 71.0266H1407.91M1244.93 71.0266H1190.61M1244.93 71.0266L1232.78 61.5422M1407.91 71.0266L1424.96 81.0074M1407.91 71.0266H1462.24M1232.78 61.5422H1179.8M1385.69 91.5241L1403.07 102.622M1385.69 91.5241H1442.93M1424.96 81.0074L1442.93 91.5241M1462.24 71.0266H1511.59M1442.93 91.5241L1461.89 102.622M1344.24 102.622L1360.94 114.349M1344.24 102.622H1403.07M1344.24 102.622H1285.42M1403.07 102.622L1421.43 114.349M1403.07 102.622H1461.89M1461.89 102.622L1481.93 114.349M1461.89 102.622H1511.59M1360.94 114.349H1421.43M1360.94 114.349H1300.44M1440.87 126.762L1421.43 114.349M1440.87 126.762L1461.48 139.922M1440.87 126.762H1503.13M1421.43 114.349H1481.93M1300.44 114.349H1239.95M1300.44 114.349L1285.42 102.622M1481.93 114.349L1503.13 126.762M1481.93 114.349H1511.59M1285.42 102.622H1226.59M1461.48 139.922L1483.37 153.899M1461.48 139.922H1511.59M1503.13 126.762H1511.59M1503.13 126.762L1511.59 131.714M1417.25 153.899L1438.42 168.77M1417.25 153.899H1483.37M1417.25 153.899H1351.12M1483.37 153.899L1506.66 168.77M1483.37 153.899H1511.59M1438.42 168.77H1506.66M1438.42 168.77H1370.18M1506.66 168.77L1511.59 171.919M1506.66 168.77H1511.59M1370.18 168.77H1301.93M1370.18 168.77L1351.12 153.899M1351.12 153.899H1285M1510.94 219.705H1435.44M1510.94 219.705H1511.59M1510.94 219.705L1511.59 220.165M1435.44 219.705H1359.95M1435.44 219.705L1460.4 239.178M983.411 -44.3325L984.938 -42.5456L985.451 -41.944L987.528 -39.5124M983.411 -44.3325H1021.31M983.411 -44.3325H945.509M1016.68 -48.9843L1013.3 -52.3674L1012.2 -53.4762M1016.68 -48.9843L1020.72 -44.9232L1021.31 -44.3325M1016.68 -48.9843H1053.92M1012.2 -53.4762H1048.8M1012.2 -53.4762L1007.87 -57.8161M971.893 -57.8161H1007.87M971.893 -57.8161L970.534 -59.406L968.308 -62.0123M971.893 -57.8161H935.911M1021.31 -44.3325L1022.5 -43.1441L1026.12 -39.5124M1021.31 -44.3325H1059.21M1053.92 -48.9843L1048.8 -53.4762M1053.92 -48.9843L1059.21 -44.3325M1048.8 -53.4762L1045.08 -56.745L1043.86 -57.8161M1007.87 -57.8161H1043.86M1007.87 -57.8161L1003.69 -62.0123M1059.21 -44.3325L1064.7 -39.5124M1079.84 -57.8161L1079.16 -58.3489L1074.46 -62.0123M1079.84 -57.8161H1043.86M1043.86 -57.8161L1042.05 -59.406L1039.08 -62.0123M987.528 -39.5124H1026.12M987.528 -39.5124H948.94M1031.1 -34.5146L1026.12 -39.5124M1031.1 -34.5146L1036.27 -29.3292M1031.1 -34.5146H1070.4M1026.12 -39.5124H1064.7M948.94 -39.5124H910.352M948.94 -39.5124L945.509 -44.3325M1064.7 -39.5124L1070.4 -34.5146M945.509 -44.3325H907.607M1036.27 -29.3292L1039.59 -25.9879L1040.27 -25.3106L1041.63 -23.9454M1036.27 -29.3292H1076.3M1070.4 -34.5146L1076.3 -29.3292M1076.3 -29.3292L1082.44 -23.9454M1000.83 -23.9454L1005.61 -18.3507M1000.83 -23.9454H1041.63M1000.83 -23.9454H960.022M1041.63 -23.9454L1047.21 -18.3507M1041.63 -23.9454H1082.44M1082.44 -23.9454L1088.81 -18.3507M1005.61 -18.3507H1047.21M1005.61 -18.3507H964.005M1053 -12.5336L1049.35 -16.1962L1048.64 -16.9182L1047.21 -18.3507M1053 -12.5336L1059.04 -6.48027M1053 -12.5336H1095.43M1047.21 -18.3507H1088.81M964.005 -18.3507H922.404M964.005 -18.3507L960.022 -23.9454M1088.81 -18.3507L1095.43 -12.5336M960.022 -23.9454H919.218M1059.04 -6.48027L1065.32 -0.175934M1059.04 -6.48027H1102.33M1095.43 -12.5336L1102.33 -6.48027M1102.33 -6.48027L1109.51 -0.175934M1021.13 -0.175934L1023.91 3.07507L1024.61 3.89902L1026.74 6.39558M1021.13 -0.175934H1065.32M1021.13 -0.175934H976.943M1065.32 -0.175934L1071.87 6.39558M1065.32 -0.175934H1109.51M1109.51 -0.175934L1116.99 6.39558M1026.74 6.39558H1071.87M1026.74 6.39558H981.621M1078.7 13.2513L1071.87 6.39558M1078.7 13.2513L1085.84 20.4097M1078.7 13.2513H1124.8M1071.87 6.39558H1116.99M981.621 6.39558H936.496M981.621 6.39558L980.432 4.72683L976.943 -0.175934M1116.99 6.39558L1124.8 13.2513M976.943 -0.175934H932.755M1085.84 20.4097L1093.29 27.8924M1085.84 20.4097H1132.96M1124.8 13.2513L1132.96 20.4097M1132.96 20.4097L1141.48 27.8924M1045.11 27.8924L1051.8 35.721M1045.11 27.8924H1093.29M1045.11 27.8924H996.923M1093.29 27.8924L1101.1 35.721M1093.29 27.8924H1141.48M1141.48 27.8924L1150.39 35.721M1051.8 35.721H1101.1M1051.8 35.721H1002.5M1109.27 43.9204L1101.1 35.721M1109.27 43.9204L1117.83 52.5174M1109.27 43.9204H1159.73M1101.1 35.721H1150.39M1002.5 35.721H953.197M1002.5 35.721L996.923 27.8924M1150.39 35.721L1159.73 43.9204M996.923 27.8924H948.739M1117.83 52.5174L1126.83 61.5422M1117.83 52.5174H1169.53M1159.73 43.9204L1169.53 52.5174M1169.53 52.5174L1179.8 61.5422M1073.85 61.5422L1081.96 71.0266M1073.85 61.5422H1126.83M1073.85 61.5422H1020.88M1126.83 61.5422L1136.28 71.0266M1126.83 61.5422H1179.8M1179.8 61.5422L1190.61 71.0266M1081.96 71.0266H1136.28M1081.96 71.0266H1027.63M1146.23 81.0074L1136.28 71.0266M1146.23 81.0074L1156.71 91.5241M1146.23 81.0074H1201.98M1136.28 71.0266H1190.61M1027.63 71.0266H973.304M1027.63 71.0266L1020.88 61.5422M1190.61 71.0266L1201.98 81.0074M1020.88 61.5422H967.902M1156.71 91.5241L1167.77 102.622M1156.71 91.5241H1213.95M1201.98 81.0074L1213.95 91.5241M1213.95 91.5241L1226.59 102.622M1108.95 102.622L1118.96 114.349M1108.95 102.622H1167.77M1108.95 102.622H1050.12M1167.77 102.622L1179.46 114.349M1167.77 102.622H1226.59M1226.59 102.622L1239.95 114.349M1118.96 114.349H1179.46M1118.96 114.349H1058.47M1191.83 126.762L1179.46 114.349M1191.83 126.762L1204.94 139.922M1191.83 126.762H1254.09M1179.46 114.349H1239.95M1058.47 114.349H997.976M1058.47 114.349L1050.12 102.622M1239.95 114.349L1254.09 126.762M1050.12 102.622H991.297M1204.94 139.922L1218.87 153.899M1204.94 139.922H1269.08M1254.09 126.762L1269.08 139.922M1269.08 139.922L1285 153.899M1152.75 153.899L1165.45 168.77M1152.75 153.899H1218.87M1152.75 153.899H1086.62M1218.87 153.899L1233.69 168.77M1218.87 153.899H1285M1285 153.899L1301.93 168.77M1165.45 168.77H1233.69M1165.45 168.77H1097.21M1249.49 184.625L1233.69 168.77M1249.49 184.625L1266.38 201.565M1249.49 184.625H1319.99M1233.69 168.77H1301.93M1097.21 168.77H1028.97M1097.21 168.77L1086.62 153.899M1301.93 168.77L1319.99 184.625M1086.62 153.899H1020.5M1266.38 201.565L1284.46 219.705M1266.38 201.565H1339.29M1319.99 184.625L1339.29 201.565M1339.29 201.565L1359.95 219.705M1208.96 219.705L1225.6 239.178M1208.96 219.705H1284.46M1208.96 219.705H1133.47M1284.46 219.705L1303.86 239.178M1284.46 219.705H1359.95M1359.95 219.705L1382.13 239.178M1225.6 239.178H1303.86M1225.6 239.178H1147.33M1324.75 260.135L1303.86 239.178M1324.75 260.135L1347.29 282.754M1324.75 260.135H1406M1303.86 239.178H1382.13M1147.33 239.178H1069.06M1147.33 239.178L1133.47 219.705M1382.13 239.178L1406 260.135M1382.13 239.178H1460.4M1133.47 219.705H1057.98M1347.29 282.754L1371.69 307.239M1347.29 282.754H1431.76M1406 260.135L1431.76 282.754M1460.4 239.178H1511.59M1431.76 282.754L1459.65 307.239M1431.76 282.754H1511.59M1283.74 307.239L1306.45 333.832M1283.74 307.239H1371.69M1283.74 307.239H1195.78M1371.69 307.239L1398.2 333.832M1371.69 307.239H1459.65M1459.65 307.239L1489.94 333.832M1459.65 307.239H1511.59M1306.45 333.832H1398.2M1306.45 333.832H1214.71M1427.08 362.818L1398.2 333.832M1427.08 362.818L1458.69 394.534M1427.08 362.818H1511.59M1398.2 333.832H1489.94M1214.71 333.832H1122.97M1214.71 333.832L1195.78 307.239M1489.94 333.832H1511.59M1489.94 333.832L1511.59 352.844M1195.78 307.239H1107.82M1458.69 394.534L1493.43 429.386M1458.69 394.534H1511.59M1388.08 429.386L1420.95 467.863M1388.08 429.386H1493.43M1388.08 429.386H1282.73M1493.43 429.386L1511.59 447.614M1493.43 429.386H1511.59M1420.95 467.863H1310.12M1420.95 467.863L1511.59 467.863M1310.12 467.863H1199.3M1310.12 467.863L1282.73 429.386M1282.73 429.386H1177.39M831.803 -44.3325L831.973 -43.7394L832.142 -43.1441L832.313 -42.5456L832.483 -41.944L833.002 -40.1247L833.176 -39.5124M831.803 -44.3325H869.706M831.803 -44.3325H793.902M867.718 -48.9843L866.273 -52.3674L865.8 -53.4762M867.718 -48.9843L868.953 -46.0962L869.706 -44.3325M867.718 -48.9843H904.958M865.8 -53.4762H902.4M865.8 -53.4762L864.404 -56.745L863.946 -57.8161M827.964 -57.8161L827.813 -58.3489L827.213 -60.4555L826.769 -62.0123M827.964 -57.8161H863.946M827.964 -57.8161H791.982M869.706 -44.3325L869.958 -43.7394L870.213 -43.1441L870.469 -42.5456L870.726 -41.944L871.764 -39.5124M869.706 -44.3325H907.607M904.958 -48.9843L903.031 -52.3674L902.4 -53.4762M904.958 -48.9843L907.607 -44.3325M902.4 -53.4762L901.153 -55.6647L900.232 -57.2817L899.929 -57.8161M863.946 -57.8161L863.719 -58.3489L863.268 -59.406L862.819 -60.4555L862.597 -60.9767L862.154 -62.0123M863.946 -57.8161H899.929M907.607 -44.3325L909.657 -40.734L910.352 -39.5124M935.911 -57.8161L933.661 -60.9767L932.924 -62.0123M935.911 -57.8161H899.929M899.929 -57.8161L897.833 -61.4956L897.538 -62.0123M833.176 -39.5124H871.764M833.176 -39.5124H794.588M873.898 -34.5146L871.764 -39.5124M873.898 -34.5146L876.113 -29.3292M873.898 -34.5146H913.198M871.764 -39.5124H910.352M794.588 -39.5124H756M794.588 -39.5124L793.902 -44.3325M910.352 -39.5124L913.198 -34.5146M793.902 -44.3325H756M876.113 -29.3292L876.681 -28.0026L877.541 -25.9879L878.413 -23.9454M876.113 -29.3292H916.152M913.198 -34.5146L913.562 -33.8775L916.152 -29.3292M916.152 -29.3292L916.528 -28.6674L916.908 -28.0026L917.288 -27.3338L919.218 -23.9454M837.609 -23.9454L839.202 -18.3507M837.609 -23.9454H878.413M837.609 -23.9454H796.804M878.413 -23.9454L880.803 -18.3507M878.413 -23.9454H919.218M919.218 -23.9454L921.595 -19.77L921.999 -19.0619L922.404 -18.3507M839.202 -18.3507H880.803M839.202 -18.3507H797.601M883.288 -12.5336L883.605 -11.79L883.924 -11.0433L884.245 -10.2919L885.873 -6.48027M883.288 -12.5336L882.033 -15.4711L881.723 -16.1962L881.415 -16.9182L880.803 -18.3507M883.288 -12.5336H925.716M880.803 -18.3507H922.404M797.601 -18.3507H756M797.601 -18.3507L796.804 -23.9454M922.404 -18.3507L925.716 -12.5336M796.804 -23.9454H756M885.873 -6.48027L888.223 -0.978264L888.566 -0.175934M885.873 -6.48027H929.164M925.716 -12.5336L926.566 -11.0433L929.164 -6.48027M929.164 -6.48027L930.493 -4.14664L932.755 -0.175934M844.377 -0.175934L845.303 3.07507L845.537 3.89902L846.249 6.39558M844.377 -0.175934H888.566M844.377 -0.175934H800.189M888.566 -0.175934L891.372 6.39558M888.566 -0.175934H932.755M932.755 -0.175934L936.496 6.39558M846.249 6.39558H891.372M846.249 6.39558H801.124M894.3 13.2513L891.372 6.39558M894.3 13.2513L897.358 20.4097M894.3 13.2513H940.401M891.372 6.39558H936.496M801.124 6.39558H756M801.124 6.39558L800.886 4.72683L800.419 1.44107L800.189 -0.175934M936.496 6.39558L940.401 13.2513M800.189 -0.175934H756M897.358 20.4097L899.741 25.9904L900.554 27.8924M897.358 20.4097H944.478M940.401 13.2513L944.478 20.4097M944.478 20.4097L946.584 24.1093L948.739 27.8924M852.37 27.8924L854.599 35.721M852.37 27.8924H900.554M852.37 27.8924H804.185M900.554 27.8924L903.898 35.721M900.554 27.8924H948.739M948.739 27.8924L953.197 35.721M854.599 35.721H903.898M854.599 35.721H805.299M907.4 43.9204L906.509 41.8346L903.898 35.721M907.4 43.9204L911.072 52.5174M907.4 43.9204H957.867M903.898 35.721H953.197M805.299 35.721H756M805.299 35.721L804.185 27.8924M953.197 35.721L957.867 43.9204M804.185 27.8924H756M911.072 52.5174L914.926 61.5422M911.072 52.5174H962.763M957.867 43.9204L962.763 52.5174M962.763 52.5174L967.902 61.5422M861.951 61.5422L864.652 71.0266M861.951 61.5422H914.926M861.951 61.5422H808.976M914.926 61.5422L918.978 71.0266M914.926 61.5422H967.902M967.902 61.5422L973.304 71.0266M864.652 71.0266H918.978M864.652 71.0266H810.326M923.241 81.0074L918.978 71.0266M923.241 81.0074L927.733 91.5241M923.241 81.0074H978.987M918.978 71.0266H973.304M810.326 71.0266H756M810.326 71.0266L809.14 62.7021L808.976 61.5422M973.304 71.0266L978.987 81.0074M808.976 61.5422H756M927.733 91.5241L932.473 102.622M927.733 91.5241H984.977M978.987 81.0074L983.449 88.843L984.977 91.5241M984.977 91.5241L991.297 102.622M873.648 102.622L876.988 114.349M873.648 102.622H932.473M873.648 102.622H814.825M932.473 102.622L937.482 114.349M932.473 102.622H991.297M991.297 102.622L997.976 114.349M876.988 114.349H937.482M876.988 114.349H816.494M942.783 126.762L937.482 114.349M942.783 126.762L948.404 139.922M942.783 126.762H1005.04M937.482 114.349H997.976M816.494 114.349H756M816.494 114.349L814.825 102.622M997.976 114.349L1005.04 126.762M814.825 102.622H756M948.404 139.922L954.374 153.899M948.404 139.922H1012.54M1005.04 126.762L1012.54 139.922M1012.54 139.922L1020.5 153.899M888.249 153.899L892.484 168.77M888.249 153.899H954.374M888.249 153.899H822.125M954.374 153.899L960.726 168.77M954.374 153.899H1020.5M1020.5 153.899L1028.97 168.77M892.484 168.77H960.726M892.484 168.77H824.242M967.498 184.625L960.726 168.77M967.498 184.625L974.733 201.565M967.498 184.625H1038M960.726 168.77H1028.97M824.242 168.77H756M824.242 168.77L822.125 153.899M1028.97 168.77L1038 184.625M822.125 153.899H756M974.733 201.565L982.481 219.705M974.733 201.565H1047.64M1038 184.625L1047.64 201.565M1047.64 201.565L1057.98 219.705M906.987 219.705L912.532 239.178M906.987 219.705H982.481M906.987 219.705H831.494M982.481 219.705L990.798 239.178M982.481 219.705H1057.98M1057.98 219.705L1069.06 239.178M912.532 239.178H990.798M912.532 239.178H834.266M999.75 260.135L990.798 239.178M999.75 260.135L1009.41 282.754M999.75 260.135H1081M990.798 239.178H1069.06M834.266 239.178H756M834.266 239.178L831.494 219.705M1069.06 239.178L1081 260.135M831.494 219.705H756M1009.41 282.754L1019.87 307.239M1009.41 282.754H1093.88M1081 260.135L1093.88 282.754M1093.88 282.754L1107.82 307.239M931.912 307.239L939.485 333.832M931.912 307.239H1019.87M931.912 307.239H843.957M1019.87 307.239L1031.23 333.832M1019.87 307.239H1107.82M1107.82 307.239L1122.97 333.832M939.485 333.832H1031.23M939.485 333.832H847.742M1043.61 362.818L1031.23 333.832M1043.61 362.818L1057.15 394.534M1043.61 362.818H1139.48M1031.23 333.832H1122.97M847.742 333.832H756M847.742 333.832L843.957 307.239M1122.97 333.832L1139.48 362.818M843.957 307.239H756M1057.15 394.534L1072.04 429.386M1057.15 394.534H1157.54M1139.48 362.818L1157.54 394.534M1157.54 394.534L1177.39 429.386M966.693 429.386L977.649 467.863M966.693 429.386H1072.04M966.693 429.386H861.347M1072.04 429.386L1088.47 467.863M1072.04 429.386H1177.39M1177.39 429.386L1199.3 467.863M1088.47 467.863H977.649M1088.47 467.863H1199.3M977.649 467.863H866.825M866.825 467.863H756M866.825 467.863L861.347 429.386M861.347 429.386H756M680.197 -44.3325L680.028 -43.7394L679.858 -43.1441L679.688 -42.5456L679.517 -41.944L679.172 -40.734L678.998 -40.1247L678.824 -39.5124M680.197 -44.3325H718.098M680.197 -44.3325H642.294M718.76 -48.9843L719.4 -53.4762M718.76 -48.9843L718.098 -44.3325M718.76 -48.9843H756M719.4 -53.4762L719.478 -54.0268L719.557 -54.5751L719.634 -55.1211L720.018 -57.8161M719.4 -53.4762H756M684.036 -57.8161L684.187 -58.3489L684.787 -60.4555L685.231 -62.0123M684.036 -57.8161H720.018M684.036 -57.8161H648.054M718.098 -44.3325L718.013 -43.7394L717.929 -43.1441L717.843 -42.5456L717.412 -39.5124M718.098 -44.3325H756M756 -48.9843V-53.4762M756 -48.9843V-44.3325M756 -53.4762V-57.8161M720.018 -57.8161H756M720.018 -57.8161L720.244 -59.406L720.32 -59.9319L720.616 -62.0123M756 -44.3325V-39.5124M791.982 -57.8161L791.756 -59.406L791.681 -59.9319L791.607 -60.4555L791.532 -60.9767L791.459 -61.4956L791.385 -62.0123M791.982 -57.8161H756M756 -57.8161V-62.0123M678.824 -39.5124H717.412M678.824 -39.5124H640.236M716.701 -34.5146L716.609 -33.8775L716.519 -33.2366L715.962 -29.3292M716.701 -34.5146L717.412 -39.5124M716.701 -34.5146H756M717.412 -39.5124H756M640.236 -39.5124H601.648M640.236 -39.5124L640.757 -40.734L641.017 -41.3402L641.274 -41.944L641.532 -42.5456L641.787 -43.1441L642.042 -43.7394L642.294 -44.3325M756 -39.5124V-34.5146M642.294 -44.3325H604.393M715.962 -29.3292L715.196 -23.9454M715.962 -29.3292H756M756 -34.5146V-29.3292M756 -29.3292V-23.9454M674.391 -23.9454L672.798 -18.3507M674.391 -23.9454H715.196M674.391 -23.9454H633.587M715.196 -23.9454L714.399 -18.3507M715.196 -23.9454H756M756 -23.9454V-18.3507M672.798 -18.3507H714.399M672.798 -18.3507H631.197M713.571 -12.5336L714.399 -18.3507M713.571 -12.5336L712.709 -6.48027M713.571 -12.5336H756M714.399 -18.3507H756M631.197 -18.3507H589.596M631.197 -18.3507L633.587 -23.9454M756 -18.3507V-12.5336M633.587 -23.9454H592.783M712.709 -6.48027L712.377 -4.14664L712.039 -1.77673L711.811 -0.175934M712.709 -6.48027H756M756 -12.5336V-6.48027M756 -6.48027V-0.175934M667.623 -0.175934L666.697 3.07507L666.463 3.89902L665.752 6.39558M667.623 -0.175934H711.811M667.623 -0.175934H623.434M711.811 -0.175934L711.581 1.44107L711.114 4.72683L710.876 6.39558M711.811 -0.175934H756M756 -0.175934V6.39558M665.752 6.39558H710.876M665.752 6.39558H620.628M709.9 13.2513L710.024 12.3779L710.876 6.39558M709.9 13.2513L708.881 20.4097M709.9 13.2513H756M710.876 6.39558H756M620.628 6.39558H575.504M620.628 6.39558L623.434 -0.175934M756 6.39558V13.2513M623.434 -0.175934H579.246M708.881 20.4097L707.815 27.8924M708.881 20.4097H756M756 13.2513V20.4097M756 20.4097V27.8924M659.63 27.8924L657.401 35.721M659.63 27.8924H707.815M659.63 27.8924H611.446M707.815 27.8924L706.701 35.721M707.815 27.8924H756M756 27.8924V35.721M657.401 35.721H706.701M657.401 35.721H608.102M705.534 43.9204L706.701 35.721M705.534 43.9204L704.31 52.5174M705.534 43.9204H756M706.701 35.721H756M608.102 35.721H558.803M608.102 35.721L611.446 27.8924M756 35.721V43.9204M611.446 27.8924H563.261M704.31 52.5174L703.024 61.5422M704.31 52.5174H756M756 43.9204V52.5174M756 52.5174V61.5422M650.049 61.5422L647.348 71.0266M650.049 61.5422H703.024M650.049 61.5422H597.074M703.024 61.5422L701.674 71.0266M703.024 61.5422H756M756 61.5422V71.0266M647.348 71.0266H701.674M647.348 71.0266H593.023M700.253 81.0074L701.674 71.0266M700.253 81.0074L698.756 91.5241M700.253 81.0074H756M701.674 71.0266H756M593.023 71.0266H538.696M593.023 71.0266L597.074 61.5422M756 71.0266V81.0074M597.074 61.5422H544.098M698.756 91.5241L697.176 102.622M698.756 91.5241H756M756 81.0074V91.5241M756 91.5241V102.622M638.352 102.622L635.012 114.349M638.352 102.622H697.176M638.352 102.622H579.527M697.176 102.622L695.506 114.349M697.176 102.622H756M756 102.622V114.349M635.012 114.349H695.506M635.012 114.349H574.518M693.739 126.762L695.506 114.349M693.739 126.762L691.865 139.922M693.739 126.762H756M695.506 114.349H756M574.518 114.349H514.025M574.518 114.349L579.527 102.622M756 114.349V126.762M579.527 102.622H520.703M691.865 139.922L689.875 153.899M691.865 139.922H756M756 126.762V139.922M756 139.922V153.899M623.751 153.899L619.516 168.77M623.751 153.899H689.875M623.751 153.899H557.626M689.875 153.899L687.758 168.77M689.875 153.899H756M756 153.899V168.77M619.516 168.77H687.758M619.516 168.77H551.274M685.501 184.625L687.758 168.77M685.501 184.625L683.089 201.565M685.501 184.625H756M687.758 168.77H756M551.274 168.77H483.033M551.274 168.77L557.626 153.899M756 168.77V184.625M557.626 153.899H491.502M683.089 201.565L680.506 219.705M683.089 201.565H756M756 184.625V201.565M756 201.565V219.705M605.013 219.705L599.468 239.178M605.013 219.705H680.506M605.013 219.705H529.519M680.506 219.705L677.734 239.178M680.506 219.705H756M756 219.705V239.178M599.468 239.178H677.734M599.468 239.178H521.202M674.75 260.135L677.734 239.178M674.75 260.135L671.53 282.754M674.75 260.135H756M677.734 239.178H756M521.202 239.178H442.936M521.202 239.178L529.519 219.705M756 239.178V260.135M529.519 219.705H454.025M671.53 282.754L668.044 307.239M671.53 282.754H756M756 260.135V282.754M756 282.754V307.239M580.088 307.239L572.515 333.832M580.088 307.239H668.044M580.088 307.239H492.131M668.044 307.239L664.258 333.832M668.044 307.239H756M756 307.239V333.832M572.515 333.832H664.258M572.515 333.832H480.773M660.131 362.818L664.258 333.832M660.131 362.818L655.616 394.534M660.131 362.818H756M664.258 333.832H756M480.773 333.832H389.03M480.773 333.832L492.131 307.239M756 333.832V362.818M492.131 307.239H404.175M655.616 394.534L650.653 429.386M655.616 394.534H756M756 362.818V394.534M756 394.534V429.386M545.307 429.386L534.351 467.863M545.307 429.386H650.653M545.307 429.386H439.96M650.653 429.386L645.175 467.863M650.653 429.386H756M756 429.386V467.863M645.175 467.863H534.351M645.175 467.863H756M534.351 467.863H423.526M423.526 467.863H312.701M423.526 467.863L439.96 429.386M439.96 429.386H334.613M528.589 -44.3325L526.549 -41.944L524.472 -39.5124M528.589 -44.3325H566.491M528.589 -44.3325H490.688M569.802 -48.9843L573 -53.4762M569.802 -48.9843L566.491 -44.3325M569.802 -48.9843H607.042M573 -53.4762H609.6M573 -53.4762L575.327 -56.745L576.089 -57.8161M540.107 -57.8161H576.089M540.107 -57.8161L541.466 -59.406L543.692 -62.0123M540.107 -57.8161H504.125M566.491 -44.3325L563.06 -39.5124M566.491 -44.3325H604.393M607.042 -48.9843L609.6 -53.4762M607.042 -48.9843L604.393 -44.3325M609.6 -53.4762L610.847 -55.6647L611.768 -57.2817L612.071 -57.8161M576.089 -57.8161H612.071M576.089 -57.8161L578.339 -60.9767L579.076 -62.0123M604.393 -44.3325L602.343 -40.734L601.648 -39.5124M648.054 -57.8161L648.281 -58.3489L648.733 -59.406L649.403 -60.9767L649.846 -62.0123M648.054 -57.8161H612.071M612.071 -57.8161L612.374 -58.3489L612.977 -59.406L614.461 -62.0123M524.472 -39.5124H563.06M524.472 -39.5124H485.883M559.502 -34.5146L559.954 -35.1494L560.404 -35.7818L562.183 -38.2807L563.06 -39.5124M559.502 -34.5146L556.746 -30.6443L555.81 -29.3292M559.502 -34.5146H598.802M563.06 -39.5124H601.648M485.883 -39.5124H447.295M485.883 -39.5124L489.502 -43.1441L490.688 -44.3325M601.648 -39.5124L598.802 -34.5146M490.688 -44.3325H452.785M555.81 -29.3292L555.34 -28.6674L554.866 -28.0026L553.433 -25.9879L552.949 -25.3106L551.978 -23.9454M555.81 -29.3292H595.848M598.802 -34.5146L598.438 -33.8775L595.848 -29.3292M595.848 -29.3292L595.472 -28.6674L595.093 -28.0026L594.712 -27.3338L592.783 -23.9454M511.174 -23.9454L506.395 -18.3507M511.174 -23.9454H551.978M511.174 -23.9454H470.369M551.978 -23.9454L547.995 -18.3507M551.978 -23.9454H592.783M592.783 -23.9454L589.596 -18.3507M506.395 -18.3507H547.995M506.395 -18.3507H464.794M543.855 -12.5336L547.995 -18.3507M543.855 -12.5336L539.545 -6.48027M543.855 -12.5336H586.284M547.995 -18.3507H589.596M464.794 -18.3507H423.193M464.794 -18.3507L470.369 -23.9454M589.596 -18.3507L586.284 -12.5336M470.369 -23.9454H429.564M539.545 -6.48027L535.058 -0.175934M539.545 -6.48027H582.836M586.284 -12.5336L585.434 -11.0433L582.836 -6.48027M582.836 -6.48027L581.507 -4.14664L580.157 -1.77673L579.246 -0.175934M490.869 -0.175934L488.091 3.07507L485.255 6.39558M490.869 -0.175934H535.058M490.869 -0.175934H446.68M535.058 -0.175934L530.379 6.39558M535.058 -0.175934H579.246M579.246 -0.175934L575.504 6.39558M485.255 6.39558H530.379M485.255 6.39558H440.131M525.499 13.2513L530.379 6.39558M525.499 13.2513L520.403 20.4097M525.499 13.2513H571.599M530.379 6.39558H575.504M440.131 6.39558H395.007M440.131 6.39558L446.68 -0.175934M575.504 6.39558L571.599 13.2513M446.68 -0.175934H402.492M520.403 20.4097L519.093 22.2491L515.077 27.8924M520.403 20.4097H567.522M571.599 13.2513L567.522 20.4097M567.522 20.4097L567 21.327L565.416 24.1093L563.261 27.8924M466.892 27.8924L460.204 35.721M466.892 27.8924H515.077M466.892 27.8924H418.707M515.077 27.8924L509.504 35.721M515.077 27.8924H563.261M563.261 27.8924L558.803 35.721M460.204 35.721H509.504M460.204 35.721H410.905M503.667 43.9204L507.347 38.7512L509.504 35.721M503.667 43.9204L497.546 52.5174M503.667 43.9204H554.133M509.504 35.721H558.803M410.905 35.721H361.606M410.905 35.721L418.707 27.8924M558.803 35.721L554.133 43.9204M418.707 27.8924H370.522M497.546 52.5174L491.122 61.5422M497.546 52.5174H549.237M554.133 43.9204L549.237 52.5174M549.237 52.5174L544.098 61.5422M438.146 61.5422L430.044 71.0266M438.146 61.5422H491.122M438.146 61.5422H385.171M491.122 61.5422L484.371 71.0266M491.122 61.5422H544.098M544.098 61.5422L538.696 71.0266M430.044 71.0266H484.371M430.044 71.0266H375.719M477.266 81.0074L484.371 71.0266M477.266 81.0074L469.779 91.5241M477.266 81.0074H533.013M484.371 71.0266H538.696M375.719 71.0266H321.393M375.719 71.0266L385.171 61.5422M538.696 71.0266L533.013 81.0074M385.171 61.5422H332.196M469.779 91.5241L461.879 102.622M469.779 91.5241H527.023M533.013 81.0074L527.023 91.5241M527.023 91.5241L520.703 102.622M403.055 102.622L393.037 114.349M403.055 102.622H461.879M403.055 102.622H344.23M461.879 102.622L453.531 114.349M461.879 102.622H520.703M520.703 102.622L514.025 114.349M393.037 114.349H453.531M393.037 114.349H332.543M444.694 126.762L453.531 114.349M444.694 126.762L435.326 139.922M444.694 126.762H506.956M453.531 114.349H514.025M332.543 114.349H272.049M332.543 114.349L344.23 102.622M514.025 114.349L506.956 126.762M344.23 102.622H285.406M435.326 139.922L425.377 153.899M435.326 139.922H499.461M506.956 126.762L499.461 139.922M499.461 139.922L491.502 153.899M359.252 153.899L346.549 168.77M359.252 153.899H425.377M359.252 153.899H293.128M425.377 153.899L414.791 168.77M425.377 153.899H491.502M491.502 153.899L483.033 168.77M346.549 168.77H414.791M346.549 168.77H278.307M403.504 184.625L414.791 168.77M403.504 184.625L391.444 201.565M403.504 184.625H474.003M414.791 168.77H483.033M278.307 168.77H210.065M278.307 168.77L293.128 153.899M483.033 168.77L474.003 184.625M293.128 153.899H227.003M391.444 201.565L378.532 219.705M391.444 201.565H464.356M474.003 184.625L464.356 201.565M464.356 201.565L454.025 219.705M303.038 219.705L286.404 239.178M303.038 219.705H378.532M303.038 219.705H227.544M378.532 219.705L364.67 239.178M378.532 219.705H454.025M454.025 219.705L442.936 239.178M286.404 239.178H364.67M286.404 239.178H208.138M349.751 260.135L364.67 239.178M349.751 260.135L333.649 282.754M349.751 260.135H431.001M364.67 239.178H442.936M208.138 239.178H129.872M208.138 239.178L227.544 219.705M442.936 239.178L431.001 260.135M227.544 219.705H152.05M333.649 282.754L316.219 307.239M333.649 282.754H418.119M431.001 260.135L418.119 282.754M418.119 282.754L404.175 307.239M228.263 307.239L205.546 333.832M228.263 307.239H316.219M228.263 307.239H140.307M316.219 307.239L297.288 333.832M316.219 307.239H404.175M404.175 307.239L389.03 333.832M205.546 333.832H297.288M205.546 333.832H113.803M276.654 362.818L297.288 333.832M276.654 362.818L254.076 394.534M276.654 362.818H372.523M297.288 333.832H389.03M113.803 333.832H22.061M113.803 333.832L140.307 307.239M389.03 333.832L372.523 362.818M140.307 307.239H52.3508M254.076 394.534L229.267 429.386M254.076 394.534H354.461M372.523 362.818L354.461 394.534M354.461 394.534L334.613 429.386M123.92 429.386L91.0513 467.863M123.92 429.386H229.267M123.92 429.386H18.5726M229.267 429.386L201.876 467.863M229.267 429.386H334.613M334.613 429.386L312.701 467.863M201.876 467.863H91.0513M201.876 467.863H312.701M91.0513 467.863L0.406923 467.863M18.5726 429.386L0.406923 447.614M18.5726 429.386H0.406923M376.982 -44.3325L370.119 -39.5124M376.982 -44.3325H414.884M376.982 -44.3325H339.08M420.844 -48.9843L426.6 -53.4762M420.844 -48.9843L414.884 -44.3325M420.844 -48.9843H458.084M426.6 -53.4762H463.2M426.6 -53.4762L432.161 -57.8161M396.179 -57.8161H432.161M396.179 -57.8161L398.443 -59.406L402.153 -62.0123M396.179 -57.8161H360.197M414.884 -44.3325L408.707 -39.5124M414.884 -44.3325H452.785M458.084 -48.9843L463.2 -53.4762M458.084 -48.9843L452.785 -44.3325M463.2 -53.4762L466.924 -56.745L468.143 -57.8161M432.161 -57.8161L432.843 -58.3489L437.538 -62.0123M432.161 -57.8161H468.143M452.785 -44.3325L447.295 -39.5124M504.125 -57.8161L508.307 -62.0123M504.125 -57.8161H468.143M468.143 -57.8161L469.955 -59.406L472.923 -62.0123M370.119 -39.5124H408.707M370.119 -39.5124H331.531M402.304 -34.5146L408.707 -39.5124M402.304 -34.5146L395.659 -29.3292M402.304 -34.5146H441.603M408.707 -39.5124H447.295M331.531 -39.5124H292.943M331.531 -39.5124L339.08 -44.3325M447.295 -39.5124L441.603 -34.5146M339.08 -44.3325H301.179M395.659 -29.3292L393.958 -28.0026L388.76 -23.9454M395.659 -29.3292H435.697M441.603 -34.5146L435.697 -29.3292M435.697 -29.3292L429.564 -23.9454M347.955 -23.9454L346.977 -23.2573L339.991 -18.3507M347.955 -23.9454H388.76M347.955 -23.9454H307.151M388.76 -23.9454L381.592 -18.3507M388.76 -23.9454H429.564M429.564 -23.9454L428.782 -23.2573L423.193 -18.3507M339.991 -18.3507H381.592M339.991 -18.3507H298.39M374.138 -12.5336L381.592 -18.3507M374.138 -12.5336L366.382 -6.48027M374.138 -12.5336H416.567M381.592 -18.3507H423.193M298.39 -18.3507H256.789M298.39 -18.3507L307.151 -23.9454M423.193 -18.3507L416.567 -12.5336M307.151 -23.9454H266.347M366.382 -6.48027L358.303 -0.175934M366.382 -6.48027H409.672M416.567 -12.5336L409.672 -6.48027M409.672 -6.48027L402.492 -0.175934M314.115 -0.175934L304.759 6.39558M314.115 -0.175934H358.303M314.115 -0.175934H269.926M358.303 -0.175934L349.883 6.39558M358.303 -0.175934H402.492M402.492 -0.175934L395.007 6.39558M304.759 6.39558H349.883M304.759 6.39558H259.634M341.098 13.2513L349.883 6.39558M341.098 13.2513L331.925 20.4097M341.098 13.2513H387.198M349.883 6.39558H395.007M259.634 6.39558H214.511M259.634 6.39558L269.926 -0.175934M395.007 6.39558L387.198 13.2513M269.926 -0.175934H225.737M331.925 20.4097L322.338 27.8924M331.925 20.4097H379.045M387.198 13.2513L379.045 20.4097M379.045 20.4097L370.522 27.8924M274.153 27.8924L263.007 35.721M274.153 27.8924H322.338M274.153 27.8924H225.968M322.338 27.8924L312.306 35.721M322.338 27.8924H370.522M370.522 27.8924L361.606 35.721M263.007 35.721H312.306M263.007 35.721H213.708M301.8 43.9204L312.306 35.721M301.8 43.9204L290.784 52.5174M301.8 43.9204H352.266M312.306 35.721H361.606M213.708 35.721H164.408M213.708 35.721L225.968 27.8924M361.606 35.721L352.266 43.9204M225.968 27.8924H177.783M290.784 52.5174L279.22 61.5422M290.784 52.5174H342.474M352.266 43.9204L342.474 52.5174M342.474 52.5174L332.196 61.5422M226.244 61.5422L212.741 71.0266M226.244 61.5422H279.22M226.244 61.5422H173.269M279.22 61.5422L267.067 71.0266M279.22 61.5422H332.196M332.196 61.5422L321.393 71.0266M212.741 71.0266H267.067M212.741 71.0266H158.415M254.278 81.0074L267.067 71.0266M254.278 81.0074L240.802 91.5241M254.278 81.0074H310.025M267.067 71.0266H321.393M158.415 71.0266H104.089M158.415 71.0266L173.269 61.5422M321.393 71.0266L310.025 81.0074M173.269 61.5422H120.294M240.802 91.5241L226.582 102.622M240.802 91.5241H298.046M310.025 81.0074L298.046 91.5241M298.046 91.5241L285.406 102.622M167.757 102.622L151.061 114.349M167.757 102.622H226.582M167.757 102.622H108.934M226.582 102.622L211.555 114.349M226.582 102.622H285.406M285.406 102.622L272.049 114.349M151.061 114.349H211.555M151.061 114.349H90.5673M195.65 126.762L211.555 114.349M195.65 126.762L178.787 139.922M195.65 126.762H257.911M211.555 114.349H272.049M90.5673 114.349H30.0734M90.5673 114.349L108.934 102.622M272.049 114.349L257.911 126.762M108.934 102.622H50.1092M178.787 139.922L160.878 153.899M178.787 139.922H242.922M257.911 126.762L242.922 139.922M242.922 139.922L227.003 153.899M94.7537 153.899L73.5814 168.77M94.7537 153.899H160.878M94.7537 153.899H28.6291M160.878 153.899L141.823 168.77M160.878 153.899H227.003M227.003 153.899L210.065 168.77M73.5814 168.77H141.823M73.5814 168.77H5.33953M121.506 184.625L141.823 168.77M121.506 184.625L99.8005 201.565M121.506 184.625H192.006M141.823 168.77H210.065M5.33953 168.77L28.6291 153.899M5.33953 168.77H0.406923M5.33953 168.77L0.406923 171.919M210.065 168.77L192.006 184.625M28.6291 153.899H0.406923M99.8005 201.565L76.5565 219.705M99.8005 201.565H172.711M192.006 184.625L172.711 201.565M172.711 201.565L152.05 219.705M1.06256 219.705H76.5565M1.06256 219.705H0.406923M1.06256 219.705L0.406923 220.165M76.5565 219.705L51.6047 239.178M76.5565 219.705H152.05M152.05 219.705L129.872 239.178M24.7512 260.135L51.6047 239.178M24.7512 260.135H106.001M24.7512 260.135H0.406923M24.7512 260.135L0.406923 279.134M51.6047 239.178H129.872M51.6047 239.178H0.406923M129.872 239.178L106.001 260.135M106.001 260.135L80.2393 282.754M80.2393 282.754L52.3508 307.239M80.2393 282.754H0.406923M52.3508 307.239L22.061 333.832M52.3508 307.239H0.406923M22.061 333.832H0.406923M22.061 333.832L0.406923 352.844M225.375 -44.3325L215.767 -39.5124M225.375 -44.3325H263.277M225.375 -44.3325H187.473M271.886 -48.9843L280.2 -53.4762M271.886 -48.9843L263.277 -44.3325M271.886 -48.9843H309.126M280.2 -53.4762H316.8M280.2 -53.4762L288.233 -57.8161M252.251 -57.8161H288.233M252.251 -57.8161L260.614 -62.0123M252.251 -57.8161H216.269M263.277 -44.3325L254.355 -39.5124M263.277 -44.3325H301.179M309.126 -48.9843L316.8 -53.4762M309.126 -48.9843L301.179 -44.3325M316.8 -53.4762L324.215 -57.8161M288.233 -57.8161L289.217 -58.3489L295.999 -62.0123M288.233 -57.8161H324.215M301.179 -44.3325L292.943 -39.5124M360.197 -57.8161L366.768 -62.0123M360.197 -57.8161H324.215M324.215 -57.8161L325.124 -58.3489L331.383 -62.0123M215.767 -39.5124H254.355M215.767 -39.5124H177.18M245.105 -34.5146L254.355 -39.5124M245.105 -34.5146L235.507 -29.3292M245.105 -34.5146H284.405M254.355 -39.5124H292.943M177.18 -39.5124H138.592M177.18 -39.5124L187.473 -44.3325M292.943 -39.5124L284.405 -34.5146M187.473 -44.3325H149.571M235.507 -29.3292L225.542 -23.9454M235.507 -29.3292H275.545M284.405 -34.5146L283.315 -33.8775L275.545 -29.3292M275.545 -29.3292L266.347 -23.9454M184.738 -23.9454L173.587 -18.3507M184.738 -23.9454H225.542M184.738 -23.9454H143.933M225.542 -23.9454L215.188 -18.3507M225.542 -23.9454H266.347M266.347 -23.9454L256.789 -18.3507M173.587 -18.3507H215.188M173.587 -18.3507H131.986M204.422 -12.5336L215.188 -18.3507M204.422 -12.5336L193.218 -6.48027M204.422 -12.5336H246.851M215.188 -18.3507H256.789M131.986 -18.3507H90.3855M131.986 -18.3507L143.933 -23.9454M256.789 -18.3507L246.851 -12.5336M143.933 -23.9454H103.129M193.218 -6.48027L181.549 -0.175934M193.218 -6.48027H236.509M246.851 -12.5336L236.509 -6.48027M236.509 -6.48027L225.737 -0.175934M137.361 -0.175934L124.262 6.39558M137.361 -0.175934H181.549M137.361 -0.175934H93.1717M181.549 -0.175934L169.387 6.39558M181.549 -0.175934H225.737M225.737 -0.175934L214.511 6.39558M124.262 6.39558H169.387M124.262 6.39558H79.1381M156.697 13.2513L169.387 6.39558M156.697 13.2513L143.448 20.4097M156.697 13.2513H202.798M169.387 6.39558H214.511M79.1381 6.39558H34.0143M79.1381 6.39558L93.1717 -0.175934M214.511 6.39558L202.798 13.2513M93.1717 -0.175934H48.9837M143.448 20.4097L129.598 27.8924M143.448 20.4097H190.567M202.798 13.2513L190.567 20.4097M190.567 20.4097L177.783 27.8924M81.4136 27.8924L65.8098 35.721M81.4136 27.8924H129.598M81.4136 27.8924H33.2296M129.598 27.8924L115.109 35.721M129.598 27.8924H177.783M177.783 27.8924L164.408 35.721M65.8098 35.721H115.109M99.9327 43.9204L115.109 35.721M99.9327 43.9204L84.0212 52.5174M99.9327 43.9204H150.4M115.109 35.721H164.408M164.408 35.721L150.4 43.9204M33.2296 27.8924H0.406923M84.0212 52.5174L67.3178 61.5422M84.0212 52.5174H135.712M150.4 43.9204L135.712 52.5174M135.712 52.5174L120.294 61.5422M14.3421 61.5422H67.3178M14.3421 61.5422H0.406923M14.3421 61.5422L0.406923 68.5333M67.3178 61.5422L49.7629 71.0266M67.3178 61.5422H120.294M120.294 61.5422L104.089 71.0266M31.2902 81.0074L49.7629 71.0266M31.2902 81.0074L11.825 91.5241M31.2902 81.0074H87.0373M31.2902 81.0074H0.406923M49.7629 71.0266H104.089M49.7629 71.0266H0.406923M104.089 71.0266L87.0373 81.0074M0.253443 68.6103L0.406923 68.5333M11.825 91.5241H69.0691M11.825 91.5241H0.406923M11.825 91.5241L0.406923 97.6933M87.0373 81.0074L69.0691 91.5241M69.0691 91.5241L50.1092 102.622M50.1092 102.622L30.0734 114.349M50.1092 102.622H0.406923M8.86642 126.762L30.0734 114.349M8.86642 126.762H0.406923M8.86642 126.762L0.406923 131.714M30.0734 114.349H0.406923M73.7679 -44.3325L61.4156 -39.5124M73.7679 -44.3325H111.67M73.7679 -44.3325H35.8655M122.928 -48.9843L133.8 -53.4762M122.928 -48.9843L111.67 -44.3325M122.928 -48.9843H160.168M133.8 -53.4762H170.4M133.8 -53.4762L144.304 -57.8161M108.322 -57.8161H144.304M108.322 -57.8161L119.075 -62.0123M108.322 -57.8161H72.3402M111.67 -44.3325L100.004 -39.5124M111.67 -44.3325H149.571M160.168 -48.9843L170.4 -53.4762M160.168 -48.9843L149.571 -44.3325M170.4 -53.4762L180.286 -57.8161M144.304 -57.8161H180.286M144.304 -57.8161L154.461 -62.0123M149.571 -44.3325L138.592 -39.5124M216.269 -57.8161L225.23 -62.0123M216.269 -57.8161H180.286M180.286 -57.8161L189.845 -62.0123M61.4156 -39.5124H100.004M61.4156 -39.5124H22.8276M87.907 -34.5146L100.004 -39.5124M87.907 -34.5146L75.3562 -29.3292M87.907 -34.5146H127.206M100.004 -39.5124H138.592M22.8276 -39.5124L35.8655 -44.3325M22.8276 -39.5124H0.406923M138.592 -39.5124L127.206 -34.5146M35.8655 -44.3325H0.406923M75.3562 -29.3292L62.3246 -23.9454M75.3562 -29.3292H115.394M127.206 -34.5146L115.394 -29.3292M115.394 -29.3292L103.129 -23.9454M21.5202 -23.9454L7.18364 -18.3507M21.5202 -23.9454H62.3246M21.5202 -23.9454H0.406923M62.3246 -23.9454L48.7846 -18.3507M62.3246 -23.9454H103.129M103.129 -23.9454L90.3855 -18.3507M34.7053 -12.5336L48.7846 -18.3507M34.7053 -12.5336L20.0539 -6.48027M34.7053 -12.5336H77.1343M34.7053 -12.5336H0.406923M48.7846 -18.3507H7.18364M48.7846 -18.3507H90.3855M7.18364 -18.3507L0.406923 -15.7067M7.18364 -18.3507H0.406923M90.3855 -18.3507L77.1343 -12.5336M20.0539 -6.48027L4.79487 -0.175934M20.0539 -6.48027H63.3447M20.0539 -6.48027H0.406923M77.1343 -12.5336L63.3447 -6.48027M63.3447 -6.48027L48.9837 -0.175934M4.79487 -0.175934H48.9837M4.79487 -0.175934L0.406923 1.63669M4.79487 -0.175934H0.406923M48.9837 -0.175934L34.0143 6.39558M18.3971 13.2513L34.0143 6.39558M18.3971 13.2513L2.08969 20.4097M18.3971 13.2513H0.406923M34.0143 6.39558H0.406923M0.170798 6.39558H0.406923M2.08969 20.4097H0.406923M2.08969 20.4097L0.406923 21.1484M0 21.327L0.406923 21.1484M11.2095 -48.9843L23.9995 -53.4762M11.2095 -48.9843H0.406923M11.2095 -48.9843L0.406923 -45.1908M23.9995 -53.4762L36.3582 -57.8161M23.9995 -53.4762H0.406923M72.3402 -57.8161L83.6906 -62.0123M72.3402 -57.8161H36.3582M36.3582 -57.8161L48.306 -62.0123M36.3582 -57.8161H0.406923M1251.39 -62.0123H1286.77M1251.39 -62.0123H1216M1278.1 -66.071L1280.24 -65.0687L1286.77 -62.0123M1278.1 -66.071H1312.91M1286.77 -62.0123H1322.15M1312.91 -66.071L1315.19 -65.0687L1316.34 -64.5652L1322.15 -62.0123M1322.15 -62.0123H1357.54M1357.54 -62.0123H1392.92M1216 -62.0123H1180.62M1392.92 -62.0123H1428.31M1428.31 -62.0123L1417.33 -66.071M1428.31 -62.0123H1463.69M1417.33 -66.071H1452.14M1109.85 -62.0123H1145.23M1109.85 -62.0123H1074.46M1138.87 -66.071L1140.44 -65.0687L1141.23 -64.5652L1145.23 -62.0123M1138.87 -66.071H1173.68M1145.23 -62.0123H1180.62M1173.68 -66.071L1180.62 -62.0123M1074.46 -62.0123H1039.08M968.308 -62.0123H1003.69M968.308 -62.0123H932.924M999.647 -66.071L1000.15 -65.5714L1000.65 -65.0687L1001.15 -64.5652L1003.69 -62.0123M999.647 -66.071H1034.45M1003.69 -62.0123H1039.08M1034.45 -66.071L1039.08 -62.0123M932.924 -62.0123H897.538M826.769 -62.0123H862.154M826.769 -62.0123H791.385M860.421 -66.071L862.154 -62.0123M860.421 -66.071H895.227M862.154 -62.0123H897.538M895.227 -66.071L895.512 -65.5714L895.798 -65.0687L896.085 -64.5652L897.538 -62.0123M791.385 -62.0123H756M685.231 -62.0123H720.616M685.231 -62.0123H649.846M721.193 -66.071L720.616 -62.0123M721.193 -66.071H756M720.616 -62.0123H756M756 -66.071V-62.0123M649.846 -62.0123H614.461M543.692 -62.0123H579.076M543.692 -62.0123H508.307M581.966 -66.071L581.253 -65.0687L579.808 -63.0401L579.076 -62.0123M581.966 -66.071H616.773M579.076 -62.0123H614.461M616.773 -66.071L616.488 -65.5714L616.202 -65.0687L615.915 -64.5652L614.461 -62.0123M508.307 -62.0123H472.923M402.153 -62.0123H437.538M402.153 -62.0123H366.768M442.739 -66.071L441.455 -65.0687L440.808 -64.5652L437.538 -62.0123M442.739 -66.071H477.546M437.538 -62.0123H472.923M477.546 -66.071L476.976 -65.5714L472.923 -62.0123M366.768 -62.0123H331.383M260.614 -62.0123H295.999M260.614 -62.0123H225.23M303.512 -66.071L301.656 -65.0687L300.723 -64.5652L295.999 -62.0123M303.512 -66.071H338.318M295.999 -62.0123H331.383M338.318 -66.071L337.464 -65.5714L331.383 -62.0123M225.23 -62.0123H189.845M119.075 -62.0123H154.461M119.075 -62.0123H83.6906M164.284 -66.071L154.461 -62.0123M164.284 -66.071H199.091M154.461 -62.0123H189.845M199.091 -66.071L196.808 -65.0687L195.659 -64.5652L189.845 -62.0123M83.6906 -62.0123H48.306M25.0574 -66.071L12.9214 -62.0123M25.0574 -66.071H59.8642M25.0574 -66.071H0.406923M12.9214 -62.0123H48.306M12.9214 -62.0123L0.406923 -57.8263M12.9214 -62.0123H0.406923M59.8642 -66.071L57.0103 -65.0687L48.306 -62.0123M1452.14 -66.071L1454.99 -65.0687L1463.69 -62.0123M1463.69 -62.0123H1499.08M1499.08 -62.0123L1511.59 -57.8263M1499.08 -62.0123H1511.59M1511.59 131.714V126.762M1511.59 131.714V139.922M1511.59 126.762V114.349M1511.59 139.922V142.374V153.899M1511.59 153.899V168.77M1511.59 35.721V27.8924M1511.59 35.721V43.2614M1511.59 -66.071V-62.0123M1511.59 -62.0123V-57.8263M1511.59 -57.8263L1511.62 -57.8161H1511.59M1511.59 -57.8263V-57.8161M1511.59 -57.8161V-53.4762M1511.59 -53.4762V-48.9843M1511.59 -48.9843V-45.1908M1511.59 -45.1908V-44.3325M1511.59 -44.3325V-39.5124M1511.59 -39.5124V-34.5146M1511.59 -34.5146V-31.2249M1511.59 -31.2249V-29.3292M1511.59 -29.3292V-23.9454M1511.59 -23.9454V-18.3507M1511.59 -18.3507V-15.7066M1511.59 -15.7066V-12.5336M1511.59 -12.5336V-6.48027M1511.59 -6.48027V-0.175934M1511.59 -0.175934V1.63667M1511.59 1.63667V6.39558M1511.59 6.39558V13.2513M1511.59 13.2513V20.4097M1511.59 20.4097V21.1484M1511.59 21.1484V27.8924M1511.59 43.9204V52.5174M1511.59 43.9204V43.2614M1511.59 52.5174V61.5422M1511.59 61.5422V68.5333M1511.59 68.5333V71.0266M1511.59 71.0266V81.0074M1511.59 81.0074V91.5241M1511.59 91.5241V97.6933M1511.59 97.6933V102.622M1511.59 102.622V114.349M1511.59 168.77V171.919M1511.59 171.919V184.625M1511.59 184.625V201.565M1511.59 201.565V219.705M1511.59 219.705V220.165M1511.59 220.165V239.178M1511.59 239.178V260.135M1511.59 260.135V279.134M1511.59 279.134V282.754M1511.59 282.754V307.239M1511.59 307.239V333.832M1511.59 333.832V352.844M1511.59 352.844V362.818M1511.59 362.818V394.534M1511.59 394.534V429.386M1511.59 429.386V447.614M1511.59 447.614V467.863M1511.59 467.863V468H0.406923V467.863M0.406923 43.9204V52.5174M0.406923 43.9204V43.2614M0.406923 43.2614V35.721M0.406923 35.721V27.8924M0.406923 27.8924V21.1484M0.406923 21.1484V20.4097M0.406923 20.4097V13.2513M0.406923 13.2513V6.39558M0.406923 6.39558V1.63669M0.406923 1.63669V-0.175934M0.406923 -0.175934V-6.48027M0.406923 -6.48027V-12.5336M0.406923 -12.5336V-15.7067M0.406923 -15.7067V-18.3507M0.406923 -18.3507V-23.9454M0.406923 -23.9454V-29.3292M0.406923 -29.3292V-31.2249M0.406923 -31.2249V-34.5146M0.406923 -34.5146V-39.5124M0.406923 -39.5124V-44.3325M0.406923 -44.3325V-45.1908M0.406923 -45.1908V-48.9843M0.406923 -48.9843V-53.4762M0.406923 -53.4762V-57.8161M0.406923 -57.8161H0.376226L0.406923 -57.8263M0.406923 -57.8161V-57.8263M0.406923 -57.8263V-62.0123M0.406923 -62.0123V-66.071M0.406923 467.863V447.614M0.406923 447.614V429.386M0.406923 429.386V394.535M0.406923 394.535V362.818M0.406923 362.818V352.844M0.406923 352.844V333.832M0.406923 333.832V307.239M0.406923 307.239V282.754M0.406923 282.754V279.134M0.406923 279.134V260.135M0.406923 260.135V239.178M0.406923 239.178V220.165M0.406923 220.165V219.705M0.406923 219.705V201.565M0.406923 201.565V184.625M0.406923 184.625V171.919M0.406923 171.919V168.77M0.406923 168.77V153.899M0.406923 153.899V139.922M0.406923 139.922V131.714M0.406923 131.714V126.762M0.406923 126.762V114.349M0.406923 114.349V102.622M0.406923 102.622V97.6933M0.406923 97.6933V91.5241M0.406923 91.5241V81.0074M0.406923 81.0074V71.0266M0.406923 71.0266V68.5333M0.406923 68.5333V61.5422M0.406923 61.5422V52.5174" stroke="url(#paint0_radial_1_391)" stroke-width="0.7" stroke-miterlimit="10" stroke-linecap="round" stroke-linejoin="round"/>
<defs>
<radialGradient id="paint0_radial_1_391" cx="0" cy="0" r="1" gradientUnits="userSpaceOnUse" gradientTransform="translate(756 2) rotate(90) scale(449 1256.83)">
<stop stop-color="white" stop-opacity="0"/>
<stop offset="0.514" stop-color="white"/>
<stop offset="1" stop-color="white" stop-opacity="0"/>
</radialGradient>
</defs>
</svg>
