<svg width="56" height="56" viewBox="0 0 56 56" fill="none" xmlns="http://www.w3.org/2000/svg">
<rect width="56" height="56" rx="12" fill="white"/>
<path d="M37.4107 15.9951H35.8839V19.0079C35.8839 19.5677 35.4259 20.0258 34.8661 20.0258C34.3063 20.0258 33.8482 19.5677 33.8482 19.0079V15.9951H22.6518V19.0079C22.6518 19.5677 22.1937 20.0258 21.6339 20.0258C21.0741 20.0258 20.6161 19.5677 20.6161 19.0079V15.9951H19.0893C16.28 15.9951 14 18.2751 14 21.0844V22.1124H42.5V21.0844C42.5 18.2751 40.22 15.9951 37.4107 15.9951Z" fill="#A80606"/>
<path d="M14 37.4107C14 40.22 16.28 42.4999 19.0893 42.4999H37.4107C40.22 42.4999 42.5 40.22 42.5 37.4107V24.1479H14V37.4107ZM22.438 31.1407C22.835 30.7437 23.4864 30.7437 23.8834 31.1407L26.8555 34.1128L32.6166 28.3416C33.0136 27.9446 33.665 27.9446 34.062 28.3416C34.4589 28.7385 34.4589 29.3797 34.062 29.7869L27.5681 36.2707C27.3747 36.4641 27.11 36.5658 26.8555 36.5658C26.5909 36.5658 26.3262 36.4641 26.1328 36.2707L22.438 32.5758C22.0411 32.1789 22.0411 31.5376 22.438 31.1407Z" fill="#A80606"/>
<path d="M22.6519 15.0179C22.6519 14.458 22.1939 14 21.6341 14C21.0743 14 20.6162 14.458 20.6162 15.0179V15.995H22.6519V15.0179Z" fill="#A80606"/>
<path d="M35.8839 15.0179C35.8839 14.458 35.4258 14 34.866 14C34.3062 14 33.8481 14.458 33.8481 15.0179V15.995H35.8839V15.0179Z" fill="#A80606"/>
</svg>
