<svg width="56" height="56" viewBox="0 0 56 56" fill="none" xmlns="http://www.w3.org/2000/svg">
<rect width="56" height="56" rx="12" fill="white"/>
<path d="M16.5107 30.2234C14.7961 30.2234 13.4062 31.6133 13.4062 33.328C13.4062 35.0426 14.7961 36.4325 16.5107 36.4325C18.2254 36.4325 19.6153 35.0426 19.6153 33.328C19.6153 31.6133 18.2253 30.2234 16.5107 30.2234ZM16.511 34.6153C15.801 34.6153 15.2235 34.038 15.2235 33.328C15.2235 32.6179 15.801 32.0406 16.511 32.0406C17.2209 32.0406 17.7984 32.6179 17.7984 33.328C17.7984 34.038 17.2209 34.6153 16.511 34.6153Z" fill="#A80606"/>
<path d="M43.0628 33.3729C43.0628 31.6623 41.676 30.2754 39.9653 30.2754C38.2545 30.2754 36.8677 31.6623 36.8677 33.3729C36.8677 35.0839 38.2545 36.4705 39.9653 36.4705C41.676 36.4705 43.0628 35.0839 43.0628 33.3729ZM38.7004 33.3729C38.7004 32.6756 39.2678 32.1078 39.9654 32.1078C40.663 32.1078 41.2304 32.6756 41.2304 33.3729C41.2304 34.0706 40.663 34.6381 39.9654 34.6381C39.2678 34.6381 38.7004 34.0706 38.7004 33.3729Z" fill="#A80606"/>
<path d="M45.4809 28.1514C42.2798 26.2568 39.7982 27.5693 36.0211 24.9342C29.3774 20.299 20.8761 21.3066 17.3999 24.1915C16.2304 25.163 14.871 25.6894 13.4019 26.0208C12.6738 26.185 11.9666 26.4725 11.2778 26.7691C10.7945 26.9771 10.5818 27.3987 10.5765 27.9555C10.5716 28.4809 10.5789 29.0523 10.383 29.5206C9.97608 30.4923 9.97081 31.4831 10.023 32.4883C10.0647 33.2908 10.455 33.7846 11.1221 33.8687C11.4081 33.9049 11.6993 33.8996 11.9916 33.8909C12.2547 33.883 12.4663 33.6635 12.455 33.4004C12.329 30.4426 14.7535 28.9151 16.5755 28.9711C19.0864 29.0486 20.8441 31.073 20.6415 33.5005C20.6225 33.7287 20.7908 33.9283 21.0198 33.9283H35.2185C35.5653 33.9283 35.839 33.6399 35.8269 33.2933C35.7455 30.9486 37.5436 28.9539 40.0136 28.9978C42.407 29.0402 43.8822 30.7219 43.9763 33.5123C43.9843 33.7489 44.1725 33.9373 44.4094 33.9277C45.2888 33.8917 46.4605 33.9491 46.4605 33.9491C46.6701 33.953 46.8421 33.7841 46.8421 33.5744C46.8421 33.5744 46.6709 30.6888 46.551 29.8107C46.4536 29.0959 46.1259 28.5332 45.4809 28.1514ZM12.3501 29.2836C12.3501 29.5377 12.1438 29.7441 11.8897 29.7441C11.6356 29.7441 11.4293 29.5377 11.4293 29.2836V27.8501C11.4293 27.596 11.6356 27.3897 11.8897 27.3897C12.1438 27.3897 12.3501 27.596 12.3501 27.8501V29.2836ZM25.2917 27.0403C25.2917 27.1592 25.1955 27.2554 25.0769 27.2554H18.1056C17.9147 27.2554 17.8154 27.026 17.9506 26.8911C18.8295 26.0144 21.3718 23.87 25.0818 24.0288C25.1976 24.0336 25.2917 24.132 25.2917 24.2478V27.0403ZM29.8172 30.1556H27.9086C27.6545 30.1556 27.4482 29.9493 27.4482 29.6952C27.4482 29.4411 27.6545 29.2347 27.9086 29.2347H29.8172C30.0713 29.2347 30.2776 29.4411 30.2776 29.6952C30.2776 29.9493 30.0713 30.1556 29.8172 30.1556ZM34.4647 27.2554H27.4934C27.3747 27.2554 27.2785 27.1592 27.2785 27.0403V24.2478C27.2785 24.132 27.3727 24.0336 27.4884 24.0288C31.1984 23.87 33.7407 26.0144 34.6197 26.8911C34.7548 27.026 34.6555 27.2554 34.4647 27.2554ZM45.8016 30.7487C45.5001 30.8077 45.1865 30.5024 45.1011 30.0665C45.0158 29.6308 45.1909 29.2297 45.4923 29.1707C45.7938 29.1116 46.1073 29.4169 46.1928 29.8526C46.2782 30.2882 46.1031 30.6896 45.8016 30.7487Z" fill="#A80606"/>
<path d="M23.8979 19C23.7097 19 23.5571 19.1523 23.5571 19.3407V20.8124C23.5571 21.0154 23.725 21.1705 23.9268 21.148C25.3176 20.9931 26.7517 20.9867 28.1989 21.148C28.4007 21.1705 28.5684 21.0154 28.5684 20.8124V19.3407C28.5684 19.1523 28.4159 19 28.2277 19H23.8979Z" fill="#A80606"/>
</svg>
