<svg width="24" height="24" viewBox="0 0 24 24" fill="none" xmlns="http://www.w3.org/2000/svg">
<g clip-path="url(#clip0_1_999)">
<path d="M5.97069 0.749512C3.09126 0.749512 0.766391 3.08523 0.761707 5.96948L0.750007 13.1838C0.74547 15.9408 2.88223 18.1715 5.58326 18.3672V22.8745C5.58314 22.9488 5.6051 23.0215 5.64634 23.0833C5.68759 23.1451 5.74626 23.1932 5.81492 23.2216C5.88358 23.2501 5.95913 23.2574 6.03198 23.2428C6.10484 23.2282 6.17171 23.1923 6.22413 23.1396L10.9475 18.4045H18.0418C20.9212 18.4045 23.25 16.0694 23.25 13.1846V5.97022C23.25 3.08639 20.9329 0.749512 18.0535 0.749512H5.97069ZM8.25072 8.45313C8.86759 8.45313 9.37499 8.96131 9.37499 9.57813C9.37498 10.1949 8.86758 10.7031 8.25072 10.7031C7.63386 10.7031 7.12573 10.1949 7.12572 9.57813C7.12572 8.96131 7.63386 8.45313 8.25072 8.45313ZM12 8.45313C12.6169 8.45313 13.125 8.96131 13.125 9.57813C13.125 10.1949 12.6168 10.7031 12 10.7031C11.3831 10.7031 10.875 10.1949 10.875 9.57813C10.875 8.96131 11.3831 8.45313 12 8.45313ZM15.7507 8.45313C16.3676 8.45313 16.8757 8.96131 16.8757 9.57813C16.8757 10.1949 16.3676 10.7031 15.7507 10.7031C15.1339 10.7031 14.625 10.1949 14.625 9.57813C14.625 8.96131 15.1339 8.45313 15.7507 8.45313Z" fill="#A80606"/>
</g>
<defs>
<clipPath id="clip0_1_999">
<rect width="24" height="24" fill="white"/>
</clipPath>
</defs>
</svg>
