<svg width="24" height="24" viewBox="0 0 24 24" fill="none" xmlns="http://www.w3.org/2000/svg">
<path d="M14.0057 14.7046C13.4086 15.1026 12.7151 15.313 12 15.313C11.285 15.313 10.5914 15.1026 9.99431 14.7046L0.159797 8.14801C0.105234 8.11164 0.0520781 8.07372 0 8.03472V18.7783C0 20.0101 0.999609 20.9877 2.20936 20.9877H21.7906C23.0224 20.9877 24 19.9881 24 18.7783V8.03467C23.9478 8.07376 23.8945 8.11178 23.8398 8.1482L14.0057 14.7046Z" fill="#A80606"/>
<path d="M0.939844 6.97746L10.7744 13.5341C11.1466 13.7823 11.5733 13.9063 12 13.9063C12.4267 13.9063 12.8534 13.7822 13.2256 13.5341L23.0602 6.97746C23.6487 6.58535 24 5.9291 24 5.22082C24 4.00296 23.0092 3.01221 21.7914 3.01221H2.20861C0.990797 3.01225 0 4.003 0 5.22199C0 5.9291 0.351375 6.58535 0.939844 6.97746Z" fill="#A80606"/>
</svg>
