<svg width="32" height="32" viewBox="0 0 32 32" fill="none" xmlns="http://www.w3.org/2000/svg">
<path d="M32 15.994C31.9989 12.9364 31.1216 9.9432 29.4722 7.36867C27.8228 4.79415 25.4702 2.74615 22.6929 1.46713C19.9157 0.188119 16.8302 -0.268353 13.8016 0.15176C10.773 0.571873 7.9282 1.85098 5.60398 3.83764C3.27976 5.82431 1.5735 8.43534 0.687103 11.3616C-0.199289 14.2879 -0.228678 17.4069 0.602475 20.3494C1.43363 23.2918 3.09051 25.9345 5.37692 27.9646C7.66334 29.9946 10.4835 31.327 13.5037 31.8041V20.6249H9.46071V15.994H13.5308V12.4666C13.5308 8.45981 15.9186 6.24387 19.5726 6.24387C20.7848 6.25945 21.9941 6.36526 23.1905 6.56043V10.4949H21.1736C20.8255 10.4397 20.4694 10.4648 20.1325 10.5681C19.7956 10.6714 19.4868 10.8502 19.2294 11.091C18.9721 11.3317 18.7731 11.6281 18.6476 11.9574C18.5222 12.2866 18.4735 12.6402 18.5054 12.9912V15.994H22.9463L22.2408 20.6249H18.5054V31.8041C22.2681 31.2057 25.694 29.2849 28.1676 26.387C30.6411 23.4891 31.9999 19.804 32 15.994Z" fill="white"/>
<path d="M22.232 20.6252L22.9375 15.9943H18.5056V12.9915C18.4754 12.6458 18.5234 12.2977 18.6458 11.973C18.7683 11.6483 18.9621 11.3553 19.2131 11.1156C19.4641 10.8759 19.7657 10.6957 20.0956 10.5883C20.4256 10.4809 20.7756 10.4491 21.1195 10.4951H23.1365V6.5607C21.94 6.36553 20.7307 6.25972 19.5186 6.24414C15.9007 6.24414 13.4768 8.46008 13.4768 12.4669V15.9943H9.46094V20.6252H13.531V31.8044C15.1856 32.0576 16.8691 32.0576 18.5237 31.8044V20.6252H22.232Z" fill="#A80606"/>
</svg>
