<svg width="56" height="56" viewBox="0 0 56 56" fill="none" xmlns="http://www.w3.org/2000/svg">
<rect width="56" height="56" rx="12" fill="white"/>
<path d="M42.7932 13.2373L42.7627 13.2066C41.2013 11.7218 38.0832 14.3589 38.0832 14.3589L32.422 18.8159L26.4622 17.7596C27.322 16.5133 27.581 15.276 27.0078 14.7028C26.2654 13.9604 24.4091 14.613 22.8618 16.1602C22.5912 16.4309 22.3487 16.7109 22.1355 16.9928L17.5594 16.1818L14.5113 18.779L26.9366 24.4805L18.9707 34.1057L14.0094 33.1755L12.7529 34.4302L21.5699 43.2469L22.8244 41.9905L21.8943 37.0291L31.5196 29.0633L37.2211 41.4885L39.8182 38.4404L39.0072 33.8643C39.2892 33.6511 39.5692 33.4087 39.8399 33.138C41.3871 31.5907 42.0397 29.7345 41.2974 28.9922C40.724 28.4189 39.4867 28.678 38.2404 29.5376L37.1841 23.578L41.6411 17.9167C41.6411 17.9167 44.2782 14.7986 42.7932 13.2373Z" fill="#A80606"/>
</svg>
