<svg width="32" height="32" viewBox="0 0 32 32" fill="none" xmlns="http://www.w3.org/2000/svg">
<path d="M16 32C24.8366 32 32 24.8366 32 16C32 7.16344 24.8366 0 16 0C7.16344 0 0 7.16344 0 16C0 24.8366 7.16344 32 16 32Z" fill="white"/>
<path d="M20.9657 9.94922C20.7475 9.94922 20.5341 10.0139 20.3527 10.1352C20.1712 10.2564 20.0298 10.4288 19.9463 10.6304C19.8628 10.832 19.8409 11.0539 19.8835 11.2679C19.9261 11.482 20.0311 11.6786 20.1855 11.8329C20.3398 11.9872 20.5364 12.0923 20.7505 12.1349C20.9645 12.1775 21.1864 12.1556 21.388 12.0721C21.5897 11.9886 21.762 11.8472 21.8832 11.6657C22.0045 11.4842 22.0692 11.2709 22.0692 11.0527C22.0692 10.76 21.9529 10.4793 21.746 10.2724C21.539 10.0655 21.2584 9.94922 20.9657 9.94922Z" fill="#A80606"/>
<path d="M16.072 11.3594C15.1579 11.3594 14.2643 11.6304 13.5043 12.1383C12.7442 12.6461 12.1519 13.368 11.802 14.2125C11.4522 15.057 11.3607 15.9863 11.539 16.8829C11.7173 17.7794 12.1575 18.6029 12.8039 19.2493C13.4503 19.8957 14.2738 20.3359 15.1704 20.5142C16.0669 20.6925 16.9962 20.601 17.8407 20.2512C18.6852 19.9014 19.4071 19.309 19.915 18.5489C20.4228 17.7889 20.6938 16.8953 20.6938 15.9812C20.6938 15.3742 20.5743 14.7732 20.342 14.2125C20.1098 13.6518 19.7694 13.1423 19.3402 12.7131C18.911 12.2839 18.4015 11.9435 17.8407 11.7112C17.28 11.4789 16.679 11.3594 16.072 11.3594ZM16.072 18.9388C15.4875 18.937 14.9165 18.762 14.4314 18.436C13.9462 18.1099 13.5685 17.6474 13.346 17.1068C13.1236 16.5662 13.0663 15.9718 13.1814 15.3987C13.2966 14.8256 13.5789 14.2994 13.9929 13.8867C14.4069 13.474 14.9339 13.1932 15.5074 13.0798C16.0809 12.9664 16.6751 13.0255 17.215 13.2496C17.7549 13.4737 18.2163 13.8528 18.5409 14.339C18.8655 14.8252 19.0387 15.3966 19.0387 15.9812C19.0363 16.7664 18.7227 17.5187 18.1666 18.0731C17.6105 18.6275 16.8573 18.9388 16.072 18.9388Z" fill="#A80606"/>
<path d="M19.7449 25.3612H12.256C11.516 25.3612 10.7832 25.2154 10.0996 24.9322C9.41592 24.6491 8.79478 24.234 8.27153 23.7108C7.74829 23.1875 7.33321 22.5663 7.05003 21.8827C6.76685 21.199 6.62109 20.4663 6.62109 19.7263V12.2374C6.62109 10.7429 7.2148 9.30968 8.27153 8.25294C9.32827 7.19621 10.7615 6.60254 12.256 6.60254H19.7449C21.2393 6.60254 22.6726 7.19621 23.7293 8.25294C24.7861 9.30968 25.3797 10.7429 25.3797 12.2374V19.7263C25.3797 20.4663 25.234 21.199 24.9508 21.8827C24.6676 22.5663 24.2526 23.1875 23.7293 23.7108C23.2061 24.234 22.5849 24.6491 21.9012 24.9322C21.2176 25.2154 20.4849 25.3612 19.7449 25.3612ZM12.256 8.36625C11.2293 8.36625 10.2446 8.7741 9.51865 9.50007C8.79268 10.226 8.38481 11.2107 8.38481 12.2374V19.7263C8.38243 20.2362 8.48083 20.7415 8.6743 21.2133C8.86778 21.6851 9.15254 22.1139 9.51225 22.4753C9.87195 22.8367 10.2995 23.1235 10.7704 23.3191C11.2412 23.5148 11.7461 23.6155 12.256 23.6155H19.7449C20.2533 23.6155 20.7566 23.5154 21.2263 23.3209C21.696 23.1263 22.1227 22.8412 22.4822 22.4817C22.8417 22.1222 23.1268 21.6955 23.3214 21.2258C23.5159 20.7562 23.616 20.2528 23.616 19.7444V12.2374C23.616 11.2107 23.2082 10.226 22.4822 9.50007C21.7562 8.7741 20.7716 8.36625 19.7449 8.36625H12.256Z" fill="#A80606"/>
</svg>
