<svg width="32" height="32" viewBox="0 0 32 32" fill="none" xmlns="http://www.w3.org/2000/svg">
<circle cx="16" cy="16" r="16" fill="white"/>
<path fill-rule="evenodd" clip-rule="evenodd" d="M11.8198 8.2275C11.8198 9.22357 11.0614 10.0297 9.87532 10.0297C8.73548 10.0297 7.97706 9.22357 8.00053 8.2275C7.97706 7.18302 8.73547 6.40039 9.89804 6.40039C11.0614 6.40039 11.7971 7.18302 11.8198 8.2275ZM8.09589 23.0556V11.4534H11.7017V23.0549H8.09589V23.0556Z" fill="#A80606"/>
<path fill-rule="evenodd" clip-rule="evenodd" d="M14.5915 15.1559C14.5915 13.7087 14.5438 12.475 14.4961 11.4547H17.6281L17.7946 13.0442H17.8657C18.3403 12.3085 19.5263 11.1943 21.4481 11.1943C23.8202 11.1943 25.5996 12.7603 25.5996 16.1754V23.057H21.9938V16.6273C21.9938 15.1317 21.4723 14.1121 20.1674 14.1121C19.1706 14.1121 18.578 14.8001 18.341 15.464C18.2457 15.7016 18.1987 16.0331 18.1987 16.3661V23.057H14.5929V15.1559H14.5915Z" fill="#A80606"/>
</svg>
