<svg width="34" height="34" viewBox="0 0 34 34" fill="none" xmlns="http://www.w3.org/2000/svg">
<path d="M32.75 16.75C32.75 7.91345 25.5866 0.750007 16.75 0.750006C7.91345 0.750005 0.750003 7.91345 0.750002 16.75C0.750001 25.5866 7.91344 32.75 16.75 32.75C25.5866 32.75 32.75 25.5866 32.75 16.75Z" fill="#0D0D0D" stroke="white" stroke-width="1.5" stroke-linecap="round" stroke-linejoin="round"/>
<path d="M22.75 16.75C22.75 13.4363 20.0637 10.75 16.75 10.75C13.4363 10.75 10.75 13.4363 10.75 16.75C10.75 20.0637 13.4363 22.75 16.75 22.75C20.0637 22.75 22.75 20.0637 22.75 16.75Z" fill="white"/>
<path d="M32.75 16.75C32.75 7.91345 25.5866 0.750007 16.75 0.750006C7.91345 0.750005 0.750003 7.91345 0.750002 16.75C0.750001 25.5866 7.91344 32.75 16.75 32.75C25.5866 32.75 32.75 25.5866 32.75 16.75Z" fill="#A80606" stroke="white" stroke-width="1.5" stroke-linecap="round" stroke-linejoin="round"/>
<path d="M22.75 16.75C22.75 13.4363 20.0637 10.75 16.75 10.75C13.4363 10.75 10.75 13.4363 10.75 16.75C10.75 20.0637 13.4363 22.75 16.75 22.75C20.0637 22.75 22.75 20.0637 22.75 16.75Z" fill="white"/>
</svg>
