<svg width="24" height="24" viewBox="0 0 24 24" fill="none" xmlns="http://www.w3.org/2000/svg">
<g clip-path="url(#clip0_1_2583)">
<path d="M11.8299 11.5618C13.4183 11.5618 14.7937 10.9922 15.9175 9.86816C17.0413 8.74435 17.611 7.3693 17.611 5.78074C17.611 4.19272 17.0413 2.81749 15.9174 1.69331C14.7934 0.569687 13.4181 0 11.8299 0C10.2414 0 8.86631 0.569687 7.74251 1.69349C6.6187 2.8173 6.04883 4.19254 6.04883 5.78074C6.04883 7.3693 6.6187 8.74454 7.74269 9.86834C8.86668 10.992 10.2419 11.5618 11.8299 11.5618Z" fill="#A80606"/>
<path d="M21.9454 18.4563C21.913 17.9886 21.8474 17.4784 21.7509 16.9397C21.6535 16.3969 21.5281 15.8838 21.3779 15.4149C21.2228 14.9301 21.0118 14.4515 20.7511 13.9927C20.4804 13.5166 20.1625 13.102 19.8058 12.7609C19.4328 12.404 18.9761 12.117 18.448 11.9077C17.9217 11.6995 17.3384 11.5941 16.7146 11.5941C16.4695 11.5941 16.2326 11.6946 15.775 11.9925C15.4933 12.1762 15.1639 12.3886 14.7962 12.6236C14.4818 12.8239 14.0558 13.0116 13.5297 13.1815C13.0164 13.3476 12.4953 13.4318 11.9809 13.4318C11.4665 13.4318 10.9455 13.3476 10.4317 13.1815C9.90615 13.0118 9.48022 12.8241 9.16616 12.6237C8.80194 12.391 8.47232 12.1786 8.18647 11.9923C7.7294 11.6944 7.49226 11.5939 7.24725 11.5939C6.62318 11.5939 6.04012 11.6995 5.51402 11.9079C4.98626 12.1169 4.52938 12.4038 4.156 12.7611C3.79946 13.1024 3.48138 13.5168 3.2111 13.9927C2.95052 14.4515 2.73956 14.93 2.58428 15.415C2.4343 15.884 2.30887 16.3969 2.21145 16.9397C2.11494 17.4777 2.04938 17.9881 2.01697 18.4568C1.98511 18.9161 1.96899 19.3928 1.96899 19.8742C1.96899 21.1271 2.36728 22.1414 3.15268 22.8895C3.92838 23.6276 4.95477 24.0021 6.20291 24.0021H17.76C19.0081 24.0021 20.0342 23.6278 20.81 22.8895C21.5956 22.142 21.9939 21.1275 21.9939 19.874C21.9937 19.3904 21.9774 18.9134 21.9454 18.4563Z" fill="#A80606"/>
</g>
<defs>
<clipPath id="clip0_1_2583">
<rect width="24.0019" height="24.002" fill="white"/>
</clipPath>
</defs>
</svg>
